<?xml version="1.0" encoding="UTF-8" standalone="no"?>
<!-- Created with Inkscape (http://www.inkscape.org/) -->

<svg
   width="14.718883mm"
   height="14.423213mm"
   viewBox="0 0 14.718883 14.423213"
   version="1.1"
   id="svg1"
   xml:space="preserve"
   xmlns="http://www.w3.org/2000/svg"
   xmlns:svg="http://www.w3.org/2000/svg"><defs
     id="defs1"><clipPath
       clipPathUnits="userSpaceOnUse"
       id="clipPath545-1-6-1-0-2-5-4"><path
         d="m 30763.8,0 h 5952.8 v 8418.9 h -5952.8 z"
         id="path545-9-3-0-5-9-9-5" /></clipPath><clipPath
       id="clip0-3-6-7-4"><rect
         x="424"
         y="109"
         width="468"
         height="452"
         id="rect1-9-7-4-8" /></clipPath><clipPath
       id="clip1-8-0-3-3"><rect
         x="424"
         y="327"
         width="468"
         height="234"
         id="rect2-4-8-6-6" /></clipPath><clipPath
       id="clip2-6-08-9-7"><rect
         x="424"
         y="327"
         width="468"
         height="234"
         id="rect3-0-7-9-6" /></clipPath><clipPath
       clipPathUnits="userSpaceOnUse"
       id="clipPath547-1-4"><path
         d="m 30763.8,0 h 5952.8 v 8418.9 h -5952.8 z"
         id="path547-1-6" /></clipPath><clipPath
       clipPathUnits="userSpaceOnUse"
       id="clipPath549-5-0"><path
         d="m 30763.8,0 h 5952.8 v 8418.9 h -5952.8 z"
         id="path549-5-5" /></clipPath><clipPath
       clipPathUnits="userSpaceOnUse"
       id="clipPath575-4-6"><path
         d="m 33179.4,3526.65 h 253.602 v 302.289 H 33179.4 Z"
         id="path575-2-9" /></clipPath></defs><g
     id="g1"
     transform="matrix(0.26458333,0,0,0.26458335,-1239.3273,-706.09897)"><path
       id="path544-5-9-8-5-8-6-1"
       d="m 33306.2,5348.74 c 143.2,0 259.2,116.05 259.2,259.2 0,143.15 -116,259.2 -259.2,259.2 -143.1,0 -259.2,-116.05 -259.2,-259.2 0,-143.15 116.1,-259.2 259.2,-259.2 z"
       style="fill:none;stroke:#fcfcfd;stroke-width:10;stroke-linecap:butt;stroke-linejoin:miter;stroke-miterlimit:4;stroke-dasharray:none;stroke-opacity:1"
       transform="matrix(0.10293627,0,0,-0.10293626,1284.0903,3273.2979)"
       clip-path="url(#clipPath545-1-6-1-0-2-5-4)" /><g
       clip-path="url(#clip0-3-6-7-4)"
       transform="matrix(0.06152425,0,0,0.06152424,4672.2043,2675.9445)"
       id="g11-0-99-4-3"><g
         clip-path="url(#clip1-8-0-3-3)"
         id="g5-5-7-7-6"><g
           clip-path="url(#clip2-6-08-9-7)"
           id="g4-2-9-6-8"><g
             id="g3-6-7-8"><path
               d="m 53637.5,9055.15 c 0,36.31 -28.7,66.04 -64.5,67.68 -2.8,13.06 -9.2,25.05 -19,34.65 -9.8,9.64 -21.8,15.95 -35,18.34 -2.5,13.37 -8.9,25.7 -18.7,35.55 -12.7,12.86 -29.9,19.93 -48,19.93 -18.2,0 -35.2,-7.07 -48,-19.93 -9.8,-9.85 -16.2,-22.18 -18.6,-35.55 -13.2,-2.39 -25.4,-8.7 -35.2,-18.34 -9.6,-9.6 -16.2,-21.59 -18.7,-34.65 -36,-1.64 -64.7,-31.37 -64.7,-67.68 v -39.88 h 370.4 z m -198.7,-67.1 h 27.1 v -54.19 h -27.1 z m 54.2,0 h 27 v -27.1 h -27 z m -108.4,0 h 27.1 v -27.1 h -27.1 z m 246.5,-57.34 -15.3,-15.2 v 65.74 h -27.1 v -65.74 l -15.1,15.2 -19.2,-19.16 47.9,-47.91 47.9,47.91 z m -300,0 -15.2,-15.2 v 65.74 h -27.2 v -65.74 l -15,15.2 -19.3,-19.16 48,-47.91 47.8,47.91 z m 271.2,-67.07 H 53343 v -47.42 h -27.1 v 47.42 h -27.2 v -47.42 h -26.9 v 47.42 h -40.8 v -94.85 h 340.6 v 47.43 h 27.1 v -47.43 h 27.1 v 47.43 h 27.1 v -47.43 h 40.6 v 94.85 h -81.2"
               fill="#ffffff"
               transform="matrix(1.00058,0,0,-1,-52827.9,9324.57)"
               id="path3-4-9-2-4" /></g></g></g><rect
         x="506"
         y="241"
         width="43"
         height="43"
         fill="#ffffff"
         id="rect5-0-7-9-4" /><rect
         x="575"
         y="334"
         width="44"
         height="44"
         fill="#ffffff"
         id="rect6-69-4-8" /><rect
         x="641"
         y="308"
         width="94"
         height="93"
         fill="#ffffff"
         id="rect7-78-1-6" /><rect
         x="772"
         y="230"
         width="44"
         height="43"
         fill="#ffffff"
         id="rect8-7-8-4" /><rect
         x="633"
         y="218"
         width="44"
         height="43"
         fill="#ffffff"
         id="rect9-2-5-9" /><rect
         x="713"
         y="124"
         width="44"
         height="44"
         fill="#ffffff"
         id="rect10-0-3-9" /><rect
         x="549"
         y="109"
         width="67"
         height="67"
         fill="#ffffff"
         id="rect11-2-5-6" /></g><path
       id="path546-5-6"
       d="m 33306.2,3418.6 c 143.2,0 259.2,116.05 259.2,259.2 0,143.15 -116,259.2 -259.2,259.2 -143.1,0 -259.2,-116.05 -259.2,-259.2 0,-143.15 116.1,-259.2 259.2,-259.2"
       style="fill:#254382;fill-opacity:1;fill-rule:nonzero;stroke:none"
       transform="matrix(0.10293627,0,0,-0.10293626,1282.8514,3074.4951)"
       clip-path="url(#clipPath547-1-4)" /><path
       id="path548-4-7"
       d="m 33306.2,3418.6 c 143.2,0 259.2,116.05 259.2,259.2 0,143.15 -116,259.2 -259.2,259.2 -143.1,0 -259.2,-116.05 -259.2,-259.2 0,-143.15 116.1,-259.2 259.2,-259.2 z"
       style="fill:none;stroke:#fcfcfd;stroke-width:10;stroke-linecap:butt;stroke-linejoin:miter;stroke-miterlimit:4;stroke-dasharray:none;stroke-opacity:1"
       transform="matrix(0.10293627,0,0,-0.10293626,1282.8514,3074.4951)"
       clip-path="url(#clipPath549-5-0)" /><path
       id="path574-5-9"
       d="m 33428.5,3575.37 -87.5,151.45 v 84.42 h 17.7 v 17.71 h -106.3 v -17.71 h 17.7 v -84.42 l -87.5,-151.45 c -5.9,-10.17 -5.9,-22.31 0,-32.48 5.8,-10.18 16.3,-16.25 28.1,-16.25 h 189.7 c 11.8,0 22.3,6.07 28.1,16.25 5.9,10.17 5.9,22.31 0,32.48 m -184.9,34.53 c 0,6.52 5.2,11.8 11.8,11.8 6.5,0 11.8,-5.28 11.8,-11.8 0,-6.53 -5.3,-11.81 -11.8,-11.81 -6.6,0 -11.8,5.28 -11.8,11.81 m 23.6,-47.24 c -6.5,0 -11.8,5.29 -11.8,11.81 0,6.52 5.3,11.81 11.8,11.81 6.5,0 11.8,-5.29 11.8,-11.81 0,-6.52 -5.3,-11.81 -11.8,-11.81 m 53.1,26.57 c -9.8,0 -17.7,7.93 -17.7,17.71 0,9.78 7.9,17.72 17.7,17.72 9.8,0 17.7,-7.94 17.7,-17.72 0,-9.78 -7.9,-17.71 -17.7,-17.71 m -63.5,79.12 31,53.72 v 89.17 h 35.5 v -89.17 l 31,-53.72 z m 116.7,-105.69 c -6.6,0 -11.9,5.29 -11.9,11.81 0,6.52 5.3,11.81 11.9,11.81 6.5,0 11.8,-5.29 11.8,-11.81 0,-6.52 -5.3,-11.81 -11.8,-11.81"
       style="fill:#ffffff;fill-opacity:1;fill-rule:nonzero;stroke:none"
       transform="matrix(0.10293627,0,0,-0.10293626,1282.8514,3074.4951)"
       clip-path="url(#clipPath575-4-6)" /></g><style
     type="text/css"
     id="style1">
<![CDATA[
	.st0{fill:#000000;}
]]>
</style></svg>
