<?xml version="1.0" encoding="UTF-8" standalone="no"?>
<!-- Created with Inkscape (http://www.inkscape.org/) -->

<svg
   width="14.391087mm"
   height="14.391089mm"
   viewBox="0 0 14.391086 14.391089"
   version="1.1"
   id="svg1"
   xml:space="preserve"
   inkscape:version="1.3.1 (91b66b0783, 2023-11-16)"
   sodipodi:docname="barrier.svg"
   inkscape:export-filename="TerraX Mar 2024.pdf"
   inkscape:export-xdpi="120"
   inkscape:export-ydpi="120"
   xmlns:inkscape="http://www.inkscape.org/namespaces/inkscape"
   xmlns:sodipodi="http://sodipodi.sourceforge.net/DTD/sodipodi-0.dtd"
   xmlns="http://www.w3.org/2000/svg"
   xmlns:svg="http://www.w3.org/2000/svg"><sodipodi:namedview
     id="namedview1"
     pagecolor="#ffffff"
     bordercolor="#000000"
     borderopacity="0.25"
     inkscape:showpageshadow="2"
     inkscape:pageopacity="0.0"
     inkscape:pagecheckerboard="0"
     inkscape:deskcolor="#d1d1d1"
     inkscape:document-units="mm"
     inkscape:zoom="0.90394697"
     inkscape:cx="4413.9758"
     inkscape:cy="707.45301"
     inkscape:window-width="2240"
     inkscape:window-height="1294"
     inkscape:window-x="-11"
     inkscape:window-y="-11"
     inkscape:window-maximized="1"
     inkscape:current-layer="g1"
     inkscape:export-bgcolor="#ffffffff" /><defs
     id="defs1"><clipPath
       clipPathUnits="userSpaceOnUse"
       id="clipPath543-5-2-32-2"><path
         d="m 30763.8,0 h 5952.8 v 8418.9 h -5952.8 z"
         id="path543-0-8-1-5" /></clipPath><clipPath
       clipPathUnits="userSpaceOnUse"
       id="clipPath545-1-8-8-6"><path
         d="m 30763.8,0 h 5952.8 v 8418.9 h -5952.8 z"
         id="path545-9-9-9-7" /></clipPath></defs><g
     id="g1"
     inkscape:groupmode="layer"
     inkscape:label="1"
     transform="matrix(0.26458333,0,0,0.26458335,-1202.6694,-461.07052)"><path
       id="path542-7-6-1-8"
       d="m 33306.2,5348.74 c 143.2,0 259.2,116.05 259.2,259.2 0,143.15 -116,259.2 -259.2,259.2 -143.1,0 -259.2,-116.05 -259.2,-259.2 0,-143.15 116.1,-259.2 259.2,-259.2"
       style="fill:#254382;fill-opacity:1;fill-rule:nonzero;stroke:none"
       transform="matrix(0.10293625,0,0,-0.10293625,1144.3027,2347.0847)"
       clip-path="url(#clipPath543-5-2-32-2)"
       inkscape:export-filename=".\barrier round.svg"
       inkscape:export-xdpi="441.24533"
       inkscape:export-ydpi="441.24533" /><path
       id="path544-5-7-0-7"
       d="m 33306.2,5348.74 c 143.2,0 259.2,116.05 259.2,259.2 0,143.15 -116,259.2 -259.2,259.2 -143.1,0 -259.2,-116.05 -259.2,-259.2 0,-143.15 116.1,-259.2 259.2,-259.2 z"
       style="fill:none;stroke:#fcfcfd;stroke-width:10;stroke-linecap:butt;stroke-linejoin:miter;stroke-miterlimit:4;stroke-dasharray:none;stroke-opacity:1"
       transform="matrix(0.10293625,0,0,-0.10293625,1144.3027,2347.0847)"
       clip-path="url(#clipPath545-1-8-8-6)" /><rect
       style="fill:#ffffff;fill-opacity:1;stroke:#3d3d3d;stroke-width:0;stroke-miterlimit:0"
       id="rect95-2-9-9"
       width="30.107281"
       height="6.0766988"
       x="4557.7539"
       y="1768.5463" /></g><style
     type="text/css"
     id="style1">
<![CDATA[
	.st0{fill:#000000;}
]]>
</style></svg>
