<?xml version="1.0" encoding="UTF-8" standalone="no"?>
<!-- Created with Inkscape (http://www.inkscape.org/) -->

<svg
   width="14.391092mm"
   height="14.391091mm"
   viewBox="0 0 14.391092 14.391091"
   version="1.1"
   id="svg1"
   xml:space="preserve"
   xmlns="http://www.w3.org/2000/svg"
   xmlns:svg="http://www.w3.org/2000/svg"><defs
     id="defs1"><clipPath
       clipPathUnits="userSpaceOnUse"
       id="clipPath543-5-3-8-9-3-1-4"><path
         d="m 30763.8,0 h 5952.8 v 8418.9 h -5952.8 z"
         id="path543-0-4-3-6-0-1-41" /></clipPath><clipPath
       clipPathUnits="userSpaceOnUse"
       id="clipPath545-1-6-1-6-3-2-4"><path
         d="m 30763.8,0 h 5952.8 v 8418.9 h -5952.8 z"
         id="path545-9-3-0-2-9-9-46" /></clipPath><clipPath
       id="clip0-1-7-0"><rect
         x="527"
         y="240"
         width="324"
         height="268"
         id="rect1-6-5-2-9" /></clipPath><clipPath
       id="clip1-5-0-56"><rect
         x="527"
         y="240"
         width="324"
         height="165"
         id="rect2-7-2-2" /></clipPath><clipPath
       id="clip2-3-0-6"><rect
         x="527"
         y="239"
         width="324"
         height="166"
         id="rect3-5-7-9" /></clipPath><clipPath
       id="clip3-1-9-0"><rect
         x="527"
         y="412"
         width="324"
         height="96"
         id="rect4-0-3-6" /></clipPath><clipPath
       id="clip4-1-8-2"><rect
         x="527"
         y="412"
         width="324"
         height="96"
         id="rect5-5-30-7" /></clipPath></defs><g
     id="g1"
     transform="matrix(0.26458333,0,0,0.26458335,-1205.2699,-578.8978)"><path
       id="path542-7-4-3-7-6-7-2"
       d="m 33306.2,5348.74 c 143.2,0 259.2,116.05 259.2,259.2 0,143.15 -116,259.2 -259.2,259.2 -143.1,0 -259.2,-116.05 -259.2,-259.2 0,-143.15 116.1,-259.2 259.2,-259.2"
       style="fill:#254382;fill-opacity:1;fill-rule:nonzero;stroke:none"
       transform="matrix(0.10293627,0,0,-0.10293626,1154.1306,2792.4162)"
       clip-path="url(#clipPath543-5-3-8-9-3-1-4)" /><path
       id="path544-5-9-8-8-1-1-1"
       d="m 33306.2,5348.74 c 143.2,0 259.2,116.05 259.2,259.2 0,143.15 -116,259.2 -259.2,259.2 -143.1,0 -259.2,-116.05 -259.2,-259.2 0,-143.15 116.1,-259.2 259.2,-259.2 z"
       style="fill:none;stroke:#fcfcfd;stroke-width:10;stroke-linecap:butt;stroke-linejoin:miter;stroke-miterlimit:4;stroke-dasharray:none;stroke-opacity:1"
       transform="matrix(0.10293627,0,0,-0.10293626,1154.1306,2792.4162)"
       clip-path="url(#clipPath545-1-6-1-6-3-2-4)" /><g
       clip-path="url(#clip0-1-7-0)"
       transform="matrix(0.09344493,0,0,0.09344492,4517.8582,2179.4288)"
       id="g13-5-0-8-5"><g
         clip-path="url(#clip1-5-0-56)"
         id="g8-3-0-8-1"><g
           clip-path="url(#clip2-3-0-6)"
           id="g7-5-3-5-8"><g
             id="g6-6-0-2"><g
               id="g5-9-9-4"><path
                 d="m 37095.4,6262.49 c 0,25.11 -19.9,45.68 -44.6,46.81 -1.9,9.03 -6.4,17.33 -13.1,23.96 -6.8,6.67 -15.1,11.04 -24.2,12.69 -1.8,9.25 -6.2,17.77 -13,24.59 -8.8,8.89 -20.6,13.78 -33.2,13.78 -12.5,0 -24.3,-4.89 -33.2,-13.78 -6.7,-6.82 -11.2,-15.34 -12.9,-24.59 -9.1,-1.65 -17.5,-6.02 -24.3,-12.69 -6.6,-6.63 -11.2,-14.93 -12.9,-23.96 -24.9,-1.13 -44.8,-21.7 -44.8,-46.81 v -27.58 h 256.2 z m -137.4,-46.4 h 18.7 v -37.48 h -18.7 z m 37.5,0 h 18.6 v -18.75 h -18.6 z m -75,0 h 18.7 v -18.75 h -18.7 z m 170.5,-39.66 -10.6,-10.51 v 45.46 h -18.7 v -45.46 l -10.5,10.51 -13.3,-13.25 33.2,-33.13 33.1,33.13 z m -207.5,0 -10.5,-10.51 v 45.46 h -18.8 v -45.46 l -10.4,10.51 -13.3,-13.25 33.1,-33.13 33.1,33.13 z m 187.6,-46.38 h -179.4 v -32.8 h -18.7 v 32.8 h -18.8 v -32.8 h -18.6 v 32.8 h -28.2 v -65.6 h 235.5 v 32.8 h 18.8 v -32.8 h 18.7 v 32.8 h 18.8 v -32.8 h 28 v 65.6 h -56.1"
                 fill="#ffffff"
                 transform="matrix(1.00161,0,0,-1,-36339.7,6465.84)"
                 id="path5-3-6-9-1" /></g></g></g></g><g
         clip-path="url(#clip3-1-9-0)"
         id="g12-2-8-1-6"><g
           clip-path="url(#clip4-1-8-2)"
           id="g11-99-9-8-7"><g
             id="g10-1-0-4-9"><g
               id="g9-3-4-3-2"><path
                 d="m 37155.2,6272.59 c 0,25.14 -19.9,45.74 -44.7,46.88 -1.9,9.05 -6.4,17.35 -13.1,24 -6.8,6.68 -15.2,11.05 -24.3,12.71 -1.7,9.26 -6.2,17.8 -13,24.62 -8.8,8.91 -20.7,13.81 -33.2,13.81 -12.6,0 -24.4,-4.9 -33.3,-13.81 -6.7,-6.82 -11.2,-15.36 -12.8,-24.62 -9.2,-1.66 -17.6,-6.03 -24.4,-12.71 -6.7,-6.65 -11.2,-14.95 -13,-24 -24.9,-1.14 -44.8,-21.74 -44.8,-46.88 v -27.63 h 256.6 z m -137.7,-46.48 h 18.8 v -37.55 h -18.8 z m 37.6,0 h 18.7 v -18.78 h -18.7 z m -75.1,0 h 18.8 v -18.78 h -18.8 z m 170.7,-39.72 -10.5,-10.53 v 45.53 h -18.8 v -45.53 l -10.5,10.53 -13.3,-13.28 33.2,-33.18 33.2,33.18 z m -207.8,0 -10.5,-10.53 v 45.53 h -18.8 v -45.53 l -10.4,10.53 -13.4,-13.28 33.3,-33.18 33.1,33.18 z m 187.9,-46.46 h -179.6 v -32.85 h -18.8 v 32.85 h -18.8 v -32.85 h -18.7 v 32.85 h -28.2 v -65.7 h 235.9 v 32.85 h 18.8 v -32.85 h 18.8 v 32.85 h 18.8 v -32.85 h 28.1 v 65.7 h -56.3"
                 fill="#ffffff"
                 transform="matrix(1,0,0,-1.00508,-36339.7,6679.52)"
                 id="path8-6-7-9-8" /></g></g></g></g></g></g><style
     type="text/css"
     id="style1">
<![CDATA[
	.st0{fill:#000000;}
]]>
</style></svg>
