<?xml version="1.0" encoding="UTF-8" standalone="no"?>
<!-- Created with Inkscape (http://www.inkscape.org/) -->

<svg
   width="14.39109mm"
   height="14.391091mm"
   viewBox="0 0 14.39109 14.391091"
   version="1.1"
   id="svg1"
   xml:space="preserve"
   xmlns="http://www.w3.org/2000/svg"
   xmlns:svg="http://www.w3.org/2000/svg"><defs
     id="defs1"><clipPath
       clipPathUnits="userSpaceOnUse"
       id="clipPath531-2-06"><path
         d="m 30763.8,0 h 5952.8 v 8418.9 h -5952.8 z"
         id="path531-0-78" /></clipPath><clipPath
       clipPathUnits="userSpaceOnUse"
       id="clipPath533-2-1"><path
         d="m 30763.8,0 h 5952.8 v 8418.9 h -5952.8 z"
         id="path533-8-8" /></clipPath><clipPath
       clipPathUnits="userSpaceOnUse"
       id="clipPath593-6-7"><path
         d="m 30763.8,0 h 5952.8 v 8418.9 h -5952.8 z"
         id="path593-8-8" /></clipPath><clipPath
       clipPathUnits="userSpaceOnUse"
       id="clipPath595-7-7"><path
         d="m 30763.8,0 h 5952.8 v 8418.9 h -5952.8 z"
         id="path595-3-1" /></clipPath></defs><g
     id="g1"
     transform="matrix(0.26458333,0,0,0.26458335,-1239.6101,-742.85254)"><path
       id="path530-3-24"
       d="m 31499.8,5348.74 c 143.2,0 259.2,116.05 259.2,259.2 0,143.15 -116,259.2 -259.2,259.2 -143.1,0 -259.2,-116.05 -259.2,-259.2 0,-143.15 116.1,-259.2 259.2,-259.2"
       style="fill:#254382;fill-opacity:1;fill-rule:nonzero;stroke:none"
       transform="matrix(0.10293627,0,0,-0.10293626,1469.8645,3412.0876)"
       clip-path="url(#clipPath531-2-06)" /><path
       id="path532-0-3"
       d="m 31499.8,5348.74 c 143.2,0 259.2,116.05 259.2,259.2 0,143.15 -116,259.2 -259.2,259.2 -143.1,0 -259.2,-116.05 -259.2,-259.2 0,-143.15 116.1,-259.2 259.2,-259.2 z"
       style="fill:none;stroke:#fcfcfd;stroke-width:10;stroke-linecap:butt;stroke-linejoin:miter;stroke-miterlimit:4;stroke-dasharray:none;stroke-opacity:1"
       transform="matrix(0.10293627,0,0,-0.10293626,1469.8645,3412.0876)"
       clip-path="url(#clipPath533-2-1)" /><path
       id="path592-6-0"
       d="m 31421,5589.1 v 33.88 c 0,3.35 -3.9,5.18 -6.5,3.05 l -70.3,-58.07 c -1.9,-1.59 -1.9,-4.52 0,-6.11 l 70.3,-58.08 c 2.6,-2.12 6.5,-0.29 6.5,3.06 v 31.4 c 31,-6.66 53.8,-34.43 53.8,-66.42 v -13.7 c 0,-2.19 1.7,-3.96 3.9,-3.96 h 42.3 c 2.1,0 3.9,1.77 3.9,3.96 v 13.7 c 0,59.35 -45.3,110.18 -103.9,117.29 v 0"
       style="fill:#ffffff;fill-opacity:1;fill-rule:nonzero;stroke:none"
       transform="matrix(0.10293627,0,0,-0.10293626,1469.8645,3412.0876)"
       clip-path="url(#clipPath593-6-7)" /><path
       id="path594-1-7"
       d="m 31655.5,5619.92 -70.3,58.08 c -2.6,2.13 -6.5,0.29 -6.5,-3.05 v -33.35 c -19.2,-1.23 -37.7,-7.48 -53.8,-18.11 v 66.56 h 33 c 3.4,0.01 5.2,3.9 3.1,6.48 l -58.1,70.34 c -1.5,1.82 -4.6,1.82 -6.1,0 l -58.1,-70.33 c -2.1,-2.58 -0.3,-6.48 3.1,-6.48 h 33 v -112.44 c 22.8,-14.81 40.5,-36.66 50.1,-62.22 v 15.47 c 0,31.08 23.3,56.85 53.8,60.41 v -32.49 c 0,-3.35 3.9,-5.18 6.5,-3.06 l 70.3,58.08 c 1.9,1.59 1.9,4.52 0,6.11"
       style="fill:#ffffff;fill-opacity:1;fill-rule:nonzero;stroke:none"
       transform="matrix(0.10293627,0,0,-0.10293626,1469.8645,3412.0876)"
       clip-path="url(#clipPath595-7-7)" /></g><style
     type="text/css"
     id="style1">
<![CDATA[
	.st0{fill:#000000;}
]]>
</style></svg>
