<?xml version="1.0" encoding="UTF-8" standalone="no"?>
<!-- Created with Inkscape (http://www.inkscape.org/) -->

<svg
   width="14.530124mm"
   height="14.424665mm"
   viewBox="0 0 14.530124 14.424666"
   version="1.1"
   id="svg1"
   xml:space="preserve"
   xmlns="http://www.w3.org/2000/svg"
   xmlns:svg="http://www.w3.org/2000/svg"><defs
     id="defs1"><clipPath
       clipPathUnits="userSpaceOnUse"
       id="clipPath543-5-3-8-9-3-1-3-4"><path
         d="m 30763.8,0 h 5952.8 v 8418.9 h -5952.8 z"
         id="path543-0-4-3-6-0-1-4-5" /></clipPath><clipPath
       clipPathUnits="userSpaceOnUse"
       id="clipPath545-1-6-1-6-3-2-5-2"><path
         d="m 30763.8,0 h 5952.8 v 8418.9 h -5952.8 z"
         id="path545-9-3-0-2-9-9-4-6" /></clipPath><clipPath
       clipPathUnits="userSpaceOnUse"
       id="clipPath559-7-0-6"><path
         d="m 30763.8,0 h 5952.8 v 8418.9 h -5952.8 z"
         id="path559-3-9-7" /></clipPath><clipPath
       clipPathUnits="userSpaceOnUse"
       id="clipPath561-9-2-6"><path
         d="m 30763.8,0 h 5952.8 v 8418.9 h -5952.8 z"
         id="path561-7-1-3" /></clipPath><clipPath
       clipPathUnits="userSpaceOnUse"
       id="clipPath583-6-7-5"><path
         d="m 34993.6,3531.89 h 237.996 v 291.801 H 34993.6 Z"
         id="path583-3-3-5" /></clipPath></defs><g
     id="g1"
     transform="matrix(0.26458333,0,0,0.26458335,-1204.0496,-741.88353)"><path
       id="path542-7-4-3-7-6-7-1-1"
       d="m 33306.2,5348.74 c 143.2,0 259.2,116.05 259.2,259.2 0,143.15 -116,259.2 -259.2,259.2 -143.1,0 -259.2,-116.05 -259.2,-259.2 0,-143.15 116.1,-259.2 259.2,-259.2"
       style="fill:#254382;fill-opacity:1;fill-rule:nonzero;stroke:none"
       transform="matrix(0.10293627,0,0,-0.10293626,1149.5186,3408.4252)"
       clip-path="url(#clipPath543-5-3-8-9-3-1-3-4)" /><path
       id="path544-5-9-8-8-1-1-6-4"
       d="m 33306.2,5348.74 c 143.2,0 259.2,116.05 259.2,259.2 0,143.15 -116,259.2 -259.2,259.2 -143.1,0 -259.2,-116.05 -259.2,-259.2 0,-143.15 116.1,-259.2 259.2,-259.2 z"
       style="fill:none;stroke:#fcfcfd;stroke-width:10;stroke-linecap:butt;stroke-linejoin:miter;stroke-miterlimit:4;stroke-dasharray:none;stroke-opacity:1"
       transform="matrix(0.10293627,0,0,-0.10293626,1149.5186,3408.4252)"
       clip-path="url(#clipPath545-1-6-1-6-3-2-5-2)" /><path
       id="path558-5-5-9"
       d="m 35112.6,3418.6 c 143.1,0 259.2,116.05 259.2,259.2 0,143.15 -116.1,259.2 -259.2,259.2 -143.1,0 -259.2,-116.05 -259.2,-259.2 0,-143.15 116.1,-259.2 259.2,-259.2"
       style="fill:#254382;fill-opacity:1;fill-rule:nonzero;stroke:none"
       transform="matrix(0.10293627,0,0,-0.10293626,964.1,3209.8707)"
       clip-path="url(#clipPath559-7-0-6)" /><path
       id="path560-1-2-57"
       d="m 35112.6,3418.6 c 143.1,0 259.2,116.05 259.2,259.2 0,143.15 -116.1,259.2 -259.2,259.2 -143.1,0 -259.2,-116.05 -259.2,-259.2 0,-143.15 116.1,-259.2 259.2,-259.2 z"
       style="fill:none;stroke:#fcfcfd;stroke-width:10;stroke-linecap:butt;stroke-linejoin:miter;stroke-miterlimit:4;stroke-dasharray:none;stroke-opacity:1"
       transform="matrix(0.10293627,0,0,-0.10293626,964.1,3209.8707)"
       clip-path="url(#clipPath561-9-2-6)" /><path
       id="path582-9-9-9"
       d="m 35009.7,3823.7 c 3.6,0 6.6,-2.95 6.6,-6.6 v -70.79 c 0,-5.12 4.1,-9.28 9.3,-9.28 5.1,0 9.3,4.16 9.3,9.28 v 69.65 c 0,4.28 3.4,7.74 7.7,7.74 4.3,0 7.7,-3.46 7.7,-7.74 v -69.65 c 0,-5.12 4.2,-9.28 9.3,-9.28 5.1,0 9.3,4.16 9.3,9.28 v 69.65 c 0,2.05 0.8,4.02 2.3,5.47 1.4,1.46 3.4,2.27 5.4,2.27 2.1,0 4.1,-0.81 5.5,-2.27 1.5,-1.45 2.3,-3.42 2.3,-5.47 v -69.65 c 0,-2.46 0.9,-4.82 2.7,-6.56 1.7,-1.75 4.1,-2.72 6.6,-2.72 2.4,0 4.8,0.97 6.5,2.72 1.8,1.74 2.7,4.1 2.7,6.56 v 70.79 c 0.1,3.45 2.8,6.3 6.2,6.53 3.5,0.23 6.5,-2.24 7,-5.66 1.6,-12.63 5.7,-43.51 8.5,-65.47 1.3,-10.2 1.2,-22.59 0.6,-34.16 -1.1,-21.38 -19.5,-37.03 -40.9,-37.03 h -11.4 c 1.5,-9.84 4.2,-29.35 5.3,-43.34 2.5,-31.95 0.2,-81.11 0,-86.23 v -0.72 -0.2 c -0.3,-10.12 -8.6,-18.19 -18.7,-18.14 -10.1,0.06 -18.3,8.21 -18.5,18.34 v 0.72 c -0.2,5.12 -2.5,54.28 0,86.23 1.2,13.99 3.9,33.5 5.3,43.34 h -11.4 c -21.4,0 -39.7,15.65 -40.9,37.03 -0.6,11.57 -0.7,23.96 0.6,34.16 2.8,21.96 6.9,52.84 8.5,65.47 0.5,3.28 3.3,5.74 6.6,5.73 m 162.4,-59.52 c 0,32.87 26.7,59.52 59.5,59.52 v -165.33 h -59.5 z m 19.9,-112.42 h 33 v -102.5 c 0,-9.13 -7.4,-16.54 -16.5,-16.54 -9.1,0 -16.5,7.41 -16.5,16.54 v 102.5"
       style="fill:#ffffff;fill-opacity:1;fill-rule:nonzero;stroke:none"
       transform="matrix(0.10293627,0,0,-0.10293626,964.1,3209.8707)"
       clip-path="url(#clipPath583-6-7-5)" /></g><style
     type="text/css"
     id="style1">
<![CDATA[
	.st0{fill:#000000;}
]]>
</style></svg>
