<?xml version="1.0" encoding="UTF-8" standalone="no"?>
<!-- Created with Inkscape (http://www.inkscape.org/) -->

<svg
   width="14.391091mm"
   height="14.391091mm"
   viewBox="0 0 14.391091 14.391091"
   version="1.1"
   id="svg1"
   xml:space="preserve"
   xmlns="http://www.w3.org/2000/svg"
   xmlns:svg="http://www.w3.org/2000/svg"><defs
     id="defs1"><clipPath
       clipPathUnits="userSpaceOnUse"
       id="clipPath531-2-8-9"><path
         d="m 30763.8,0 h 5952.8 v 8418.9 h -5952.8 z"
         id="path531-0-7-6" /></clipPath><clipPath
       clipPathUnits="userSpaceOnUse"
       id="clipPath533-2-2-3"><path
         d="m 30763.8,0 h 5952.8 v 8418.9 h -5952.8 z"
         id="path533-8-5-2" /></clipPath></defs><g
     id="g1"
     transform="matrix(0.26458333,0,0,0.26458335,-1241.5104,-821.37826)"><path
       id="path530-3-2-1"
       d="m 31499.8,5348.74 c 143.2,0 259.2,116.05 259.2,259.2 0,143.15 -116,259.2 -259.2,259.2 -143.1,0 -259.2,-116.05 -259.2,-259.2 0,-143.15 116.1,-259.2 259.2,-259.2"
       style="fill:#254382;fill-opacity:1;fill-rule:nonzero;stroke:none"
       transform="matrix(0.10293627,0,0,-0.10293626,1477.0466,3708.8777)"
       clip-path="url(#clipPath531-2-8-9)" /><path
       id="path532-0-1-9"
       d="m 31499.8,5348.74 c 143.2,0 259.2,116.05 259.2,259.2 0,143.15 -116,259.2 -259.2,259.2 -143.1,0 -259.2,-116.05 -259.2,-259.2 0,-143.15 116.1,-259.2 259.2,-259.2 z"
       style="fill:none;stroke:#fcfcfd;stroke-width:10;stroke-linecap:butt;stroke-linejoin:miter;stroke-miterlimit:4;stroke-dasharray:none;stroke-opacity:1"
       transform="matrix(0.10293627,0,0,-0.10293626,1477.0466,3708.8777)"
       clip-path="url(#clipPath533-2-2-3)" /><path
       fill="#000000"
       d="m 4710.178,3116.5194 c 2.9446,3.8745 4.5993,8.1289 5.8439,13.2859 h -4.6708 l 0.7529,0.9205 1.7163,2.0995 5.7006,7.1381 1.4075,-1.7769 6.0987,-7.4607 0.7529,-0.9206 h -4.5143 c 1.2446,-5.1571 2.8989,-9.4113 5.8439,-13.2858 h -4.7989 c -2.5481,4.2698 -3.3116,8.8167 -3.9654,14.4139 h 5.0555 l -5.8345,7.1381 -5.8367,-7.1381 h 5.2067 c -0.6426,-5.6033 -1.5217,-10.2012 -4.037,-14.4139 z m 0.2948,21.8858 c -0.3973,0.1006 -0.7767,0.2068 -1.1358,0.319 -1.3062,0.4085 -2.3448,0.8943 -3.0179,1.3922 -0.6736,0.4978 -0.9396,0.9581 -0.9396,1.3564 0,0.398 0.2683,0.8583 0.9396,1.3562 0.6731,0.4978 1.7117,0.9837 3.0179,1.3921 2.6128,0.817 6.2873,1.3356 10.3453,1.3356 4.0577,0 7.7326,-0.5186 10.345,-1.3356 1.3062,-0.4084 2.3448,-0.8943 3.0179,-1.3921 0.6735,-0.4978 0.9396,-0.9582 0.9396,-1.3563 0,-0.3982 -0.2683,-0.8585 -0.9396,-1.3564 -0.6731,-0.4978 -1.7117,-0.9836 -3.0179,-1.3921 -0.3591,-0.1123 -0.7385,-0.2185 -1.1358,-0.3186 1.138,0.5517 1.8017,1.2109 1.8017,1.9203 0,1.9356 -4.93,3.5049 -11.0109,3.5049 -6.0812,0 -11.0109,-1.5693 -11.0109,-3.5049 0,-0.7093 0.6633,-1.3687 1.8014,-1.9204 z m 3.8592,0.3455 c -0.2948,0.071 -0.5741,0.147 -0.8334,0.2283 -0.774,0.2419 -1.3844,0.5316 -1.7601,0.8093 -0.3742,0.2774 -0.4773,0.4953 -0.4773,0.6395 0,0.144 0.102,0.3617 0.4773,0.6396 0.3742,0.2774 0.9861,0.5672 1.7601,0.8092 1.5481,0.4841 3.7501,0.7962 6.1837,0.7962 2.4333,0 4.6375,-0.3122 6.1852,-0.7962 0.7741,-0.2419 1.3826,-0.5314 1.7583,-0.8092 0.3741,-0.2774 0.4773,-0.4953 0.4773,-0.6395 0,-0.144 -0.102,-0.3617 -0.4773,-0.6393 -0.3742,-0.2775 -0.9842,-0.5674 -1.7579,-0.8094 -0.2608,-0.081 -0.5408,-0.1572 -0.8356,-0.2282 0.5246,0.2891 0.8262,0.6251 0.8262,0.9827 0,1.0858 -2.7655,1.9657 -6.1762,1.9657 -3.4106,0 -6.1757,-0.8799 -6.1757,-1.9656 0,-0.3576 0.3023,-0.6939 0.8258,-0.9828 z"
       id="path1-99-4"
       style="fill:#ffffff;stroke-width:0.0603647" /></g><style
     type="text/css"
     id="style1">
<![CDATA[
	.st0{fill:#000000;}
]]>
</style></svg>
