<?xml version="1.0" encoding="UTF-8" standalone="no"?>
<!-- Created with Inkscape (http://www.inkscape.org/) -->

<svg
   width="14.391089mm"
   height="14.391089mm"
   viewBox="0 0 14.39109 14.391089"
   version="1.1"
   id="svg1"
   xml:space="preserve"
   xmlns="http://www.w3.org/2000/svg"
   xmlns:svg="http://www.w3.org/2000/svg"><defs
     id="defs1"><clipPath
       clipPathUnits="userSpaceOnUse"
       id="clipPath543-5-29-6"><path
         d="m 30763.8,0 h 5952.8 v 8418.9 h -5952.8 z"
         id="path543-0-3-8" /></clipPath><clipPath
       clipPathUnits="userSpaceOnUse"
       id="clipPath545-1-7-2"><path
         d="m 30763.8,0 h 5952.8 v 8418.9 h -5952.8 z"
         id="path545-9-50-5" /></clipPath><clipPath
       clipPathUnits="userSpaceOnUse"
       id="clipPath571-0-80-7"><path
         d="m 33162.1,5463.85 h 288.199 v 288.188 H 33162.1 Z"
         id="path571-3-5-6" /></clipPath></defs><g
     id="g1"
     transform="matrix(0.26458333,0,0,0.26458335,-1203.1465,-411.64757)"><path
       id="path542-7-1-0"
       d="m 33306.2,5348.74 c 143.2,0 259.2,116.05 259.2,259.2 0,143.15 -116,259.2 -259.2,259.2 -143.1,0 -259.2,-116.05 -259.2,-259.2 0,-143.15 116.1,-259.2 259.2,-259.2"
       style="fill:#254382;fill-opacity:1;fill-rule:nonzero;stroke:none"
       transform="matrix(0.10293625,0,0,-0.10293625,1146.1058,2160.2893)"
       clip-path="url(#clipPath543-5-29-6)" /><path
       id="path544-5-6-0"
       d="m 33306.2,5348.74 c 143.2,0 259.2,116.05 259.2,259.2 0,143.15 -116,259.2 -259.2,259.2 -143.1,0 -259.2,-116.05 -259.2,-259.2 0,-143.15 116.1,-259.2 259.2,-259.2 z"
       style="fill:none;stroke:#fcfcfd;stroke-width:10;stroke-linecap:butt;stroke-linejoin:miter;stroke-miterlimit:4;stroke-dasharray:none;stroke-opacity:1"
       transform="matrix(0.10293625,0,0,-0.10293625,1146.1058,2160.2893)"
       clip-path="url(#clipPath545-1-7-2)" /><path
       id="path570-8-5-2"
       d="m 33421.6,5642.28 c 0,22.62 -17.9,41.15 -40.2,42.17 -1.7,8.14 -5.7,15.61 -11.8,21.59 -6.1,6.01 -13.6,9.94 -21.8,11.43 -1.6,8.33 -5.6,16.01 -11.7,22.15 -7.9,8.01 -18.6,12.42 -29.9,12.42 -11.3,0 -21.9,-4.41 -29.9,-12.42 -6.1,-6.14 -10.1,-13.82 -11.6,-22.15 -8.2,-1.49 -15.8,-5.42 -21.9,-11.43 -6,-5.98 -10.1,-13.45 -11.7,-21.59 -22.4,-1.02 -40.3,-19.55 -40.3,-42.17 v -24.85 h 230.8 z m -123.8,-41.81 h 16.9 v -33.77 h -16.9 z m 33.8,0 h 16.8 v -16.89 h -16.8 z m -67.6,0 h 16.9 v -16.89 h -16.9 z m 153.6,-35.73 -9.5,-9.47 v 40.96 h -16.9 v -40.96 l -9.4,9.47 -12,-11.94 29.9,-29.85 29.8,29.85 z m -186.9,0 -9.5,-9.47 v 40.96 h -16.9 v -40.96 l -9.4,9.47 -12,-11.94 29.9,-29.85 29.8,29.85 z m 169,-41.79 h -161.6 v -29.55 h -16.9 v 29.55 h -16.9 v -29.55 h -16.8 v 29.55 h -25.4 v -59.1 h 212.2 v 29.55 h 16.9 v -29.55 h 16.9 v 29.55 h 16.9 v -29.55 h 25.3 v 59.1 h -50.6"
       style="fill:#ffffff;fill-opacity:1;fill-rule:nonzero;stroke:none"
       transform="matrix(0.10293625,0,0,-0.10293625,1146.1058,2160.2893)"
       clip-path="url(#clipPath571-0-80-7)" /><rect
       style="fill:#ffffff;fill-opacity:1;stroke:#3d3d3d;stroke-width:0;stroke-miterlimit:0"
       id="rect95-9-8"
       width="30.107281"
       height="6.0766988"
       x="4559.5571"
       y="1591.751" /></g><style
     type="text/css"
     id="style1">
<![CDATA[
	.st0{fill:#000000;}
]]>
</style></svg>
