<?xml version="1.0" encoding="UTF-8" standalone="no"?>
<!-- Created with Inkscape (http://www.inkscape.org/) -->

<svg
   width="14.41577mm"
   height="14.616534mm"
   viewBox="0 0 14.415769 14.616534"
   version="1.1"
   id="svg1"
   xml:space="preserve"
   xmlns="http://www.w3.org/2000/svg"
   xmlns:svg="http://www.w3.org/2000/svg"><defs
     id="defs1"><clipPath
       clipPathUnits="userSpaceOnUse"
       id="clipPath543-5-2-4-8-0-5"><path
         d="m 30763.8,0 h 5952.8 v 8418.9 h -5952.8 z"
         id="path543-0-8-5-3-8-7" /></clipPath><clipPath
       clipPathUnits="userSpaceOnUse"
       id="clipPath545-1-8-6-5-3-1"><path
         d="m 30763.8,0 h 5952.8 v 8418.9 h -5952.8 z"
         id="path545-9-9-51-4-6-9" /></clipPath><clipPath
       id="clipPath573-5-3-1-5-7"><path
         d="m 34962.8,5470.35 h 299.6 v 281.69 h -299.6 z"
         id="path573-3-8-6-3-5" /></clipPath><clipPath
       clipPathUnits="userSpaceOnUse"
       id="clipPath539-8-4-4"><path
         d="m 30763.8,0 h 5952.8 v 8418.9 h -5952.8 z"
         id="path539-6-6-7" /></clipPath><clipPath
       clipPathUnits="userSpaceOnUse"
       id="clipPath541-8-6-8"><path
         d="m 30763.8,0 h 5952.8 v 8418.9 h -5952.8 z"
         id="path541-4-6-2" /></clipPath><clipPath
       clipPathUnits="userSpaceOnUse"
       id="clipPath587-1-4-9"><path
         d="m 31361,1598.3 h 277.703 v 292.238 H 31361 Z"
         id="path587-5-6-9" /></clipPath></defs><g
     id="g1"
     transform="matrix(0.26458333,0,0,0.26458335,-1204.3335,-706.10768)"><path
       id="path542-7-6-8-7-0-3"
       d="m 33306.2,5348.74 c 143.2,0 259.2,116.05 259.2,259.2 0,143.15 -116,259.2 -259.2,259.2 -143.1,0 -259.2,-116.05 -259.2,-259.2 0,-143.15 116.1,-259.2 259.2,-259.2"
       style="fill:#254382;fill-opacity:1;fill-rule:nonzero;stroke:none"
       transform="matrix(0.10293627,0,0,-0.10293626,1150.6846,3273.2094)"
       clip-path="url(#clipPath543-5-2-4-8-0-5)" /><path
       id="path544-5-7-3-1-5-8"
       d="m 33306.2,5348.74 c 143.2,0 259.2,116.05 259.2,259.2 0,143.15 -116,259.2 -259.2,259.2 -143.1,0 -259.2,-116.05 -259.2,-259.2 0,-143.15 116.1,-259.2 259.2,-259.2 z"
       style="fill:none;stroke:#fcfcfd;stroke-width:10;stroke-linecap:butt;stroke-linejoin:miter;stroke-miterlimit:4;stroke-dasharray:none;stroke-opacity:1"
       transform="matrix(0.10293627,0,0,-0.10293626,1150.6846,3273.2094)"
       clip-path="url(#clipPath545-1-8-6-5-3-1)" /><g
       id="g1-9-9-9-9"
       transform="matrix(0.86865404,0,0,0.868654,-159.16449,1514.6243)"><path
         d="m 35253.8,5471.12 h -282.4 c -4.8,0 -8.6,3.87 -8.6,8.64 v 51.26 c 0,4.77 3.8,8.65 8.6,8.65 14.5,0 22.2,-5.32 28.4,-9.59 5.6,-3.8 9.6,-6.55 18.7,-6.55 9.1,0 13.1,2.75 18.6,6.55 6.2,4.27 14,9.59 28.4,9.59 14.5,0 22.2,-5.32 28.5,-9.59 5.5,-3.8 9.5,-6.55 18.6,-6.55 9.1,0 13.1,2.75 18.6,6.55 6.3,4.27 14,9.59 28.5,9.59 14.4,0 22.1,-5.32 28.4,-9.59 5.5,-3.8 9.5,-6.55 18.6,-6.55 9.1,0 13.1,2.75 18.7,6.55 6.2,4.27 13.9,9.59 28.4,9.59 4.7,0 8.6,-3.88 8.6,-8.65 v -51.26 c 0,-4.77 -3.9,-8.64 -8.6,-8.64 m -227.9,89.01 c -4.8,0 -8.7,3.88 -8.7,8.65 0,12.88 8.2,19.42 14.1,24.2 5.6,4.46 7.7,6.53 7.7,10.72 0,4.19 -2.1,6.27 -7.7,10.72 -5.9,4.78 -14.1,11.33 -14.1,24.21 0,12.87 8.2,19.42 14.1,24.2 5.6,4.46 7.7,6.53 7.7,10.72 0,4.19 -2.1,6.27 -7.7,10.72 -5.9,4.78 -14.1,11.33 -14.1,24.2 0,12.88 8.2,19.43 14.1,24.21 5.6,4.45 7.7,6.53 7.7,10.72 0,4.77 3.9,8.64 8.6,8.64 4.8,0 8.7,-3.87 8.7,-8.64 0,-12.88 -8.2,-19.43 -14.1,-24.21 -5.6,-4.45 -7.7,-6.53 -7.7,-10.72 0,-4.18 2.1,-6.26 7.7,-10.72 5.9,-4.78 14.1,-11.32 14.1,-24.2 0,-12.88 -8.2,-19.42 -14.1,-24.2 -5.6,-4.45 -7.7,-6.53 -7.7,-10.72 0,-4.19 2.1,-6.27 7.7,-10.72 5.9,-4.78 14.1,-11.33 14.1,-24.21 0,-12.87 -8.2,-19.42 -14.1,-24.2 -5.6,-4.45 -7.7,-6.53 -7.7,-10.72 0,-4.78 -3.8,-8.65 -8.6,-8.65 m 50.5,0 c -4.7,0 -8.6,3.88 -8.6,8.65 0,12.88 8.2,19.42 14.1,24.2 5.6,4.46 7.7,6.53 7.7,10.72 0,4.19 -2.1,6.27 -7.7,10.72 -5.9,4.78 -14.1,11.33 -14.1,24.21 0,12.87 8.2,19.42 14.1,24.2 5.6,4.46 7.7,6.53 7.7,10.72 0,4.19 -2.1,6.27 -7.7,10.72 -5.9,4.78 -14.1,11.33 -14.1,24.2 0,12.88 8.2,19.43 14.1,24.21 5.6,4.45 7.7,6.53 7.7,10.72 0,4.77 3.8,8.64 8.6,8.64 4.8,0 8.6,-3.87 8.6,-8.64 0,-12.88 -8.1,-19.43 -14.1,-24.21 -5.5,-4.45 -7.6,-6.53 -7.6,-10.72 0,-4.18 2.1,-6.26 7.6,-10.72 6,-4.78 14.1,-11.32 14.1,-24.2 0,-12.88 -8.1,-19.42 -14.1,-24.2 -5.5,-4.45 -7.6,-6.53 -7.6,-10.72 0,-4.19 2.1,-6.27 7.6,-10.72 6,-4.78 14.1,-11.33 14.1,-24.21 0,-12.87 -8.1,-19.42 -14.1,-24.2 -5.5,-4.45 -7.6,-6.53 -7.6,-10.72 0,-4.78 -3.9,-8.65 -8.7,-8.65 m 50.6,0 c -4.8,0 -8.6,3.88 -8.6,8.65 0,12.88 8.1,19.42 14.1,24.2 5.5,4.46 7.6,6.53 7.6,10.72 0,4.19 -2.1,6.27 -7.6,10.72 -6,4.78 -14.1,11.33 -14.1,24.21 0,12.87 8.1,19.42 14.1,24.2 5.5,4.46 7.6,6.53 7.6,10.72 0,4.19 -2.1,6.27 -7.6,10.72 -6,4.78 -14.1,11.33 -14.1,24.2 0,12.88 8.1,19.43 14.1,24.21 5.5,4.45 7.6,6.53 7.6,10.72 0,4.77 3.9,8.64 8.7,8.64 4.7,0 8.6,-3.87 8.6,-8.64 0,-12.88 -8.2,-19.43 -14.1,-24.21 -5.6,-4.45 -7.7,-6.53 -7.7,-10.72 0,-4.18 2.1,-6.26 7.7,-10.72 5.9,-4.78 14.1,-11.32 14.1,-24.2 0,-12.88 -8.2,-19.42 -14.1,-24.2 -5.6,-4.45 -7.7,-6.53 -7.7,-10.72 0,-4.19 2.1,-6.27 7.7,-10.72 5.9,-4.78 14.1,-11.33 14.1,-24.21 0,-12.87 -8.2,-19.42 -14.1,-24.2 -5.6,-4.45 -7.7,-6.53 -7.7,-10.72 0,-4.78 -3.8,-8.65 -8.6,-8.65 m 50.6,0 c -4.8,0 -8.7,3.88 -8.7,8.65 0,12.88 8.2,19.42 14.1,24.2 5.6,4.46 7.7,6.53 7.7,10.72 0,4.19 -2.1,6.27 -7.7,10.72 -5.9,4.78 -14.1,11.33 -14.1,24.21 0,12.87 8.2,19.42 14.1,24.2 5.6,4.46 7.7,6.53 7.7,10.72 0,4.19 -2.1,6.27 -7.7,10.72 -5.9,4.78 -14.1,11.33 -14.1,24.2 0,12.88 8.2,19.43 14.1,24.21 5.6,4.45 7.7,6.52 7.7,10.72 0,4.77 3.8,8.64 8.6,8.64 4.8,0 8.7,-3.87 8.7,-8.64 0,-12.88 -8.2,-19.43 -14.1,-24.21 -5.6,-4.45 -7.7,-6.53 -7.7,-10.72 0,-4.18 2.1,-6.26 7.7,-10.72 5.9,-4.78 14.1,-11.32 14.1,-24.2 0,-12.88 -8.2,-19.42 -14.1,-24.2 -5.6,-4.45 -7.7,-6.53 -7.7,-10.72 0,-4.19 2.1,-6.27 7.7,-10.72 5.9,-4.78 14.1,-11.33 14.1,-24.21 0,-12.87 -8.2,-19.42 -14.1,-24.2 -5.6,-4.45 -7.7,-6.53 -7.7,-10.72 0,-4.78 -3.9,-8.65 -8.6,-8.65"
         id="path572-9-2-3-2-6"
         fill="#ffffff"
         clip-path="url(#clipPath573-5-3-1-5-7)"
         transform="matrix(0.102936,0,0,-0.102936,1841.04,1937.59)" /></g><path
       id="path538-8-2-5"
       d="m 31499.8,1485.23 c 143.2,0 259.2,116.05 259.2,259.2 0,143.15 -116,259.2 -259.2,259.2 -143.1,0 -259.2,-116.05 -259.2,-259.2 0,-143.15 116.1,-259.2 259.2,-259.2"
       style="fill:#254382;fill-opacity:1;fill-rule:nonzero;stroke:none"
       transform="matrix(0.10293627,0,0,-0.10293626,1336.5354,2876.3662)"
       clip-path="url(#clipPath539-8-4-4)" /><path
       id="path540-6-3-8"
       d="m 31499.8,1485.23 c 143.2,0 259.2,116.05 259.2,259.2 0,143.15 -116,259.2 -259.2,259.2 -143.1,0 -259.2,-116.05 -259.2,-259.2 0,-143.15 116.1,-259.2 259.2,-259.2 z"
       style="fill:none;stroke:#fcfcfd;stroke-width:10;stroke-linecap:butt;stroke-linejoin:miter;stroke-miterlimit:4;stroke-dasharray:none;stroke-opacity:1"
       transform="matrix(0.10293627,0,0,-0.10293626,1336.5354,2876.3662)"
       clip-path="url(#clipPath541-8-6-8)" /><path
       id="path586-7-1-2"
       d="m 31573.5,1808.53 c -35.9,0 -65.5,-29.08 -65.5,-64.98 0,-35.9 29.1,-65.43 65.5,-65.43 35.9,0 64.9,29.08 64.9,65.43 0,35.44 -29,64.98 -64.9,64.98 m 4.5,-20.9 c 0,-5.91 -9.1,-5.91 -9.1,0 0,5.9 9.1,6.36 9.1,0 m -54.1,-44.53 c 0,5.9 9.1,5.9 9.1,0 0,-5.91 -9.1,-5.91 -9.1,0 m 13.2,-31.36 c 0,5.91 9.1,5.91 9.1,0 0,-6.36 -9.1,-6.36 -9.1,0 m 0,62.71 c 0,5.91 9.1,6.36 9.1,0 0,-5.91 -9.1,-5.91 -9.1,0 m 31.8,-75.88 c 0,5.9 9.1,5.9 9.1,0 0,-5.91 -9.1,-5.91 -9.1,0 m 24.6,39.98 h -20 c -2.8,0 -4.6,1.82 -4.6,4.55 v 28.62 c 0,2.73 1.8,4.55 4.6,4.55 2.7,0 4.5,-1.82 4.5,-4.55 v -24.08 h 15.5 c 2.7,0 4.5,-1.82 4.5,-4.54 0,-2.73 -2.3,-4.55 -4.5,-4.55 m 6.8,-26.81 c 0,5.91 9.1,5.91 9.1,0 0,-6.36 -9.1,-5.9 -9.1,0 m 0,62.71 c 0,5.91 9.1,6.36 9.1,0 0,-5.91 -9.1,-5.91 -9.1,0 m 13.1,-31.35 c 0,5.9 9.1,5.9 9.1,0 0,-5.91 -9.1,-5.91 -9.1,0"
       style="fill:#ffffff;fill-opacity:1;fill-rule:nonzero;stroke:none"
       transform="matrix(0.21541376,0,0,-0.21541379,-2222.5456,3072.1445)"
       clip-path="url(#clipPath587-1-4-9)" /></g><style
     type="text/css"
     id="style1">
<![CDATA[
	.st0{fill:#000000;}
]]>
</style></svg>
