<?xml version="1.0" encoding="UTF-8" standalone="no"?>
<!-- Created with Inkscape (http://www.inkscape.org/) -->

<svg
   width="14.39109mm"
   height="14.39109mm"
   viewBox="0 0 14.39109 14.39109"
   version="1.1"
   id="svg1"
   xml:space="preserve"
   xmlns="http://www.w3.org/2000/svg"
   xmlns:svg="http://www.w3.org/2000/svg"><defs
     id="defs1"><clipPath
       clipPathUnits="userSpaceOnUse"
       id="clipPath543-5-3-8-5-8-3"><path
         d="m 30763.8,0 h 5952.8 v 8418.9 h -5952.8 z"
         id="path543-0-4-3-7-7-1" /></clipPath><clipPath
       clipPathUnits="userSpaceOnUse"
       id="clipPath545-1-6-1-0-2-9"><path
         d="m 30763.8,0 h 5952.8 v 8418.9 h -5952.8 z"
         id="path545-9-3-0-5-9-1" /></clipPath><clipPath
       id="clipPath573-5-3-1-2"><path
         d="m 34962.8,5470.35 h 299.6 v 281.69 h -299.6 z"
         id="path573-3-8-6-4" /></clipPath><clipPath
       id="clip0-3-6-4"><rect
         x="424"
         y="109"
         width="468"
         height="452"
         id="rect1-9-7-2" /></clipPath><clipPath
       id="clip1-8-0-30"><rect
         x="424"
         y="327"
         width="468"
         height="234"
         id="rect2-4-8-8" /></clipPath><clipPath
       id="clip2-6-08-7"><rect
         x="424"
         y="327"
         width="468"
         height="234"
         id="rect3-0-7-3" /></clipPath></defs><g
     id="g1"
     transform="matrix(0.26458333,0,0,0.26458335,-1240.8753,-543.14537)"><path
       id="path542-7-4-3-0-0-7"
       d="m 33306.2,5348.74 c 143.2,0 259.2,116.05 259.2,259.2 0,143.15 -116,259.2 -259.2,259.2 -143.1,0 -259.2,-116.05 -259.2,-259.2 0,-143.15 116.1,-259.2 259.2,-259.2"
       style="fill:#254382;fill-opacity:1;fill-rule:nonzero;stroke:none"
       transform="matrix(0.10293627,0,0,-0.10293626,1288.7023,2657.2889)"
       clip-path="url(#clipPath543-5-3-8-5-8-3)" /><path
       id="path544-5-9-8-5-8-69"
       d="m 33306.2,5348.74 c 143.2,0 259.2,116.05 259.2,259.2 0,143.15 -116,259.2 -259.2,259.2 -143.1,0 -259.2,-116.05 -259.2,-259.2 0,-143.15 116.1,-259.2 259.2,-259.2 z"
       style="fill:none;stroke:#fcfcfd;stroke-width:10;stroke-linecap:butt;stroke-linejoin:miter;stroke-miterlimit:4;stroke-dasharray:none;stroke-opacity:1"
       transform="matrix(0.10293627,0,0,-0.10293626,1288.7023,2657.2889)"
       clip-path="url(#clipPath545-1-6-1-0-2-9)" /><g
       id="g1-8-6-5"
       transform="translate(-1264.951,1240.2048)"><g
         id="g1-9-9-94"
         transform="matrix(0.86865403,0,0,0.86865403,1110.3986,-341.58951)"><path
           d="m 35253.8,5471.12 h -282.4 c -4.8,0 -8.6,3.87 -8.6,8.64 v 51.26 c 0,4.77 3.8,8.65 8.6,8.65 14.5,0 22.2,-5.32 28.4,-9.59 5.6,-3.8 9.6,-6.55 18.7,-6.55 9.1,0 13.1,2.75 18.6,6.55 6.2,4.27 14,9.59 28.4,9.59 14.5,0 22.2,-5.32 28.5,-9.59 5.5,-3.8 9.5,-6.55 18.6,-6.55 9.1,0 13.1,2.75 18.6,6.55 6.3,4.27 14,9.59 28.5,9.59 14.4,0 22.1,-5.32 28.4,-9.59 5.5,-3.8 9.5,-6.55 18.6,-6.55 9.1,0 13.1,2.75 18.7,6.55 6.2,4.27 13.9,9.59 28.4,9.59 4.7,0 8.6,-3.88 8.6,-8.65 v -51.26 c 0,-4.77 -3.9,-8.64 -8.6,-8.64 m -227.9,89.01 c -4.8,0 -8.7,3.88 -8.7,8.65 0,12.88 8.2,19.42 14.1,24.2 5.6,4.46 7.7,6.53 7.7,10.72 0,4.19 -2.1,6.27 -7.7,10.72 -5.9,4.78 -14.1,11.33 -14.1,24.21 0,12.87 8.2,19.42 14.1,24.2 5.6,4.46 7.7,6.53 7.7,10.72 0,4.19 -2.1,6.27 -7.7,10.72 -5.9,4.78 -14.1,11.33 -14.1,24.2 0,12.88 8.2,19.43 14.1,24.21 5.6,4.45 7.7,6.53 7.7,10.72 0,4.77 3.9,8.64 8.6,8.64 4.8,0 8.7,-3.87 8.7,-8.64 0,-12.88 -8.2,-19.43 -14.1,-24.21 -5.6,-4.45 -7.7,-6.53 -7.7,-10.72 0,-4.18 2.1,-6.26 7.7,-10.72 5.9,-4.78 14.1,-11.32 14.1,-24.2 0,-12.88 -8.2,-19.42 -14.1,-24.2 -5.6,-4.45 -7.7,-6.53 -7.7,-10.72 0,-4.19 2.1,-6.27 7.7,-10.72 5.9,-4.78 14.1,-11.33 14.1,-24.21 0,-12.87 -8.2,-19.42 -14.1,-24.2 -5.6,-4.45 -7.7,-6.53 -7.7,-10.72 0,-4.78 -3.8,-8.65 -8.6,-8.65 m 50.5,0 c -4.7,0 -8.6,3.88 -8.6,8.65 0,12.88 8.2,19.42 14.1,24.2 5.6,4.46 7.7,6.53 7.7,10.72 0,4.19 -2.1,6.27 -7.7,10.72 -5.9,4.78 -14.1,11.33 -14.1,24.21 0,12.87 8.2,19.42 14.1,24.2 5.6,4.46 7.7,6.53 7.7,10.72 0,4.19 -2.1,6.27 -7.7,10.72 -5.9,4.78 -14.1,11.33 -14.1,24.2 0,12.88 8.2,19.43 14.1,24.21 5.6,4.45 7.7,6.53 7.7,10.72 0,4.77 3.8,8.64 8.6,8.64 4.8,0 8.6,-3.87 8.6,-8.64 0,-12.88 -8.1,-19.43 -14.1,-24.21 -5.5,-4.45 -7.6,-6.53 -7.6,-10.72 0,-4.18 2.1,-6.26 7.6,-10.72 6,-4.78 14.1,-11.32 14.1,-24.2 0,-12.88 -8.1,-19.42 -14.1,-24.2 -5.5,-4.45 -7.6,-6.53 -7.6,-10.72 0,-4.19 2.1,-6.27 7.6,-10.72 6,-4.78 14.1,-11.33 14.1,-24.21 0,-12.87 -8.1,-19.42 -14.1,-24.2 -5.5,-4.45 -7.6,-6.53 -7.6,-10.72 0,-4.78 -3.9,-8.65 -8.7,-8.65 m 50.6,0 c -4.8,0 -8.6,3.88 -8.6,8.65 0,12.88 8.1,19.42 14.1,24.2 5.5,4.46 7.6,6.53 7.6,10.72 0,4.19 -2.1,6.27 -7.6,10.72 -6,4.78 -14.1,11.33 -14.1,24.21 0,12.87 8.1,19.42 14.1,24.2 5.5,4.46 7.6,6.53 7.6,10.72 0,4.19 -2.1,6.27 -7.6,10.72 -6,4.78 -14.1,11.33 -14.1,24.2 0,12.88 8.1,19.43 14.1,24.21 5.5,4.45 7.6,6.53 7.6,10.72 0,4.77 3.9,8.64 8.7,8.64 4.7,0 8.6,-3.87 8.6,-8.64 0,-12.88 -8.2,-19.43 -14.1,-24.21 -5.6,-4.45 -7.7,-6.53 -7.7,-10.72 0,-4.18 2.1,-6.26 7.7,-10.72 5.9,-4.78 14.1,-11.32 14.1,-24.2 0,-12.88 -8.2,-19.42 -14.1,-24.2 -5.6,-4.45 -7.7,-6.53 -7.7,-10.72 0,-4.19 2.1,-6.27 7.7,-10.72 5.9,-4.78 14.1,-11.33 14.1,-24.21 0,-12.87 -8.2,-19.42 -14.1,-24.2 -5.6,-4.45 -7.7,-6.53 -7.7,-10.72 0,-4.78 -3.8,-8.65 -8.6,-8.65 m 50.6,0 c -4.8,0 -8.7,3.88 -8.7,8.65 0,12.88 8.2,19.42 14.1,24.2 5.6,4.46 7.7,6.53 7.7,10.72 0,4.19 -2.1,6.27 -7.7,10.72 -5.9,4.78 -14.1,11.33 -14.1,24.21 0,12.87 8.2,19.42 14.1,24.2 5.6,4.46 7.7,6.53 7.7,10.72 0,4.19 -2.1,6.27 -7.7,10.72 -5.9,4.78 -14.1,11.33 -14.1,24.2 0,12.88 8.2,19.43 14.1,24.21 5.6,4.45 7.7,6.52 7.7,10.72 0,4.77 3.8,8.64 8.6,8.64 4.8,0 8.7,-3.87 8.7,-8.64 0,-12.88 -8.2,-19.43 -14.1,-24.21 -5.6,-4.45 -7.7,-6.53 -7.7,-10.72 0,-4.18 2.1,-6.26 7.7,-10.72 5.9,-4.78 14.1,-11.32 14.1,-24.2 0,-12.88 -8.2,-19.42 -14.1,-24.2 -5.6,-4.45 -7.7,-6.53 -7.7,-10.72 0,-4.19 2.1,-6.27 7.7,-10.72 5.9,-4.78 14.1,-11.33 14.1,-24.21 0,-12.87 -8.2,-19.42 -14.1,-24.2 -5.6,-4.45 -7.7,-6.53 -7.7,-10.72 0,-4.78 -3.9,-8.65 -8.6,-8.65"
           id="path572-9-2-3-20"
           fill="#ffffff"
           clip-path="url(#clipPath573-5-3-1-2)"
           transform="matrix(0.102936,0,0,-0.102936,1841.04,1937.59)" /></g><g
         clip-path="url(#clip0-3-6-4)"
         transform="matrix(0.06152425,0,0,0.06152425,5941.7673,819.7307)"
         id="g11-0-99-1"><g
           clip-path="url(#clip1-8-0-30)"
           id="g5-5-7-75"><g
             clip-path="url(#clip2-6-08-7)"
             id="g4-2-9-0"><g
               id="g3-6-6"><path
                 d="m 53637.5,9055.15 c 0,36.31 -28.7,66.04 -64.5,67.68 -2.8,13.06 -9.2,25.05 -19,34.65 -9.8,9.64 -21.8,15.95 -35,18.34 -2.5,13.37 -8.9,25.7 -18.7,35.55 -12.7,12.86 -29.9,19.93 -48,19.93 -18.2,0 -35.2,-7.07 -48,-19.93 -9.8,-9.85 -16.2,-22.18 -18.6,-35.55 -13.2,-2.39 -25.4,-8.7 -35.2,-18.34 -9.6,-9.6 -16.2,-21.59 -18.7,-34.65 -36,-1.64 -64.7,-31.37 -64.7,-67.68 v -39.88 h 370.4 z m -198.7,-67.1 h 27.1 v -54.19 h -27.1 z m 54.2,0 h 27 v -27.1 h -27 z m -108.4,0 h 27.1 v -27.1 h -27.1 z m 246.5,-57.34 -15.3,-15.2 v 65.74 h -27.1 v -65.74 l -15.1,15.2 -19.2,-19.16 47.9,-47.91 47.9,47.91 z m -300,0 -15.2,-15.2 v 65.74 h -27.2 v -65.74 l -15,15.2 -19.3,-19.16 48,-47.91 47.8,47.91 z m 271.2,-67.07 H 53343 v -47.42 h -27.1 v 47.42 h -27.2 v -47.42 h -26.9 v 47.42 h -40.8 v -94.85 h 340.6 v 47.43 h 27.1 v -47.43 h 27.1 v 47.43 h 27.1 v -47.43 h 40.6 v 94.85 h -81.2"
                 fill="#ffffff"
                 transform="matrix(1.00058,0,0,-1,-52827.9,9324.57)"
                 id="path3-4-9-6" /></g></g></g><rect
           x="506"
           y="241"
           width="43"
           height="43"
           fill="#ffffff"
           id="rect5-0-7-1" /><rect
           x="575"
           y="334"
           width="44"
           height="44"
           fill="#ffffff"
           id="rect6-69-2" /><rect
           x="641"
           y="308"
           width="94"
           height="93"
           fill="#ffffff"
           id="rect7-78-18" /><rect
           x="772"
           y="230"
           width="44"
           height="43"
           fill="#ffffff"
           id="rect8-7-6" /><rect
           x="633"
           y="218"
           width="44"
           height="43"
           fill="#ffffff"
           id="rect9-2-7" /><rect
           x="713"
           y="124"
           width="44"
           height="44"
           fill="#ffffff"
           id="rect10-0-9" /><rect
           x="549"
           y="109"
           width="67"
           height="67"
           fill="#ffffff"
           id="rect11-2-7" /></g></g></g><style
     type="text/css"
     id="style1">
<![CDATA[
	.st0{fill:#000000;}
]]>
</style></svg>
