<?xml version="1.0" encoding="UTF-8" standalone="no"?>
<svg
   width="33.542324mm"
   height="33.542324mm"
   viewBox="0 0 33.542323 33.542323"
   version="1.1"
   id="svg10475"
   inkscape:version="1.3.1 (91b66b0783, 2023-11-16)"
   sodipodi:docname="MIT 1.svg"
   xmlns:inkscape="http://www.inkscape.org/namespaces/inkscape"
   xmlns:sodipodi="http://sodipodi.sourceforge.net/DTD/sodipodi-0.dtd"
   xmlns="http://www.w3.org/2000/svg"
   xmlns:svg="http://www.w3.org/2000/svg"
   xmlns:rdf="http://www.w3.org/1999/02/22-rdf-syntax-ns#"
   xmlns:cc="http://creativecommons.org/ns#"
   xmlns:dc="http://purl.org/dc/elements/1.1/">
  <defs
     id="defs10469">
    <clipPath
       clipPathUnits="userSpaceOnUse"
       id="clipPath9543">
      <path
         d="M 198.72,196.32 H 381.48 V 331.2 H 198.72 Z"
         clip-rule="evenodd"
         id="path9541" />
    </clipPath>
    <clipPath
       clipPathUnits="userSpaceOnUse"
       id="clipPath9553">
      <path
         d="M 0,0 H 42.264 V 31.209 H 0 Z"
         id="path9551" />
    </clipPath>
    <clipPath
       clipPathUnits="userSpaceOnUse"
       id="clipPath9567">
      <path
         d="m 0.085254,0.043709 h 42.12 v 31.08 h -42.12 z"
         clip-rule="evenodd"
         id="path9565" />
    </clipPath>
    <clipPath
       clipPathUnits="userSpaceOnUse"
       id="clipPath9577">
      <path
         d="m 0.085254,0.043709 h 42.12 v 31.08 h -42.12 z"
         clip-rule="evenodd"
         id="path9575" />
    </clipPath>
    <clipPath
       clipPathUnits="userSpaceOnUse"
       id="clipPath9587">
      <path
         d="m 0.085254,0.043709 h 42.12 v 31.08 h -42.12 z"
         clip-rule="evenodd"
         id="path9585" />
    </clipPath>
    <clipPath
       clipPathUnits="userSpaceOnUse"
       id="clipPath9597">
      <path
         d="m 0.085254,0.043709 h 42.12 v 31.08 h -42.12 z"
         clip-rule="evenodd"
         id="path9595" />
    </clipPath>
  </defs>
  <sodipodi:namedview
     id="base"
     pagecolor="#ffffff"
     bordercolor="#666666"
     borderopacity="1.0"
     inkscape:pageopacity="0.0"
     inkscape:pageshadow="2"
     inkscape:zoom="7.9195959"
     inkscape:cx="63.0714"
     inkscape:cy="74.940692"
     inkscape:document-units="mm"
     inkscape:current-layer="g9537"
     inkscape:document-rotation="0"
     showgrid="false"
     fit-margin-top="0"
     fit-margin-left="0"
     fit-margin-right="0"
     fit-margin-bottom="0"
     inkscape:window-width="3072"
     inkscape:window-height="1622"
     inkscape:window-x="-11"
     inkscape:window-y="-11"
     inkscape:window-maximized="1"
     inkscape:showpageshadow="2"
     inkscape:pagecheckerboard="0"
     inkscape:deskcolor="#d1d1d1" />
  <metadata
     id="metadata10472">
    <rdf:RDF>
      <cc:Work
         rdf:about="">
        <dc:format>image/svg+xml</dc:format>
        <dc:type
           rdf:resource="http://purl.org/dc/dcmitype/StillImage" />
      </cc:Work>
    </rdf:RDF>
  </metadata>
  <g
     inkscape:label="Layer 1"
     inkscape:groupmode="layer"
     id="layer1"
     transform="translate(-65.46038,-75.337942)">
    <g
       id="g9537"
       transform="matrix(0.12621668,0,0,-0.12621668,45.774905,125.50212)"
       style="stroke-width:2.79501">
      <rect
         style="fill:#ffffff;stroke:#ffffff;stroke-width:0;stroke-miterlimit:0;stroke-opacity:0"
         id="rect1"
         width="265.75192"
         height="265.75192"
         x="155.96571"
         y="-397.44492"
         transform="scale(1,-1)" />
      <g
         id="g9539"
         clip-path="url(#clipPath9543)"
         style="stroke-width:2.79501">
        <g
           id="g9545"
           transform="matrix(2.5383,0,0,1.8733,198.72,196.32)"
           style="stroke-width:2.79501">
          <g
             id="g9547"
             transform="scale(1.7036,2.307)"
             style="stroke-width:2.79501">
            <g
               id="g9549"
               clip-path="url(#clipPath9553)"
               style="stroke-width:2.79501">
              <path
                 d="m 29.376,18.036 h 1.607 l -6.079,10.419 c -0.432,-0.168 -0.839,-0.396 -1.211,-0.672 z"
                 style="fill:#273c87;fill-opacity:1;fill-rule:nonzero;stroke:none;stroke-width:2.79501"
                 id="path9555" />
              <path
                 d="m 26.631,28.838 6.294,-10.79 h 1.607 l -6.199,10.646 c -0.456,0.108 -0.923,0.168 -1.415,0.168 -0.096,-0.024 -0.192,-0.024 -0.287,-0.024 z"
                 style="fill:#ec2227;fill-opacity:1;fill-rule:nonzero;stroke:none;stroke-width:2.79501"
                 id="path9557" />
              <path
                 d="m 21.139,24.246 6.655,-11.39 C 28.225,12.137 28.213,11.285 27.782,10.542 27.338,9.7627 26.523,9.2831 25.659,9.2831 H 22.53 L 20.947,7.017 h 4.7 c 1.667,0 3.238,0.9232 4.077,2.398 0.827,1.451 0.827,3.165 -0.012,4.58 L 22.446,26.5 C 22.338,26.344 22.23,26.177 22.134,26.009 Z"
                 style="fill:#ec2227;fill-opacity:1;fill-rule:nonzero;stroke:none;stroke-width:2.79501"
                 id="path9559" />
              <g
                 id="g9561"
                 style="stroke-width:2.79501">
                <g
                   id="g9563"
                   clip-path="url(#clipPath9567)"
                   style="stroke-width:2.79501">
                  <path
                     d="m 41.222,14.571 -7.374,12.577 c -1.45,2.482 -4.028,3.956 -6.882,3.956 -0.024,0 -0.048,0 -0.06,0 -2.817,-0.024 -5.335,-1.51 -6.738,-3.98 L 12.782,14.043 c 0,0 0,-0.012 0,-0.012 -0.791,-1.439 -0.755,-3.177 0.096,-4.628 0.888,-1.4987 2.446,-2.398 4.161,-2.398 h 2.47 l 1.582,2.2661 h -4.064 c -0.911,0 -1.739,0.4796 -2.218,1.2829 -0.456,0.767 -0.48,1.631 -0.072,2.374 l 7.385,13.069 c 0.996,1.762 2.782,2.817 4.784,2.829 2.063,0.012 3.921,-1.043 4.976,-2.841 l 7.697,-13.129 c 0.012,-0.012 0.012,-0.024 0.024,-0.036 0.072,-0.12 1.691,-2.9494 -0.383,-6.1027 2.434,1.0671 4.16,4.2807 2.002,7.8537 z"
                     style="fill:#273c87;fill-opacity:1;fill-rule:nonzero;stroke:none;stroke-width:2.79501"
                     id="path9569" />
                </g>
              </g>
              <g
                 id="g9571"
                 style="stroke-width:2.79501">
                <g
                   id="g9573"
                   clip-path="url(#clipPath9577)"
                   style="stroke-width:2.79501">
                  <path
                     d="m 15.468,31.104 c -3.009,0 -5.5751,-1.474 -7.0259,-3.956 L 1.0684,14.571 C -1.0778,10.998 0.63678,7.7844 3.0467,6.7293 0.98449,9.8946 2.5911,12.712 2.6631,12.832 2.675,12.844 2.675,12.856 2.687,12.868 l 7.697,13.129 c 1.056,1.798 2.518,4.568 5.084,5.107 z"
                     style="fill:#e92327;fill-opacity:1;fill-rule:nonzero;stroke:none;stroke-width:2.79501"
                     id="path9579" />
                </g>
              </g>
              <g
                 id="g9581"
                 style="stroke-width:2.79501">
                <g
                   id="g9583"
                   clip-path="url(#clipPath9587)"
                   style="stroke-width:2.79501">
                  <path
                     d="m 17.566,28.778 -6.27,-10.742 h 1.606 l 5.851,10.047 0.012,0.012 c 0.012,0.024 1.499,2.518 4.317,2.866 0.012,0 -3.969,0.539 -5.516,-2.183 z"
                     style="fill:#e92327;fill-opacity:1;fill-rule:nonzero;stroke:none;stroke-width:2.79501"
                     id="path9589" />
                </g>
              </g>
              <g
                 id="g9591"
                 style="stroke-width:2.79501">
                <g
                   id="g9593"
                   clip-path="url(#clipPath9597)"
                   style="stroke-width:2.79501">
                  <path
                     d="M 14.017,28.79 7.7467,18.036 h 1.6066 l 5.8627,10.059 v 0.012 c 0.012,0.024 1.415,2.47 4.173,2.866 0.012,0 -3.825,0.539 -5.372,-2.183 z"
                     style="fill:#273c87;fill-opacity:1;fill-rule:nonzero;stroke:none;stroke-width:2.79501"
                     id="path9599" />
                </g>
              </g>
              <path
                 d="M 2.3753,3.0005 H 2.9868 L 3.838,1.2619 4.6893,3.0005 H 5.3008 V 0.11092 H 4.6893 V 1.9933 L 4.0179,0.61449 H 3.6702 L 2.9868,1.9933 V 0.11092 H 2.3753 Z"
                 style="fill:#000000;fill-opacity:1;fill-rule:nonzero;stroke:none;stroke-width:2.79501"
                 id="path9601" />
              <path
                 d="M 6.0202,0.23082 C 5.8763,0.35072 5.8044,0.50658 5.8044,0.7224 c 0,0.21581 0.0719,0.3837 0.2278,0.5036 0.1558,0.1199 0.3717,0.1918 0.6594,0.1918 h 0.6235 v 0.06 c 0,0.0959 -0.012,0.1558 -0.048,0.2158 C 7.2311,1.7415 7.1832,1.7775 7.0993,1.8015 7.0153,1.8255 6.9074,1.8374 6.7635,1.8374 6.5238,1.8374 6.284,1.8015 6.0681,1.7295 v 0.4317 c 0.1079,0.0479 0.2278,0.0719 0.3717,0.0959 0.1439,0.024 0.2998,0.036 0.4556,0.036 0.6715,0 1.0072,-0.2758 1.0072,-0.8273 V 0.11092 H 7.375 L 7.3391,0.30276 C 7.1712,0.14689 6.9074,0.062962 6.5717,0.062962 6.3439,0.062962 6.1641,0.12291 6.0202,0.23082 Z M 7.0753,0.53056 C 7.1712,0.57852 7.2551,0.62648 7.3151,0.69842 V 1.0341 H 6.7036 c -0.2398,0 -0.3597,-0.09589 -0.3597,-0.28772 0,-0.19184 0.1319,-0.28776 0.3837,-0.28776 0.1319,0 0.2518,0.02398 0.3477,0.07194 z"
                 style="fill:#000000;fill-opacity:1;fill-rule:nonzero;stroke:none;stroke-width:2.79501"
                 id="path9603" />
              <path
                 d="M 8.6459,0.31475 C 8.4661,0.4826 8.3822,0.74638 8.3822,1.1061 c 0,0.2398 0.0479,0.4556 0.1318,0.6354 0.096,0.1799 0.2159,0.3118 0.3717,0.4077 0.1559,0.0959 0.3238,0.1319 0.5156,0.1319 0.2278,0 0.4316,-0.06 0.5997,-0.1679 v 1.0191 h 0.611 V 0.098928 H 10.097 L 10.061,0.29077 C 9.9648,0.20684 9.8689,0.14689 9.761,0.11092 9.6531,0.074951 9.5212,0.050972 9.3773,0.050972 9.0656,0.062962 8.8258,0.14689 8.6459,0.31475 Z M 9.785,0.55454 c 0.0719,0.02398 0.1438,0.08393 0.216,0.14388 V 1.6696 C 9.8809,1.7775 9.725,1.8374 9.5572,1.8374 9.3773,1.8374 9.2334,1.7775 9.1375,1.6576 9.0416,1.5377 8.9936,1.3579 8.9936,1.1181 c 0,-0.21586 0.048,-0.37172 0.1319,-0.46764 0.084,-0.09592 0.2158,-0.13189 0.3957,-0.13189 0.1079,-0.01199 0.1918,0 0.2638,0.03597 z"
                 style="fill:#000000;fill-opacity:1;fill-rule:nonzero;stroke:none;stroke-width:2.79501"
                 id="path9605" />
              <path
                 d="m 11.44,0.33872 c -0.216,0.19184 -0.312,0.46761 -0.312,0.83928 0,0.3477 0.096,0.6235 0.276,0.8153 0.179,0.1918 0.455,0.2878 0.803,0.2878 0.324,0 0.575,-0.084 0.755,-0.2518 0.18,-0.1679 0.264,-0.3957 0.264,-0.6834 V 0.96219 h -1.535 c 0.024,-0.16786 0.108,-0.27576 0.228,-0.3477 0.12,-0.07194 0.3,-0.09592 0.54,-0.09592 0.108,0 0.227,0.01199 0.347,0.03597 0.12,0.02398 0.216,0.04796 0.3,0.08393 V 0.20684 C 12.914,0.11092 12.651,0.074951 12.327,0.074951 11.943,0.062962 11.655,0.15888 11.44,0.33872 Z m 1.258,0.99518 v 0.1199 c 0,0.2637 -0.155,0.3956 -0.467,0.3956 -0.192,0 -0.336,-0.0359 -0.42,-0.1199 -0.084,-0.0839 -0.12,-0.2158 -0.12,-0.3956 z"
                 style="fill:#000000;fill-opacity:1;fill-rule:nonzero;stroke:none;stroke-width:2.79501"
                 id="path9607" />
              <path
                 d="m 15.768,1.7895 h -0.324 l 0.06,0.4436 h 0.875 V 0.098928 H 15.768 Z M 15.72,3.1084 h 0.659 V 2.6288 H 15.72 Z"
                 style="fill:#000000;fill-opacity:1;fill-rule:nonzero;stroke:none;stroke-width:2.79501"
                 id="path9609" />
              <path
                 d="m 16.979,2.2331 h 0.563 l 0.024,-0.2038 c 0.096,0.0719 0.204,0.1319 0.336,0.1798 0.132,0.048 0.264,0.072 0.408,0.072 0.275,0 0.479,-0.06 0.611,-0.1919 0.132,-0.1319 0.192,-0.3357 0.192,-0.6114 V 0.11092 H 18.502 V 1.4418 c 0,0.1439 -0.036,0.2518 -0.096,0.3117 -0.06,0.06 -0.168,0.0839 -0.324,0.0839 -0.096,0 -0.18,-0.0239 -0.276,-0.0599 C 17.71,1.7415 17.638,1.6816 17.566,1.6216 V 0.11092 H 16.955 V 2.2331 Z"
                 style="fill:#000000;fill-opacity:1;fill-rule:nonzero;stroke:none;stroke-width:2.79501"
                 id="path9611" />
              <path
                 d="m 22.122,2.5328 h -0.887 v 0.4677 h 2.386 V 2.5328 H 22.734 V 0.11092 h -0.612 z"
                 style="fill:#000000;fill-opacity:1;fill-rule:nonzero;stroke:none;stroke-width:2.79501"
                 id="path9613" />
              <path
                 d="m 24.029,3.1323 h 0.611 v -1.079 c 0.096,0.0719 0.204,0.1199 0.324,0.1678 0.12,0.036 0.264,0.06 0.408,0.06 0.275,0 0.479,-0.06 0.611,-0.1919 0.132,-0.1319 0.192,-0.3357 0.192,-0.6114 V 0.11092 H 25.563 V 1.4418 c 0,0.1439 -0.024,0.2518 -0.083,0.3117 -0.06,0.06 -0.168,0.0839 -0.324,0.0839 -0.096,0 -0.18,-0.0239 -0.276,-0.0599 C 24.784,1.7415 24.712,1.6816 24.64,1.6216 V 0.11092 h -0.611 z"
                 style="fill:#000000;fill-opacity:1;fill-rule:nonzero;stroke:none;stroke-width:2.79501"
                 id="path9615" />
              <path
                 d="m 26.894,0.23082 c -0.144,0.1199 -0.215,0.27576 -0.215,0.49158 0,0.21581 0.071,0.3837 0.227,0.5036 0.156,0.1199 0.372,0.1918 0.66,0.1918 h 0.623 v 0.06 c 0,0.0959 -0.012,0.1558 -0.048,0.2158 -0.036,0.0479 -0.084,0.0839 -0.168,0.1079 -0.084,0.024 -0.191,0.0359 -0.335,0.0359 -0.24,0 -0.48,-0.0359 -0.696,-0.1079 v 0.4317 c 0.108,0.0479 0.228,0.0719 0.372,0.0959 0.144,0.024 0.3,0.036 0.456,0.036 0.671,0 1.007,-0.2758 1.007,-0.8273 V 0.11092 H 28.249 L 28.213,0.30276 C 28.045,0.14689 27.782,0.062962 27.446,0.062962 c -0.228,0 -0.408,0.059948 -0.552,0.167858 z m 1.043,0.29974 c 0.096,0.04796 0.18,0.09592 0.24,0.16786 V 1.0341 h -0.611 c -0.24,0 -0.36,-0.09589 -0.36,-0.28772 0,-0.19184 0.132,-0.28776 0.384,-0.28776 0.132,0 0.252,0.02398 0.347,0.07194 z"
                 style="fill:#000000;fill-opacity:1;fill-rule:nonzero;stroke:none;stroke-width:2.79501"
                 id="path9617" />
              <path
                 d="M 29.664,1.7895 H 29.34 l 0.048,0.4436 h 0.875 V 0.098928 H 29.652 V 1.7895 Z m -0.06,1.3189 h 0.659 V 2.6288 h -0.659 z"
                 style="fill:#000000;fill-opacity:1;fill-rule:nonzero;stroke:none;stroke-width:2.79501"
                 id="path9619" />
              <path
                 d="M 31.007,0.20684 C 30.911,0.30276 30.863,0.45862 30.863,0.66245 V 3.1323 h 0.611 V 0.71041 c 0,-0.07194 0.012,-0.13189 0.048,-0.15587 0.024,-0.02398 0.072,-0.04796 0.132,-0.04796 0.072,0 0.144,0.01199 0.216,0.03597 V 0.12291 C 31.81,0.098928 31.75,0.086939 31.69,0.074951 31.63,0.062962 31.558,0.062962 31.474,0.062962 c -0.215,0 -0.371,0.047958 -0.467,0.143878 z"
                 style="fill:#000000;fill-opacity:1;fill-rule:nonzero;stroke:none;stroke-width:2.79501"
                 id="path9621" />
              <path
                 d="m 32.23,0.23082 c -0.144,0.1199 -0.216,0.27576 -0.216,0.49158 0,0.21581 0.072,0.3837 0.228,0.5036 0.156,0.1199 0.371,0.1918 0.659,0.1918 h 0.624 v 0.06 c 0,0.0959 -0.012,0.1558 -0.048,0.2158 -0.036,0.0479 -0.084,0.0839 -0.168,0.1079 -0.084,0.024 -0.192,0.0359 -0.336,0.0359 -0.24,0 -0.479,-0.0359 -0.695,-0.1079 v 0.4317 c 0.108,0.0479 0.228,0.0719 0.371,0.0959 0.144,0.024 0.3,0.036 0.456,0.036 0.671,0 1.007,-0.2758 1.007,-0.8273 V 0.11092 H 33.585 L 33.549,0.30276 C 33.381,0.14689 33.117,0.062962 32.781,0.062962 c -0.227,0 -0.407,0.059948 -0.551,0.167858 z m 1.043,0.29974 c 0.096,0.04796 0.18,0.09592 0.24,0.16786 V 1.0341 h -0.612 c -0.24,0 -0.359,-0.09589 -0.359,-0.28772 0,-0.19184 0.131,-0.28776 0.383,-0.28776 0.132,0 0.252,0.02398 0.348,0.07194 z"
                 style="fill:#000000;fill-opacity:1;fill-rule:nonzero;stroke:none;stroke-width:2.79501"
                 id="path9623" />
              <path
                 d="m 34.676,2.2331 h 0.563 l 0.024,-0.2038 c 0.096,0.0719 0.204,0.1319 0.336,0.1798 0.132,0.048 0.264,0.072 0.408,0.072 0.275,0 0.479,-0.06 0.611,-0.1919 C 36.75,1.9573 36.81,1.7535 36.81,1.4778 V 0.11092 H 36.198 V 1.4418 c 0,0.1439 -0.036,0.2518 -0.096,0.3117 -0.059,0.06 -0.167,0.0839 -0.323,0.0839 -0.096,0 -0.18,-0.0239 -0.276,-0.0599 -0.096,-0.036 -0.168,-0.0959 -0.24,-0.1559 V 0.11092 H 34.652 V 2.2331 Z"
                 style="fill:#000000;fill-opacity:1;fill-rule:nonzero;stroke:none;stroke-width:2.79501"
                 id="path9625" />
              <path
                 d="m 37.577,0.31475 c -0.18,0.16785 -0.264,0.43163 -0.264,0.79135 0,0.2398 0.048,0.4556 0.132,0.6354 0.096,0.1799 0.216,0.3118 0.372,0.4077 0.156,0.0959 0.324,0.1319 0.516,0.1319 0.227,0 0.431,-0.06 0.599,-0.1679 v 1.0191 h 0.612 V 0.098928 H 39.028 L 38.992,0.29077 C 38.896,0.20684 38.8,0.14689 38.692,0.11092 38.584,0.074951 38.452,0.050972 38.309,0.050972 37.985,0.062962 37.745,0.14689 37.577,0.31475 Z m 1.139,0.23979 c 0.072,0.02398 0.144,0.08393 0.216,0.14388 V 1.6696 c -0.132,0.1079 -0.276,0.1678 -0.444,0.1678 -0.179,0 -0.323,-0.0599 -0.419,-0.1798 -0.096,-0.1199 -0.144,-0.2997 -0.144,-0.5395 0,-0.21586 0.048,-0.37172 0.132,-0.46764 0.084,-0.09592 0.216,-0.13189 0.395,-0.13189 0.108,-0.01199 0.192,0 0.264,0.03597 z"
                 style="fill:#000000;fill-opacity:1;fill-rule:nonzero;stroke:none;stroke-width:2.79501"
                 id="path9627" />
            </g>
          </g>
        </g>
      </g>
    </g>
  </g>
</svg>
