<svg width="79" height="79" viewBox="0 0 79 79" fill="none" xmlns="http://www.w3.org/2000/svg">
<g clip-path="url(#clip0_4402_384)">
<path d="M37.7893 1.374C38.2604 0.904143 38.6602 0.346308 39.2402 0C41.4306 2.25381 43.6059 4.52446 45.755 6.81571C44.9385 7.37542 43.9719 7.82094 43.4614 8.71198C42.9302 9.65918 42.8908 10.7823 42.8871 11.8419C42.919 25.5706 42.9809 39.2975 43.0072 53.0263C43.1029 56.8937 43.0522 60.763 43.0785 64.6322C43.101 65.9407 43.0128 67.2586 43.2136 68.5577C43.3563 69.649 43.6848 70.8003 44.5237 71.5678C44.9836 72.0245 45.603 72.2529 46.1829 72.5131C44.1258 74.6246 41.8735 76.5415 39.7507 78.5875C39.5217 78.7747 39.1951 79.239 38.9211 78.8477C36.7608 76.7362 34.5779 74.6433 32.4551 72.4944C33.264 71.9272 34.1424 71.3768 34.6492 70.4989C35.2817 69.4076 35.3981 68.1103 35.415 66.8767C35.4131 48.47 35.415 30.0651 35.415 11.6584C35.4319 10.7112 35.2048 9.76026 34.7205 8.94223C34.2457 8.05867 33.4348 7.44281 32.6916 6.79699C34.3301 4.93442 36.1113 3.20101 37.7893 1.374Z" fill="#0000FE"/>
<path d="M30.7171 8.88046C31.5242 9.00027 32.3237 9.38214 32.7742 10.086C33.1684 10.6532 33.144 11.372 33.1533 12.0328C33.1402 14.6385 33.1571 17.2443 33.1458 19.8519C32.793 19.8275 32.4176 19.6853 32.0741 19.8182C31.6818 20.0353 31.3759 20.3685 31.0512 20.6718C27.6258 24.0581 24.2323 27.4762 20.8088 30.8644C20.0017 31.5777 19.9191 33.019 20.8144 33.6967C17.5842 33.6312 14.3521 33.6986 11.1219 33.663C10.2341 33.663 9.26001 33.2474 8.91654 32.377C8.71383 31.8528 8.49422 31.1153 9.01976 30.7053C16.2478 23.4273 23.4778 16.1492 30.7171 8.88046Z" fill="#0000FE"/>
<path d="M45.9255 9.67601C46.3985 9.12192 47.1493 8.96468 47.8381 8.86734C54.306 15.1627 60.757 21.4786 67.2193 27.7832C68.2685 28.8334 69.374 29.8293 70.3857 30.915C70.3557 31.645 70.1773 32.42 69.6161 32.931C68.9386 33.5656 67.9569 33.6967 67.0654 33.6742C63.8746 33.6648 60.6838 33.6779 57.493 33.6667C57.9285 33.2811 58.4841 32.8824 58.4953 32.2384C58.4728 31.4971 58.1594 30.7577 57.6075 30.2523C54.6288 27.2984 51.6614 24.3295 48.6884 21.3662C48.0709 20.7672 47.5097 20.084 46.757 19.6441C46.2465 19.4082 45.7941 19.908 45.3437 20.0858C45.3399 17.3341 45.3437 14.5842 45.3418 11.8325C45.3437 11.0856 45.4225 10.2694 45.9255 9.67601Z" fill="#0000FE"/>
<path d="M70.8627 34.9247C71.5516 34.2976 71.8969 33.414 72.2929 32.596C74.549 35.0126 76.7919 37.4424 78.9992 39.904C73.8001 45.0593 68.5334 50.1472 63.3024 55.2707C58.0808 60.3717 52.8686 65.484 47.632 70.5719C47.2697 70.5251 46.8662 70.5195 46.5771 70.263C45.6443 69.4993 45.3965 68.2151 45.3421 67.0751C45.3421 64.1998 45.3365 61.3227 45.344 58.4493C45.8451 58.7413 46.3387 59.2317 46.9694 59.11C47.5907 58.9921 48.1275 58.6102 48.576 58.1797C52.0615 54.6661 55.5357 51.1412 59.0099 47.6182C59.4698 47.1409 59.9559 46.6018 60.0197 45.911C60.1605 44.7242 58.948 43.7883 57.8462 43.7583C53.6794 43.7078 49.5108 43.8145 45.3477 43.704C45.3421 41.1638 45.3252 38.6236 45.3552 36.0853C52.649 36.0759 59.9446 36.0909 67.2402 36.0796C68.5184 36.0778 69.9074 35.8419 70.8627 34.9247Z" fill="#0000FE"/>
<path d="M4.25312 35.5031C4.96823 34.7936 5.63455 34.0336 6.38344 33.3578C6.83578 34.1909 7.34067 35.0763 8.23034 35.5124C9.15754 36.0665 10.2631 36.1115 11.3123 36.0853C18.5741 36.0796 25.8341 36.0853 33.0959 36.0815C33.216 38.6236 33.1316 41.1769 33.1353 43.7227C25.5469 43.7901 17.9566 43.719 10.3682 43.7583C9.48038 43.777 8.53816 43.7639 7.74609 44.2226C7.08917 44.5913 6.75507 45.297 6.39282 45.9223C5.91608 45.5385 5.46938 45.1155 5.0283 44.6905C3.36534 43.0882 1.62354 41.5663 0 39.9208C1.35702 38.3915 2.84918 36.9894 4.25312 35.5031Z" fill="#0000FE"/>
<path d="M9.44044 46.3004C9.95097 46.0252 10.5478 45.9953 11.1165 45.9784C14.4763 45.9616 17.8378 46.0065 21.1975 45.956C20.9442 46.336 20.6101 46.7272 20.6382 47.2158C20.7133 48.3333 21.4134 49.2805 22.2242 50.005C24.9683 52.7604 27.7105 55.5159 30.4508 58.2752C30.8562 58.6832 31.3649 59.0427 31.9561 59.0932C32.3784 58.9865 32.7519 58.7562 33.1386 58.5616C33.1724 61.2703 33.1329 63.9808 33.1536 66.6914C33.1817 67.8669 32.9133 69.1249 32.125 70.0346C31.7684 70.4277 31.0364 70.7984 30.6254 70.2817C24.6154 64.2897 18.6093 58.2957 12.5937 52.3112C11.2592 50.9503 9.86088 49.6493 8.56579 48.2547C8.38749 47.5115 8.761 46.6617 9.44044 46.3004Z" fill="#0000FE"/>
</g>
<defs>
<clipPath id="clip0_4402_384">
<rect width="79" height="79" fill="white"/>
</clipPath>
</defs>
</svg>
