<?xml version="1.0" encoding="UTF-8" standalone="no"?>
<svg
   width="86.990211"
   height="86.990211"
   viewBox="0 0 86.990211 86.990211"
   fill="none"
   version="1.1"
   id="svg8"
   sodipodi:docname="UKAS 1.svg"
   inkscape:version="1.3.1 (91b66b0783, 2023-11-16)"
   xmlns:inkscape="http://www.inkscape.org/namespaces/inkscape"
   xmlns:sodipodi="http://sodipodi.sourceforge.net/DTD/sodipodi-0.dtd"
   xmlns="http://www.w3.org/2000/svg"
   xmlns:svg="http://www.w3.org/2000/svg">
  <sodipodi:namedview
     id="namedview8"
     pagecolor="#ffffff"
     bordercolor="#000000"
     borderopacity="0.25"
     inkscape:showpageshadow="2"
     inkscape:pageopacity="0.0"
     inkscape:pagecheckerboard="0"
     inkscape:deskcolor="#d1d1d1"
     inkscape:zoom="7.5295824"
     inkscape:cx="33.800015"
     inkscape:cy="50.268392"
     inkscape:window-width="3072"
     inkscape:window-height="1622"
     inkscape:window-x="-11"
     inkscape:window-y="-11"
     inkscape:window-maximized="1"
     inkscape:current-layer="svg8" />
  <rect
     style="fill:#ffffff;stroke:#ffffff;stroke-width:0;stroke-miterlimit:0;stroke-opacity:0"
     id="rect9"
     width="86.990211"
     height="86.990211"
     x="0"
     y="0" />
  <g
     clip-path="url(#clip0_4402_393)"
     id="g8"
     transform="translate(20.718279,13.28095)">
    <path
       d="M 47.7195,0 H 0 v 63.6259 h 47.7195 z"
       fill="#ffffff"
       id="path1" />
    <path
       d="M 1.59662,1.59064 C 16.4401,1.59546 31.2836,1.61669 46.1271,1.61766 c -10e-4,5.49465 -0.002,10.99024 9e-4,16.48584 -1.1493,-9e-4 -2.2986,0.0174 -3.4469,0.0261 9e-4,0.2065 0.0029,0.414 0.0067,0.6224 1.1464,0.0164 2.2938,0.0126 3.4402,0.0357 -0.0019,0.469 -0.0019,0.938 -9e-4,1.407 -0.5897,0 -1.1802,-0.001 -1.7698,9e-4 -0.001,0.2259 0,0.4526 0,0.6794 0.5896,-0.0029 1.1782,-0.001 1.7688,-0.0019 10e-4,0.4805 0,0.9601 10e-4,1.4397 -0.5897,-0.0106 -1.1793,-0.0212 -1.7689,-0.0376 -9e-4,0.2297 -0.0019,0.4603 -9e-4,0.69 0.5896,0.0019 1.1792,9e-4 1.7698,9e-4 -10e-4,0.4922 -10e-4,0.9834 -10e-4,1.4755 -0.5896,-0.001 -1.1792,0 -1.7679,-0.001 -0.0019,0.2268 -0.0019,0.4536 -9e-4,0.6804 0.5886,-0.002 1.1782,0 1.7678,-10e-4 0.002,0.4709 10e-4,0.9418 0,1.4127 -0.5896,-0.0019 -1.1782,-9e-4 -1.7669,-9e-4 -0.0019,0.2267 -0.0019,0.4535 -0.0019,0.6812 0.5906,-0.0019 1.1802,-9e-4 1.7717,-9e-4 -0.0019,0.4699 -0.0019,0.9399 -0.0019,1.4098 -1.187,0 -2.3749,0.0174 -3.5618,0.0251 -0.0135,0.2171 -0.0261,0.4352 -0.0376,0.6524 1.1888,0.0115 2.3777,0.0173 3.5666,0.0328 0.0116,0.4786 0.0222,0.9563 0.0367,1.4349 -0.5916,0.0029 -1.1822,0.001 -1.7727,0.0019 -0.001,0.2287 -0.001,0.4584 9e-4,0.6881 0.5896,0.0019 1.1792,9e-4 1.7689,0.0019 -10e-4,0.469 -10e-4,0.9389 0,1.4089 -0.5906,10e-4 -1.1802,10e-4 -1.7698,0 -0.001,0.2268 -0.001,0.4526 9e-4,0.6803 0.5887,10e-4 1.1783,10e-4 1.7689,0 -10e-4,0.47 -10e-4,0.9399 -10e-4,1.4108 -0.5906,0 -1.1802,-9e-4 -1.7698,10e-4 0,0.2258 0.001,0.4526 0.0029,0.6793 0.5886,-9e-4 1.1782,0 1.7679,0 -10e-4,0.4883 -10e-4,0.9766 0,1.4659 -0.5906,0 -1.1802,0 -1.7698,9e-4 -0.001,0.2287 -0.001,0.4584 0,0.6881 0.5886,9e-4 1.1772,0.0019 1.7669,-10e-4 0.0029,0.468 0.0019,0.936 0.0029,1.4041 -1.1995,-0.002 -2.398,0 -3.5966,-10e-4 0,0.2297 0,0.4584 10e-4,0.688 1.1976,0 2.3961,10e-4 3.5946,0 0.0019,7.3783 0,14.7557 0,22.134 -14.8435,-0.001 -29.686,10e-4 -44.52948,-0.001 0.0029,-7.3802 -0.00772,-14.7595 0.00482,-22.1397 1.14545,-10e-4 2.28992,-0.0145 3.43537,-0.0261 0,-0.2075 0,-0.4149 0,-0.6214 C 3.89136,39.2185 2.74496,39.2059 1.59855,39.203 1.59469,38.7331 1.59566,38.2622 1.59662,37.7932 c 0.58961,0.0029 1.17922,10e-4 1.76883,0.0019 -9.7e-4,-0.2306 -9.7e-4,-0.4603 0,-0.6899 -0.58961,0 -1.17922,0 -1.76883,0 -9.6e-4,-0.4893 0,-0.9776 -9.7e-4,-1.4659 0.58961,0 1.18019,0 1.7698,0 -9.7e-4,-0.2277 -9.7e-4,-0.4545 0,-0.6812 -0.58961,0.0019 -1.17922,0 -1.76883,0.0019 -9.6e-4,-0.4719 -9.6e-4,-0.9428 0,-1.4137 0.58961,0.0038 1.17922,0.0019 1.76979,0.0019 -0.00193,-0.2268 -0.00193,-0.4535 -0.00289,-0.6803 -0.58961,10e-4 -1.17826,0 -1.7669,0 -9.6e-4,-0.47 -9.6e-4,-0.9409 0,-1.4108 0.58961,0.0019 1.17922,9e-4 1.76883,9e-4 -9.7e-4,-0.2296 -9.7e-4,-0.4603 0,-0.689 -0.59154,0 -1.18308,-9e-4 -1.77365,0 C 1.60145,30.2904 1.61592,29.8118 1.6275,29.3341 2.8154,29.3158 4.00427,29.309 5.19217,29.3023 5.17963,29.0832 5.16805,28.8651 5.15647,28.647 3.96953,28.6403 2.78356,28.621 1.59662,28.6229 c -9.6e-4,-0.4709 -9.6e-4,-0.9418 0,-1.4118 0.58961,0.0019 1.17922,0.001 1.76883,0.001 -9.7e-4,-0.2268 -9.7e-4,-0.4536 9.6e-4,-0.6803 -0.59057,0 -1.18018,0 -1.76979,0 -9.6e-4,-0.471 0,-0.9409 -0.00193,-1.4118 0.59057,0 1.18115,0 1.77172,0 -0.00193,-0.2268 -0.00193,-0.4526 -0.00193,-0.6784 -0.58961,-0.001 -1.17922,-0.001 -1.76786,0 -9.6e-4,-0.4921 -9.6e-4,-0.9843 0,-1.4764 0.58961,0.0019 1.17825,9e-4 1.76786,9e-4 0,-0.2267 9.6e-4,-0.4526 0.00193,-0.6793 -0.58961,-0.002 -1.18018,-0.001 -1.76979,-0.001 -9.6e-4,-0.4699 -9.6e-4,-0.9399 0,-1.4108 0.58961,-0.0029 1.17922,-0.001 1.76979,-0.0019 -0.00193,-0.2258 -0.00193,-0.4526 -9.6e-4,-0.6784 -0.58961,0 -1.17922,0 -1.76786,9e-4 -0.00193,-0.4709 -0.00193,-0.9418 0,-1.4127 1.19465,0.0019 2.39027,10e-4 3.5859,0 -9.7e-4,-0.2268 -9.7e-4,-0.4535 -9.7e-4,-0.6803 -1.19562,9e-4 -2.39028,9e-4 -3.58493,9e-4 C 1.59469,12.5992 1.59662,7.09494 1.59662,1.59064 Z M 23.306,2.83933 c 0.1515,0.30398 0.2885,0.61856 0.3542,0.95438 -0.3166,-0.06852 -0.6051,-0.21809 -0.8869,-0.37056 0,0.38214 0,0.76331 0,1.14545 0.2866,-0.14765 0.579,-0.29047 0.8897,-0.3831 -0.026,0.83375 -1.0055,1.29501 -0.8868,2.15482 0.0135,0.39564 0.3021,0.68803 0.5829,0.93025 -0.1718,0.2094 -0.3175,0.4381 -0.4169,0.68996 C 22.3265,7.86018 21.7263,7.68262 21.1531,7.43655 20.8279,7.29083 20.4738,7.22811 20.1186,7.23776 18.62,7.11327 17.3761,8.66787 17.5614,10.1028 c 0.029,0.5385 0.3638,1.0113 0.3619,1.5517 -0.0126,0.3957 -0.497,0.4671 -0.6581,0.7488 0.4882,1.3974 1.047,2.7715 1.5787,4.1534 1.2217,-0.4468 2.4704,-0.8685 3.7789,-0.9496 1.6742,-0.1293 3.391,-0.027 4.9919,0.5105 0.4072,0.1274 0.7932,0.3184 1.2101,0.4178 0.1939,-0.1968 0.2393,-0.4989 0.3541,-0.7469 0.4352,-1.1531 0.8917,-2.2995 1.2979,-3.4643 -0.2875,-0.1872 -0.6841,-0.3783 -0.689,-0.7749 0.0589,-0.496 0.333,-0.9418 0.3677,-1.4455 C 30.2954,8.99404 29.6334,7.8486 28.6086,7.40567 27.9534,7.11906 27.192,7.19144 26.5416,7.45585 25.9732,7.68455 25.3846,7.86886 24.7766,7.95571 24.6744,7.71253 24.5354,7.48769 24.3723,7.28022 24.8278,6.9251 25.1192,6.30558 24.8606,5.74395 c -0.2721,-0.51627 -0.744,-0.9399 -0.8183,-1.5488 0.3204,0.07526 0.6176,0.22098 0.9071,0.37345 -0.001,-0.38214 -0.001,-0.76524 0,-1.14738 -0.2847,0.16019 -0.5809,0.30591 -0.9042,0.36766 0.082,-0.33099 0.219,-0.64461 0.3686,-0.94955 -0.3696,9.7e-4 -0.7392,9.7e-4 -1.1078,0 z m -3.4489,3.33404 c -0.247,0.19397 -0.1756,0.71506 0.1786,0.7334 C 20.3502,6.96177 20.6446,6.5642 20.44,6.294 20.3348,6.08363 20.0395,6.05179 19.8571,6.17337 Z M 27.3879,6.17144 C 27.1737,6.32198 27.1496,6.65587 27.3696,6.81316 27.5944,7.03511 28.02,6.8701 28.0026,6.54393 28.0798,6.20136 27.6494,5.97941 27.3879,6.17144 Z M 18.787,6.35383 C 18.5447,6.51981 18.5544,6.92317 18.8005,7.0795 19.0234,7.22618 19.3351,7.05441 19.4017,6.81413 19.53,6.48121 19.0581,6.16469 18.787,6.35383 Z m 2.2271,0.00386 C 20.7825,6.49182 20.6774,6.81027 20.909,6.99844 21.0981,7.31785 21.6404,7.06792 21.5989,6.7321 21.6153,6.44454 21.2708,6.16565 21.0141,6.35769 Z m 5.3017,-0.00676 c -0.2991,0.16502 -0.2412,0.66199 0.083,0.76234 0.2548,0.12545 0.5066,-0.13799 0.5481,-0.37731 -0.0135,-0.2837 -0.3667,-0.55969 -0.6311,-0.38503 z m 2.1423,0.02606 C 28.2699,6.56902 28.24,6.8894 28.488,7.04669 28.6974,7.29276 29.012,7.05634 29.0998,6.81992 29.259,6.47445 28.7186,6.09618 28.4581,6.37699 Z M 21.9888,6.77263 C 21.7639,6.94923 21.8103,7.35452 22.0641,7.48287 22.3449,7.64305 22.7328,7.33426 22.6363,7.0216 22.5842,6.74175 22.2136,6.57578 21.9888,6.77263 Z M 25.264,6.74561 c -0.3272,0.1766 -0.2152,0.75463 0.1621,0.77972 0.2731,0.04728 0.496,-0.23064 0.4429,-0.48925 -0.0309,-0.27117 -0.3744,-0.4439 -0.605,-0.29047 z m -7.3301,0.11484 c -0.3252,0.0936 -0.4024,0.63014 -0.0936,0.79032 0.2152,0.12642 0.5221,0.01062 0.5751,-0.24221 0.111,-0.29143 -0.1688,-0.65137 -0.4815,-0.54811 z M 29.4144,6.95309 C 29.2002,7.15863 29.261,7.6141 29.5765,7.68744 29.8602,7.79166 30.113,7.47804 30.0648,7.20977 30.0696,6.89133 29.6296,6.76009 29.4144,6.95309 Z M 17.0596,7.82833 C 16.8907,8.01071 16.9004,8.32723 17.0577,8.51348 17.3173,8.66594 17.739,8.52312 17.711,8.17862 17.766,7.8264 17.3173,7.65753 17.0596,7.82833 Z M 30.1748,7.81386 C 29.9625,7.95764 29.948,8.32048 30.1352,8.48935 30.3437,8.6148 30.692,8.60901 30.7712,8.33109 30.9622,7.9837 30.4846,7.60735 30.1748,7.81386 Z M 16.7711,8.87921 C 16.4739,9.01334 16.4546,9.47557 16.7441,9.629 17.0201,9.79691 17.3404,9.51803 17.3684,9.23722 17.3163,8.99501 17.023,8.68235 16.7711,8.87921 Z m 13.8042,0.02412 c -0.249,0.14957 -0.2654,0.55294 -10e-4,0.69672 0.2277,0.18046 0.5819,0.00483 0.606,-0.27598 C 31.243,9.01334 30.8455,8.66594 30.5753,8.90333 Z M 16.773,10.0304 c -0.2509,0.1342 -0.33,0.524 -0.0974,0.7132 0.2123,0.2209 0.6195,0.0424 0.6475,-0.249 0.0656,-0.2905 -0.2654,-0.6504 -0.5501,-0.4642 z m 13.8003,0.0242 c -0.3165,0.1891 -0.1852,0.7401 0.1728,0.7884 0.2798,0.0453 0.495,-0.2741 0.4313,-0.5308 -0.0357,-0.2711 -0.3831,-0.42458 -0.6041,-0.2576 z m -13.4181,1.0537 c -0.3388,0.1081 -0.3745,0.7074 -0.0058,0.8019 0.2036,0.0888 0.4651,-0.0376 0.5056,-0.2615 0.0946,-0.2924 -0.1843,-0.6552 -0.4998,-0.5404 z m 13.1393,0.0184 c -0.2944,0.1148 -0.3368,0.5732 -0.0763,0.7469 0.2094,0.165 0.5452,0.0366 0.5993,-0.222 0.1148,-0.3059 -0.2075,-0.6764 -0.523,-0.5249 z m -7.8058,5.8111 c -2.0005,0.2365 -3.9237,1.0451 -5.5121,2.2784 -2.4646,1.9049 -4.1128,4.7969 -4.5692,7.8714 -0.495,3.169 0.2615,6.5272 2.1423,9.1346 1.8759,2.6634 4.9108,4.5084 8.1628,4.8336 2.3006,0.25 4.6638,-0.274 6.6729,-1.4127 2.3546,-1.3269 4.2045,-3.4962 5.1936,-6.0052 1.269,-3.1613 1.1541,-6.8359 -0.275,-9.9239 -1.2767,-2.8072 -3.6757,-5.1009 -6.5783,-6.1663 -1.6637,-0.6398 -3.475,-0.772 -5.237,-0.6099 z M 12.2955,43.1527 c -0.0087,1.242 0.0106,2.4839 -0.0116,3.7249 -0.0241,0.4072 -0.0048,0.8453 -0.2104,1.213 -0.2007,0.3725 -0.6321,0.5336 -1.0316,0.5703 C 10.5633,48.7043 10.0046,48.6358 9.68227,48.2392 9.39181,47.9217 9.41497,47.4634 9.38892,47.0639 9.35707,45.7659 9.35417,44.468 9.33101,43.1701 c -0.53267,-0.0116 -1.06535,-0.028 -1.59706,0 -0.06175,1.3964 -0.02219,2.7946 0.0251,4.19 0.02026,0.8125 0.35125,1.6849 1.08464,2.1075 0.7498,0.4546 1.65881,0.388 2.49931,0.3619 0.6475,-0.0174 1.3269,-0.2026 1.7959,-0.6726 0.4882,-0.496 0.6668,-1.2159 0.6774,-1.8943 0.028,-1.3702 0.0193,-2.7405 0.0183,-4.1108 -0.5133,10e-4 -1.0267,0 -1.5391,9e-4 z m 4.4129,-0.0154 c 9e-4,2.2156 0,4.4312 9e-4,6.6469 0.5327,0 1.0644,0 1.5971,0 0.001,-0.9332 0.0145,-1.8654 0.0251,-2.7975 0.2026,-0.0126 0.4053,-0.0251 0.6089,-0.0367 0.7507,0.9341 1.4668,1.8962 2.2088,2.838 0.7132,-0.0164 1.4273,0.0193 2.1404,-0.028 -0.8048,-1.0479 -1.6945,-2.0264 -2.5128,-3.0628 -0.085,-0.1429 -0.2924,-0.305 -0.1448,-0.4748 0.7131,-1.0364 1.5565,-1.9792 2.2591,-3.0253 -0.6032,-0.0665 -1.2101,-0.053 -1.8142,-0.0665 -0.6794,0.8598 -1.3018,1.7659 -2.0101,2.6016 -0.1718,0.2412 -0.4864,0.1457 -0.7353,0.1505 -0.0106,-0.9148 -0.0232,-1.8306 -0.0251,-2.7454 -0.5327,10e-4 -1.0654,10e-4 -1.598,0 z m 10.6477,0.0666 c -0.3513,0.7334 -0.6089,1.5112 -0.9264,2.26 -0.5607,1.4272 -1.1493,2.8438 -1.6714,4.2855 0.5433,0.0492 1.0895,0.0328 1.6357,0.0348 0.1631,-0.4237 0.2808,-0.8647 0.4699,-1.2767 0.1139,-0.2635 0.442,-0.25 0.6823,-0.2596 0.8077,0.0087 1.6183,-0.028 2.424,0.0502 0.2345,0.4767 0.387,0.9872 0.5684,1.4861 0.5713,-10e-4 1.1425,0.0086 1.7138,-0.0203 -0.8492,-2.2098 -1.7206,-4.4119 -2.6334,-6.5947 -0.7527,-0.0329 -1.517,-0.0676 -2.2629,0.0347 z m 7.2422,0.6822 c -0.4574,0.5163 -0.496,1.2883 -0.2856,1.9194 0.1746,0.5095 0.6475,0.8415 1.1367,1.0171 0.799,0.3156 1.682,0.2876 2.4887,0.5732 0.3156,0.0898 0.5028,0.4709 0.3513,0.7701 -0.1776,0.3676 -0.633,0.4352 -0.9968,0.4651 -1.0509,0.0608 -2.096,-0.1448 -3.1092,-0.4005 -10e-4,0.4343 0,0.8695 -0.0029,1.3037 1.0084,0.2963 2.0718,0.3204 3.1159,0.3098 0.8232,-0.0116 1.7389,-0.1901 2.3044,-0.8415 0.6562,-0.8289 0.5211,-2.2986 -0.4738,-2.8081 -0.9129,-0.4265 -1.9502,-0.4236 -2.9017,-0.7237 -0.2683,-0.0628 -0.4497,-0.3581 -0.3667,-0.6234 0.0666,-0.2625 0.3319,-0.3995 0.579,-0.4459 1.075,-0.2074 2.1625,0.0348 3.2192,0.2345 -10e-4,-0.3966 0,-0.7932 -10e-4,-1.1888 -0.4815,-0.1564 -0.9833,-0.2355 -1.4851,-0.2847 -0.6726,-0.0637 -1.3568,-0.1293 -2.0245,0.0048 -0.5665,0.0898 -1.158,0.2741 -1.5479,0.7189 z M 5.99987,55.2614 c 0.17273,-9e-4 0.34739,-0.0019 0.52206,-0.0019 0.0936,-1.0084 0.12449,-2.0207 0.23932,-3.0262 0.37924,0.8222 0.69286,1.6723 1.04026,2.5071 0.15729,0.0096 0.31555,0.0183 0.47477,0.027 0.34933,-0.8685 0.70058,-1.736 1.05473,-2.6026 0.10905,1.0306 0.15054,2.067 0.22099,3.1015 0.16984,-0.0077 0.34064,-0.0145 0.5124,-0.0251 C 9.993,54.0002 9.90808,52.7583 9.76816,51.5231 9.54331,51.5096 9.31944,51.4999 9.09556,51.4932 8.75202,52.351 8.4355,53.2205 8.04275,54.0581 7.65965,53.235 7.35857,52.3781 7.02179,51.5356 6.78054,51.5221 6.54026,51.5105 6.29998,51.5028 6.20541,52.7563 6.11856,54.0099 5.99987,55.2614 Z m 5.83433,-3.7528 c -0.4082,1.2487 -0.8646,2.481 -1.2535,3.7364 0.1698,0.0039 0.3406,0.0068 0.5124,0.0087 0.1341,-0.386 0.2547,-0.7768 0.3908,-1.1618 0.4642,0.0029 0.9274,0.0019 1.3915,0.0019 0.1322,0.3831 0.2654,0.7672 0.3851,1.1561 0.1737,0.0019 0.3464,9e-4 0.522,0 -0.3744,-1.2574 -0.8482,-2.483 -1.2448,-3.7326 -0.2355,-0.0058 -0.47,-0.0077 -0.7035,-0.0087 z m 2.5833,-0.0116 c 9e-4,1.2545 9e-4,2.509 0,3.7635 0.1563,-10e-4 0.3126,0 0.4709,0 0.0039,-0.9708 -0.0174,-1.9416 0.0376,-2.9114 0.5539,0.938 1.0287,1.9203 1.544,2.8805 0.1988,0.0116 0.3976,0.0232 0.5983,0.0376 -0.0019,-1.2554 10e-4,-2.5109 -0.001,-3.7663 -0.1794,-0.001 -0.357,-0.001 -0.5346,-0.001 -0.0115,0.9322 0.0319,1.8673 -0.0328,2.7985 C 15.9866,53.3865 15.533,52.4437 15.0602,51.5115 14.845,51.5038 14.6307,51.499 14.4175,51.497 Z m 4.5364,0.0145 c -0.4121,1.2458 -0.8666,2.4762 -1.2555,3.7297 0.1728,0.0087 0.3474,0.0164 0.5221,0.0241 0.1158,-0.3821 0.2345,-0.7633 0.3532,-1.1435 0.4719,-0.0097 0.9428,-0.0241 1.4156,-0.0376 0.1535,0.3811 0.2123,0.8096 0.4352,1.1579 0.1573,0.0184 0.3166,0.0107 0.4777,0.0116 -0.3773,-1.2602 -0.8463,-2.4906 -1.2535,-3.7412 -0.2326,-0.0039 -0.4642,-0.0039 -0.6948,-0.001 z m 2.4974,0.964 c -0.0512,0.5732 -0.0454,1.1513 -0.0087,1.7254 0.0068,0.4873 0.4043,0.8965 0.8531,1.0326 0.6494,0.1466 1.3403,0.0579 1.9444,-0.2172 10e-4,-0.5336 0,-1.0682 10e-4,-1.6018 -0.3928,-10e-4 -0.7855,-10e-4 -1.1783,0 -9e-4,0.1428 -9e-4,0.2866 0.001,0.4313 0.2557,-10e-4 0.5124,-10e-4 0.7701,-10e-4 -0.0136,0.2809 -0.0242,0.5617 -0.0348,0.8434 -0.4352,0.138 -0.9119,0.2239 -1.3568,0.0821 -0.2431,-0.0772 -0.4458,-0.2876 -0.4583,-0.5501 -0.0541,-0.5529 -0.0483,-1.1136 0,-1.6665 0.0106,-0.2606 0.1775,-0.5124 0.44,-0.5723 0.5375,-0.1331 1.0962,-0.0521 1.6424,-0.0231 -0.0579,-0.1399 0.0338,-0.442 -0.1911,-0.4468 -0.4747,-0.0859 -0.9659,-0.0762 -1.4426,-0.0145 -0.4902,0.0608 -0.9496,0.4709 -0.9814,0.9785 z m 3.6148,-0.9766 c -0.0019,1.2536 -9e-4,2.5081 -9e-4,3.7616 0.7662,0 1.5314,9e-4 2.2976,0 -0.0019,-0.1467 -0.0019,-0.2934 -0.0019,-0.4391 -0.5877,0 -1.1744,0 -1.7611,0 -10e-4,-0.385 -10e-4,-0.7691 0,-1.1531 0.4989,-0.0136 0.9978,-0.0261 1.4976,-0.0367 0.0107,-0.1563 0.0222,-0.3107 0.0358,-0.4651 -0.5115,-0.002 -1.0229,-10e-4 -1.5334,0 -10e-4,-0.4092 0,-0.8184 -10e-4,-1.2275 0.5684,-10e-4 1.1368,0 1.7061,-10e-4 -9e-4,-0.1467 -9e-4,-0.2924 0,-0.4371 -0.7469,-0.0029 -1.4928,-0.001 -2.2388,-0.002 z m 2.9269,3.7625 c 0.1746,-0.0019 0.3512,-0.0019 0.5288,-0.0019 0.0801,-1.0103 0.1225,-2.0245 0.2325,-3.032 0.386,0.8309 0.7025,1.6907 1.0432,2.5408 0.1554,-0.0096 0.3136,-0.0193 0.4719,-0.0289 0.3551,-0.8338 0.6552,-1.6926 1.0557,-2.5061 0.1206,1.0046 0.1476,2.0178 0.2258,3.0262 0.1766,0 0.3541,10e-4 0.5336,0.0019 -0.1303,-1.2525 -0.1785,-2.5118 -0.3165,-3.7625 -0.2248,0 -0.4497,1e-4 -0.6736,10e-4 -0.3483,0.854 -0.6494,1.7293 -1.0634,2.5543 -0.3908,-0.8327 -0.6851,-1.7051 -1.0335,-2.5553 -0.2306,0 -0.4603,10e-4 -0.688,10e-4 -0.1419,1.2506 -0.1882,2.51 -0.3165,3.7615 z m 4.8963,-3.7605 c -10e-4,1.2535 0.001,2.5061 -9e-4,3.7596 0.7662,0 1.5324,0.0019 2.2995,-10e-4 -0.0029,-0.1467 -0.0038,-0.2933 -0.0038,-0.4381 -0.5868,0 -1.1735,0 -1.7602,0 0,-0.385 -9e-4,-0.77 0.0068,-1.1541 0.496,-0.0126 0.9929,-0.0251 1.4909,-0.0367 0.0096,-0.1553 0.0212,-0.3107 0.0347,-0.4641 -0.5114,-10e-4 -1.0209,-10e-4 -1.5314,-10e-4 0,-0.4082 0,-0.8164 -0.0019,-1.2246 0.5683,-0.0038 1.1377,-0.0038 1.7061,-9e-4 -10e-4,-0.1477 -10e-4,-0.2944 0,-0.4401 -0.7469,0 -1.4938,-0.0019 -2.2398,0.001 z m 3.0571,-0.0039 c -0.0039,1.2545 -0.0019,2.509 -10e-4,3.7635 0.1583,0 0.3175,0 0.4787,0 0.0038,-0.9737 -0.001,-1.9474 0.0212,-2.9201 0.579,0.9399 1.049,1.9416 1.5662,2.9172 0.193,0.001 0.3869,0.0019 0.5828,0.0038 0.001,-1.2544 0,-2.508 0.001,-3.7615 -0.1583,-9e-4 -0.3146,0 -0.4699,0.001 -0.0068,0.9486 0.0212,1.8991 -0.0425,2.8467 C 37.5386,53.426 37.0822,52.4553 36.5891,51.5067 36.3739,51.5018 36.1597,51.499 35.9464,51.497 Z m 3.2964,0.0029 c -0.0019,0.1428 -0.001,0.2876 10e-4,0.4333 0.3599,0.0116 0.7208,0.0241 1.0817,0.0347 0.0242,1.0972 0.0155,2.1944 0.0348,3.2926 0.1553,-10e-4 0.3136,-10e-4 0.4719,0 -10e-4,-1.1078 0,-2.2147 -10e-4,-3.3215 0.3715,-10e-4 0.745,-10e-4 1.1184,-10e-4 -0.0019,-0.1467 -0.0019,-0.2933 0,-0.4391 -0.9023,10e-4 -1.8045,1e-4 -2.7068,10e-4 z m -26.5922,5.7957 c -0.0077,0.2751 -0.0135,0.5945 0.1872,0.8106 0.442,0.4545 1.1174,0.5916 1.542,1.0644 0.2017,0.2229 0.0695,0.6031 -0.218,0.6717 -0.5211,0.1534 -1.0693,0.0222 -1.5923,-0.0579 -0.0096,0.1437 -0.0164,0.2875 -0.0222,0.4332 0.4854,0.1429 0.9969,0.1573 1.4996,0.1419 0.2934,-10e-4 0.6118,-0.1004 0.7797,-0.358 0.1805,-0.3098 0.1766,-0.7131 0.0464,-1.0393 -0.3928,-0.6659 -1.3124,-0.7373 -1.7303,-1.3771 -0.0743,-0.2595 0.139,-0.55 0.4053,-0.5741 0.4352,-0.056 0.8733,0.0125 1.3105,0.0212 -0.0348,-0.1505 -0.0261,-0.3155 -0.1042,-0.4506 -0.4285,-0.0917 -0.8743,-0.0821 -1.3086,-0.0541 -0.4043,0.0058 -0.798,0.3522 -0.7951,0.7681 z M 15.285,56.542 c 0.4285,0.8125 0.8753,1.6163 1.2931,2.4356 0.111,0.4401 0.0618,0.9061 0.1032,1.3578 0.1573,-0.002 0.3156,-0.002 0.4748,-0.0029 0.0386,-0.4536 -0.0087,-0.9235 0.1129,-1.3655 0.4092,-0.8135 0.8511,-1.6115 1.2777,-2.4163 -0.1979,0 -0.3957,0 -0.5925,0 -0.3349,0.6697 -0.6591,1.3452 -1.0162,2.0033 -0.3821,-0.635 -0.6851,-1.3124 -1.0151,-1.9744 -0.2133,-0.0135 -0.4266,-0.026 -0.6379,-0.0376 z m 3.7162,0.4053 c -0.1448,0.3686 -0.1544,0.8424 0.1225,1.1531 0.4208,0.4739 1.0924,0.609 1.5334,1.0548 0.0666,0.2123 0.0994,0.5462 -0.1515,0.6523 -0.5414,0.2499 -1.1464,0.0483 -1.7013,-0.0424 0.0415,0.1852 -0.0328,0.5249 0.2509,0.5317 0.5404,0.0569 1.0962,0.0675 1.6357,-0.0049 0.6079,-0.1592 0.6967,-0.9939 0.3908,-1.4532 -0.4034,-0.497 -1.0818,-0.6292 -1.5411,-1.0557 -0.2576,-0.2529 -0.0646,-0.746 0.2828,-0.7836 0.44,-0.056 0.8839,0.0067 1.3191,0.0791 -0.0135,-0.1631 -0.027,-0.3261 -0.0415,-0.4873 -0.4864,-0.0888 -0.9872,-0.1148 -1.4774,-0.0434 -0.2451,0.0434 -0.524,0.1505 -0.6224,0.3995 z m 2.6846,-0.3609 c 0.0106,0.1148 0.0154,0.2316 0.0453,0.3445 0.331,0.0656 0.6717,0.0588 1.0084,0.083 0.0203,1.1058 0.0396,2.2127 0.0589,3.3205 0.1573,-0.001 0.3165,-0.0019 0.4767,-0.001 0.0058,-1.1155 0.027,-2.2301 0.0261,-3.3446 0.3628,-0.0126 0.7276,-0.0251 1.0923,-0.0357 -9e-4,-0.1264 0,-0.2519 0.002,-0.3764 -0.9033,0.0039 -1.8075,-0.0559 -2.7097,0.0097 z m 3.3128,-0.0328 c 0.0058,1.2718 0.001,2.5427 0.0029,3.8146 0.7575,-0.0145 1.516,-0.0116 2.2735,-0.0377 -0.0019,-0.1447 -0.0039,-0.2895 -0.0039,-0.4323 -0.5867,-0.0183 -1.1734,-0.0376 -1.7591,-0.0598 0,-0.3686 0,-0.7363 0,-1.103 0.5114,-0.0203 1.0238,-0.0415 1.5362,-0.0598 -9e-4,-0.137 -0.0019,-0.2741 -0.0019,-0.4101 -0.5028,-0.0956 -1.0432,0.0579 -1.5247,-0.1091 -0.0917,-0.3734 -0.0174,-0.7614 0.0106,-1.1377 0.5684,-0.0376 1.1387,-0.0261 1.7081,-0.0396 -0.001,-0.1428 -0.001,-0.2856 9e-4,-0.4275 -0.7478,0 -1.4957,-0.0058 -2.2426,0.002 z m 3.2462,0.0067 c -0.1534,1.2584 -0.2325,2.5264 -0.2943,3.7924 0.1486,0.0039 0.2991,0.0068 0.4507,0.0068 0.1862,-1.019 0.1543,-2.0632 0.2865,-3.0889 0.305,0.6928 0.5704,1.4031 0.857,2.1036 0.0723,0.167 0.1418,0.3416 0.2615,0.4835 0.1669,0.0598 0.3551,0 0.4159,-0.1766 0.3956,-0.7894 0.6465,-1.6434 1.0538,-2.4279 0.0752,1.0345 0.1158,2.0728 0.2422,3.1034 0.1495,0 0.3001,0 0.4516,-0.0029 -0.028,-1.0518 -0.1467,-2.0979 -0.2104,-3.1468 -0.0183,-0.2143 -0.0222,-0.4323 -0.081,-0.6389 -0.2172,-0.026 -0.4343,-0.0193 -0.6504,-0.0212 -0.3532,0.8743 -0.6726,1.7631 -1.077,2.6161 -0.3638,-0.8627 -0.6899,-1.7399 -1.0277,-2.6122 -0.2268,-10e-4 -0.4526,0.0019 -0.6784,0.0096 z m 4.7256,1.5807 c 0.3686,0.3657 0.8704,0.5433 1.296,0.8308 0.1717,0.0878 0.2885,0.248 0.2595,0.4516 0.0512,0.2973 -0.2518,0.471 -0.5066,0.4883 -0.4699,0.029 -0.9389,-0.0463 -1.3954,-0.1476 0.0222,0.1592 0.0367,0.3223 0.0801,0.4796 0.4574,0.1361 0.9467,0.109 1.4195,0.1081 0.3716,0 0.8048,-0.1863 0.8975,-0.5781 0.0376,-0.3531 0.0627,-0.7806 -0.2133,-1.0489 -0.412,-0.3908 -0.9891,-0.5365 -1.4176,-0.9032 -0.2856,-0.2374 -0.1447,-0.7817 0.2365,-0.8203 0.4487,-0.0386 0.8993,0.0241 1.35,0.0299 -0.0598,-0.1515 0.0309,-0.44 -0.192,-0.4641 -0.4767,-0.0637 -0.9679,-0.0898 -1.4437,-0.0135 -0.6803,0.1495 -0.8356,1.1348 -0.3705,1.5874 z"
       fill="#0f4c81"
       id="path2" />
    <path
       d="M 18.2373,9.81725 C 18.218,8.94104 18.881,8.11211 19.736,7.93359 c 0.4381,-0.08685 0.8733,0.06079 1.2757,0.22195 0.6301,0.24703 1.2892,0.41494 1.9589,0.5153 0.0145,0.70541 0.0116,1.41086 0.0348,2.11526 -0.0049,0.5008 0.4583,0.8289 0.5577,1.3056 -0.5896,-0.0907 -1.0248,-0.5133 -1.4726,-0.8665 -0.0395,0.7623 -0.0337,1.5275 0.0136,2.2899 0.4014,-0.4121 0.8713,-0.7836 1.4532,-0.8878 -0.1273,0.5365 -0.4979,1.0354 -1.0364,1.2062 -0.5867,0.2114 -1.2853,-0.0202 -1.6337,-0.5346 -0.1997,-0.2499 -0.1409,-0.5857 -0.1351,-0.881 0.1168,-0.0396 0.2345,-0.0791 0.3532,-0.1177 0.0897,0.1804 0.1631,0.3667 0.2335,0.5558 0.1988,-0.1882 0.3986,-0.4275 0.3561,-0.7228 -0.0811,-0.2875 -0.3985,-0.5288 -0.7015,-0.4361 -0.1429,0.0521 -0.2645,0.1447 -0.3909,0.2248 -0.083,-0.5211 -0.2094,-1.1541 -0.7613,-1.3732 -0.2866,0.4748 -0.2172,1.0615 -0.0493,1.5652 -0.2238,0.0068 -0.5046,-0.1177 -0.6774,0.0763 -0.2576,0.1949 -0.3136,0.5973 -0.0955,0.8424 0.1206,0.1795 0.3512,0.1911 0.5404,0.2499 -0.0338,-0.165 -0.2239,-0.3676 -0.0627,-0.5211 0.108,-0.165 0.3628,-0.1688 0.4554,0.0164 0.2278,0.4015 0.1457,0.9264 -0.1071,1.2979 -0.2248,0.3397 -0.6079,0.5144 -0.9708,0.6659 -0.2808,-0.6861 -0.5423,-1.379 -0.7961,-2.0747 0.2345,-0.2615 0.4787,-0.552 0.5047,-0.9197 0.0927,-0.6735 -0.3763,-1.2612 -0.3455,-1.92995 z"
       fill="#0f4c81"
       id="path3" />
    <path
       d="m 26.4559,8.24314 c 0.3908,-0.13317 0.7749,-0.31941 1.1927,-0.33774 0.4941,0.01833 0.991,0.21808 1.3191,0.59539 0.5009,0.52013 0.6167,1.31818 0.4111,1.99371 -0.1331,0.4361 -0.3233,0.8858 -0.2268,1.35 0.0473,0.33 0.278,0.5828 0.4941,0.8183 -0.2547,0.6958 -0.5211,1.3877 -0.8048,2.0728 -0.7787,-0.192 -1.4658,-1.0374 -1.1396,-1.8489 0.0801,-0.3165 0.5211,-0.3156 0.5944,0.0077 -0.0347,0.0975 -0.1032,0.2934 -0.137,0.3908 0.1959,-0.0608 0.441,-0.082 0.5606,-0.2769 0.1863,-0.2365 0.139,-0.5954 -0.0839,-0.7904 -0.1621,-0.2065 -0.4439,-0.109 -0.6639,-0.1235 0.0405,-0.5134 0.2489,-1.1117 -0.1235,-1.5517 -0.5211,0.2557 -0.6524,0.8627 -0.7344,1.3838 -0.1583,-0.11 -0.3127,-0.2692 -0.5221,-0.248 -0.3348,-0.0067 -0.6098,0.3252 -0.5568,0.6523 0.0058,0.2297 0.2085,0.3687 0.3561,0.5163 0.0724,-0.1862 0.0801,-0.4429 0.2914,-0.5346 0.3957,0.029 0.3513,0.5124 0.248,0.7826 -0.273,0.6996 -1.1782,0.9814 -1.846,0.7131 -0.4777,-0.2132 -0.7903,-0.6841 -0.9244,-1.1772 0.5886,0.0974 1.0576,0.4786 1.4648,0.8887 0.0512,-0.7749 0.0396,-1.5527 0,-2.3285 -0.4207,0.3908 -0.8723,0.7874 -1.4523,0.908 0.0666,-0.3281 0.2258,-0.6243 0.4478,-0.8723 0.1708,-0.1641 0.1418,-0.4159 0.1592,-0.6321 0.0116,-0.63977 0.0116,-1.27955 0.026,-1.91934 0.5588,-0.10808 1.1175,-0.22967 1.6502,-0.43232 z"
       fill="#0f4c81"
       id="path4" />
    <path
       d="m 22.7697,18.1855 c 2.0101,-0.1959 4.0925,0.1824 5.8662,1.1648 3.114,1.6791 5.2273,4.9967 5.5467,8.5064 0.0811,1.599 0.0348,3.2443 -0.5433,4.7583 -0.9688,2.9529 -3.2964,5.4242 -6.1971,6.5485 -2.0072,0.8009 -4.2759,0.8926 -6.3458,0.2779 -2.6527,-0.7556 -4.9272,-2.6509 -6.2358,-5.0682 -0.5384,-0.9746 -0.9215,-2.0322 -1.1589,-3.1178 -0.1978,-0.8579 -0.1853,-1.7438 -0.1882,-2.6181 -0.0318,-1.4561 0.3629,-2.8901 0.9293,-4.2208 0.7199,-1.6569 1.8943,-3.0967 3.3118,-4.2074 1.4446,-1.1184 3.2086,-1.792 5.0151,-2.0236 z m 5.0353,6.6594 c -2.5755,1.7843 -4.8693,3.969 -6.8041,6.4327 -1.3047,-1.0258 -2.6759,-1.986 -4.1881,-2.6837 -0.0801,1.1223 -0.0077,2.2484 -0.0154,3.3727 0.606,0.4825 1.2188,0.9582 1.7862,1.4851 1.0846,0.9688 2.0072,2.0969 2.8969,3.2423 0.8193,-1.5024 1.7032,-2.975 2.7386,-4.3395 1.7717,-2.3633 3.8754,-4.4737 6.2281,-6.258 0.0251,-0.9592 0.0521,-1.9184 0.0386,-2.8785 -0.9332,0.4738 -1.82,1.0344 -2.6808,1.6269 z"
       fill="#0f4c81"
       id="path5" />
    <path
       d="m 28.4418,44.3088 c 0.139,0.1612 0.2499,0.3455 0.3204,0.5472 0.2673,0.719 0.5375,1.4371 0.7557,2.1734 -0.7036,0.0589 -1.412,0.0705 -2.1136,10e-4 0.1901,-0.6389 0.4459,-1.2556 0.6611,-1.8858 0.0975,-0.2905 0.2142,-0.5752 0.3764,-0.8358 z"
       fill="#0f4c81"
       id="path6" />
    <path
       d="m 12.1745,52.0413 c 0.2046,0.5037 0.3783,1.0189 0.5249,1.5428 -0.3435,0.0135 -0.686,0.0154 -1.0295,0.0096 0.1399,-0.5258 0.3049,-1.0458 0.5046,-1.5524 z"
       fill="#0f4c81"
       id="path7" />
    <path
       d="m 19.2944,52.045 c 0.2007,0.4978 0.3609,1.0111 0.5297,1.5215 -0.3502,0.0319 -0.7024,0.0299 -1.0526,0.0039 0.1601,-0.5133 0.3242,-1.0256 0.5229,-1.5254 z"
       fill="#0f4c81"
       id="path8" />
  </g>
  <defs
     id="defs8">
    <clipPath
       id="clip0_4402_393">
      <rect
         width="48"
         height="64"
         fill="#ffffff"
         id="rect8"
         x="0"
         y="0" />
    </clipPath>
  </defs>
</svg>
