<svg width="48" height="64" viewBox="0 0 48 64" fill="none" xmlns="http://www.w3.org/2000/svg">
<g clip-path="url(#clip0_4402_393)">
<path d="M47.7195 0H0V63.6259H47.7195V0Z" fill="white"/>
<path d="M1.59662 1.59064C16.4401 1.59546 31.2836 1.61669 46.1271 1.61766C46.1261 7.11231 46.1251 12.6079 46.128 18.1035C44.9787 18.1026 43.8294 18.1209 42.6811 18.1296C42.682 18.3361 42.684 18.5436 42.6878 18.752C43.8342 18.7684 44.9816 18.7646 46.128 18.7877C46.1261 19.2567 46.1261 19.7257 46.1271 20.1947C45.5374 20.1947 44.9469 20.1937 44.3573 20.1956C44.3563 20.4215 44.3573 20.6482 44.3573 20.875C44.9469 20.8721 45.5355 20.874 46.1261 20.8731C46.1271 21.3536 46.1261 21.8332 46.1271 22.3128C45.5374 22.3022 44.9478 22.2916 44.3582 22.2752C44.3573 22.5049 44.3563 22.7355 44.3573 22.9652C44.9469 22.9671 45.5365 22.9661 46.1271 22.9661C46.1261 23.4583 46.1261 23.9495 46.1261 24.4416C45.5365 24.4406 44.9469 24.4416 44.3582 24.4406C44.3563 24.6674 44.3563 24.8942 44.3573 25.121C44.9459 25.119 45.5355 25.121 46.1251 25.12C46.1271 25.5909 46.1261 26.0618 46.1251 26.5327C45.5355 26.5308 44.9469 26.5318 44.3582 26.5318C44.3563 26.7585 44.3563 26.9853 44.3563 27.213C44.9469 27.2111 45.5365 27.2121 46.128 27.2121C46.1261 27.682 46.1261 28.152 46.1261 28.6219C44.9391 28.6219 43.7512 28.6393 42.5643 28.647C42.5508 28.8641 42.5382 29.0822 42.5267 29.2994C43.7155 29.3109 44.9044 29.3167 46.0933 29.3322C46.1049 29.8108 46.1155 30.2885 46.13 30.7671C45.5384 30.77 44.9478 30.7681 44.3573 30.769C44.3563 30.9977 44.3563 31.2274 44.3582 31.4571C44.9478 31.459 45.5374 31.458 46.1271 31.459C46.1261 31.928 46.1261 32.3979 46.1271 32.8679C45.5365 32.8689 44.9469 32.8689 44.3573 32.8679C44.3563 33.0947 44.3563 33.3205 44.3582 33.5482C44.9469 33.5492 45.5365 33.5492 46.1271 33.5482C46.1261 34.0182 46.1261 34.4881 46.1261 34.959C45.5355 34.959 44.9459 34.9581 44.3563 34.96C44.3563 35.1858 44.3573 35.4126 44.3592 35.6393C44.9478 35.6384 45.5374 35.6393 46.1271 35.6393C46.1261 36.1276 46.1261 36.6159 46.1271 37.1052C45.5365 37.1052 44.9469 37.1052 44.3573 37.1061C44.3563 37.3348 44.3563 37.5645 44.3573 37.7942C44.9459 37.7951 45.5345 37.7961 46.1242 37.7932C46.1271 38.2612 46.1261 38.7292 46.1271 39.1973C44.9276 39.1953 43.7291 39.1973 42.5305 39.1963C42.5305 39.426 42.5305 39.6547 42.5315 39.8843C43.7291 39.8843 44.9276 39.8853 46.1261 39.8843C46.128 47.2626 46.1261 54.64 46.1261 62.0183C31.2826 62.0173 16.4401 62.0193 1.59662 62.0173C1.59952 54.6371 1.5889 47.2578 1.60144 39.8776C2.74689 39.8766 3.89136 39.8631 5.03681 39.8515C5.03681 39.644 5.03681 39.4366 5.03681 39.2301C3.89136 39.2185 2.74496 39.2059 1.59855 39.203C1.59469 38.7331 1.59566 38.2622 1.59662 37.7932C2.18623 37.7961 2.77584 37.7942 3.36545 37.7951C3.36448 37.5645 3.36448 37.3348 3.36545 37.1052C2.77584 37.1052 2.18623 37.1052 1.59662 37.1052C1.59566 36.6159 1.59662 36.1276 1.59565 35.6393C2.18526 35.6393 2.77584 35.6393 3.36545 35.6393C3.36448 35.4116 3.36448 35.1848 3.36545 34.9581C2.77584 34.96 2.18623 34.9581 1.59662 34.96C1.59566 34.4881 1.59566 34.0172 1.59662 33.5463C2.18623 33.5501 2.77584 33.5482 3.36641 33.5482C3.36448 33.3214 3.36448 33.0947 3.36352 32.8679C2.77391 32.8689 2.18526 32.8679 1.59662 32.8679C1.59566 32.3979 1.59566 31.927 1.59662 31.4571C2.18623 31.459 2.77584 31.458 3.36545 31.458C3.36448 31.2284 3.36448 30.9977 3.36545 30.769C2.77391 30.769 2.18237 30.7681 1.5918 30.769C1.60145 30.2904 1.61592 29.8118 1.6275 29.3341C2.8154 29.3158 4.00427 29.309 5.19217 29.3023C5.17963 29.0832 5.16805 28.8651 5.15647 28.647C3.96953 28.6403 2.78356 28.621 1.59662 28.6229C1.59566 28.152 1.59566 27.6811 1.59662 27.2111C2.18623 27.213 2.77584 27.2121 3.36545 27.2121C3.36448 26.9853 3.36448 26.7585 3.36641 26.5318C2.77584 26.5318 2.18623 26.5318 1.59662 26.5318C1.59566 26.0608 1.59662 25.5909 1.59469 25.12C2.18526 25.12 2.77584 25.12 3.36641 25.12C3.36448 24.8932 3.36448 24.6674 3.36448 24.4416C2.77487 24.4406 2.18526 24.4406 1.59662 24.4416C1.59566 23.9495 1.59566 23.4573 1.59662 22.9652C2.18623 22.9671 2.77487 22.9661 3.36448 22.9661C3.36448 22.7394 3.36544 22.5135 3.36641 22.2868C2.7768 22.2848 2.18623 22.2858 1.59662 22.2858C1.59566 21.8159 1.59566 21.3459 1.59662 20.875C2.18623 20.8721 2.77584 20.874 3.36641 20.8731C3.36448 20.6473 3.36448 20.4205 3.36545 20.1947C2.77584 20.1947 2.18623 20.1947 1.59759 20.1956C1.59566 19.7247 1.59566 19.2538 1.59759 18.7829C2.79224 18.7848 3.98786 18.7839 5.18349 18.7829C5.18252 18.5561 5.18252 18.3294 5.18252 18.1026C3.9869 18.1035 2.79224 18.1035 1.59759 18.1035C1.59469 12.5992 1.59662 7.09494 1.59662 1.59064ZM23.306 2.83933C23.4575 3.14331 23.5945 3.45789 23.6602 3.79371C23.3436 3.72519 23.0551 3.57562 22.7733 3.42315C22.7733 3.80529 22.7733 4.18646 22.7733 4.5686C23.0599 4.42095 23.3523 4.27813 23.663 4.1855C23.637 5.01925 22.6575 5.48051 22.7762 6.34032C22.7897 6.73596 23.0783 7.02835 23.3591 7.27057C23.1873 7.47997 23.0416 7.70867 22.9422 7.96053C22.3265 7.86018 21.7263 7.68262 21.1531 7.43655C20.8279 7.29083 20.4738 7.22811 20.1186 7.23776C18.62 7.11327 17.3761 8.66787 17.5614 10.1028C17.5904 10.6413 17.9252 11.1141 17.9233 11.6545C17.9107 12.0502 17.4263 12.1216 17.2652 12.4033C17.7534 13.8007 18.3122 15.1748 18.8439 16.5567C20.0656 16.1099 21.3143 15.6882 22.6228 15.6071C24.297 15.4778 26.0138 15.5801 27.6147 16.1176C28.0219 16.245 28.4079 16.436 28.8248 16.5354C29.0187 16.3386 29.0641 16.0365 29.1789 15.7885C29.6141 14.6354 30.0706 13.489 30.4768 12.3242C30.1893 12.137 29.7927 11.9459 29.7878 11.5493C29.8467 11.0533 30.1208 10.6075 30.1555 10.1038C30.2954 8.99404 29.6334 7.8486 28.6086 7.40567C27.9534 7.11906 27.192 7.19144 26.5416 7.45585C25.9732 7.68455 25.3846 7.86886 24.7766 7.95571C24.6744 7.71253 24.5354 7.48769 24.3723 7.28022C24.8278 6.9251 25.1192 6.30558 24.8606 5.74395C24.5885 5.22768 24.1166 4.80405 24.0423 4.19515C24.3627 4.27041 24.6599 4.41613 24.9494 4.5686C24.9484 4.18646 24.9484 3.80336 24.9494 3.42122C24.6647 3.58141 24.3685 3.72713 24.0452 3.78888C24.1272 3.45789 24.2642 3.14427 24.4138 2.83933C24.0442 2.8403 23.6746 2.8403 23.306 2.83933ZM19.8571 6.17337C19.6101 6.36734 19.6815 6.88843 20.0357 6.90677C20.3502 6.96177 20.6446 6.5642 20.44 6.294C20.3348 6.08363 20.0395 6.05179 19.8571 6.17337ZM27.3879 6.17144C27.1737 6.32198 27.1496 6.65587 27.3696 6.81316C27.5944 7.03511 28.02 6.8701 28.0026 6.54393C28.0798 6.20136 27.6494 5.97941 27.3879 6.17144ZM18.787 6.35383C18.5447 6.51981 18.5544 6.92317 18.8005 7.0795C19.0234 7.22618 19.3351 7.05441 19.4017 6.81413C19.53 6.48121 19.0581 6.16469 18.787 6.35383ZM21.0141 6.35769C20.7825 6.49182 20.6774 6.81027 20.909 6.99844C21.0981 7.31785 21.6404 7.06792 21.5989 6.7321C21.6153 6.44454 21.2708 6.16565 21.0141 6.35769ZM26.3158 6.35093C26.0167 6.51595 26.0746 7.01292 26.3988 7.11327C26.6536 7.23872 26.9054 6.97528 26.9469 6.73596C26.9334 6.45226 26.5802 6.17627 26.3158 6.35093ZM28.4581 6.37699C28.2699 6.56902 28.24 6.8894 28.488 7.04669C28.6974 7.29276 29.012 7.05634 29.0998 6.81992C29.259 6.47445 28.7186 6.09618 28.4581 6.37699ZM21.9888 6.77263C21.7639 6.94923 21.8103 7.35452 22.0641 7.48287C22.3449 7.64305 22.7328 7.33426 22.6363 7.0216C22.5842 6.74175 22.2136 6.57578 21.9888 6.77263ZM25.264 6.74561C24.9368 6.92221 25.0488 7.50024 25.4261 7.52533C25.6992 7.57261 25.9221 7.29469 25.869 7.03608C25.8381 6.76491 25.4946 6.59218 25.264 6.74561ZM17.9339 6.86045C17.6087 6.95405 17.5315 7.49059 17.8403 7.65077C18.0555 7.77719 18.3624 7.66139 18.4154 7.40856C18.5264 7.11713 18.2466 6.75719 17.9339 6.86045ZM29.4144 6.95309C29.2002 7.15863 29.261 7.6141 29.5765 7.68744C29.8602 7.79166 30.113 7.47804 30.0648 7.20977C30.0696 6.89133 29.6296 6.76009 29.4144 6.95309ZM17.0596 7.82833C16.8907 8.01071 16.9004 8.32723 17.0577 8.51348C17.3173 8.66594 17.739 8.52312 17.711 8.17862C17.766 7.8264 17.3173 7.65753 17.0596 7.82833ZM30.1748 7.81386C29.9625 7.95764 29.948 8.32048 30.1352 8.48935C30.3437 8.6148 30.692 8.60901 30.7712 8.33109C30.9622 7.9837 30.4846 7.60735 30.1748 7.81386ZM16.7711 8.87921C16.4739 9.01334 16.4546 9.47557 16.7441 9.629C17.0201 9.79691 17.3404 9.51803 17.3684 9.23722C17.3163 8.99501 17.023 8.68235 16.7711 8.87921ZM30.5753 8.90333C30.3263 9.0529 30.3099 9.45627 30.5743 9.60005C30.802 9.78051 31.1562 9.60488 31.1803 9.32407C31.243 9.01334 30.8455 8.66594 30.5753 8.90333ZM16.773 10.0304C16.5221 10.1646 16.443 10.5544 16.6756 10.7436C16.8879 10.9645 17.2951 10.786 17.3231 10.4946C17.3887 10.2041 17.0577 9.8442 16.773 10.0304ZM30.5733 10.0546C30.2568 10.2437 30.3881 10.7947 30.7461 10.843C31.0259 10.8883 31.2411 10.5689 31.1774 10.3122C31.1417 10.0411 30.7943 9.88762 30.5733 10.0546ZM17.1552 11.1083C16.8164 11.2164 16.7807 11.8157 17.1494 11.9102C17.353 11.999 17.6145 11.8726 17.655 11.6487C17.7496 11.3563 17.4707 10.9935 17.1552 11.1083ZM30.2945 11.1267C30.0001 11.2415 29.9577 11.6999 30.2182 11.8736C30.4276 12.0386 30.7634 11.9102 30.8175 11.6516C30.9323 11.3457 30.61 10.9752 30.2945 11.1267ZM22.4887 16.9378C20.4882 17.1743 18.565 17.9829 16.9766 19.2162C14.512 21.1211 12.8638 24.0131 12.4074 27.0876C11.9124 30.2566 12.6689 33.6148 14.5497 36.2222C16.4256 38.8856 19.4605 40.7306 22.7125 41.0558C25.0131 41.3058 27.3763 40.7818 29.3854 39.6431C31.74 38.3162 33.5899 36.1469 34.579 33.6379C35.848 30.4766 35.7331 26.802 34.304 23.714C33.0273 20.9068 30.6283 18.6131 27.7257 17.5477C26.062 16.9079 24.2507 16.7757 22.4887 16.9378ZM12.2955 43.1527C12.2868 44.3947 12.3061 45.6366 12.2839 46.8776C12.2598 47.2848 12.2791 47.7229 12.0735 48.0906C11.8728 48.4631 11.4414 48.6242 11.0419 48.6609C10.5633 48.7043 10.0046 48.6358 9.68227 48.2392C9.39181 47.9217 9.41497 47.4634 9.38892 47.0639C9.35707 45.7659 9.35417 44.468 9.33101 43.1701C8.79834 43.1585 8.26566 43.1421 7.73395 43.1701C7.6722 44.5665 7.71176 45.9647 7.75905 47.3601C7.77931 48.1726 8.1103 49.045 8.84369 49.4676C9.59349 49.9222 10.5025 49.8556 11.343 49.8295C11.9905 49.8121 12.6699 49.6269 13.1389 49.1569C13.6271 48.6609 13.8057 47.941 13.8163 47.2626C13.8443 45.8924 13.8356 44.5221 13.8346 43.1518C13.3213 43.1528 12.8079 43.1518 12.2955 43.1527ZM16.7084 43.1373C16.7093 45.3529 16.7084 47.5685 16.7093 49.7842C17.242 49.7842 17.7737 49.7842 18.3064 49.7842C18.3074 48.851 18.3209 47.9188 18.3315 46.9867C18.5341 46.9741 18.7368 46.9616 18.9404 46.95C19.6911 47.8841 20.4072 48.8462 21.1492 49.788C21.8624 49.7716 22.5765 49.8073 23.2896 49.76C22.4848 48.7121 21.5951 47.7336 20.7768 46.6972C20.6918 46.5543 20.4844 46.3922 20.632 46.2224C21.3451 45.186 22.1885 44.2432 22.8911 43.1971C22.2879 43.1306 21.681 43.1441 21.0769 43.1306C20.3975 43.9904 19.7751 44.8965 19.0668 45.7322C18.895 45.9734 18.5804 45.8779 18.3315 45.8827C18.3209 44.9679 18.3083 44.0521 18.3064 43.1373C17.7737 43.1383 17.241 43.1383 16.7084 43.1373ZM27.3561 43.2039C27.0048 43.9373 26.7472 44.7151 26.4297 45.4639C25.869 46.8911 25.2804 48.3077 24.7583 49.7494C25.3016 49.7986 25.8478 49.7822 26.394 49.7842C26.5571 49.3605 26.6748 48.9195 26.8639 48.5075C26.9778 48.244 27.3059 48.2575 27.5462 48.2479C28.3539 48.2566 29.1645 48.2199 29.9702 48.2981C30.2047 48.7748 30.3572 49.2853 30.5386 49.7842C31.1099 49.7832 31.6811 49.7928 32.2524 49.7639C31.4032 47.5541 30.5318 45.352 29.619 43.1692C28.8663 43.1363 28.102 43.1016 27.3561 43.2039ZM34.5983 43.8861C34.1409 44.4024 34.1023 45.1744 34.3127 45.8055C34.4873 46.315 34.9602 46.647 35.4494 46.8226C36.2484 47.1382 37.1314 47.1102 37.9381 47.3958C38.2537 47.4856 38.4409 47.8667 38.2894 48.1659C38.1118 48.5335 37.6564 48.6011 37.2926 48.631C36.2417 48.6918 35.1966 48.4862 34.1834 48.2305C34.1824 48.6648 34.1834 49.1 34.1805 49.5342C35.1889 49.8305 36.2523 49.8546 37.2964 49.844C38.1196 49.8324 39.0353 49.6539 39.6008 49.0025C40.257 48.1736 40.1219 46.7039 39.127 46.1944C38.2141 45.7679 37.1768 45.7708 36.2253 45.4707C35.957 45.4079 35.7756 45.1126 35.8586 44.8473C35.9252 44.5848 36.1905 44.4478 36.4376 44.4014C37.5126 44.194 38.6001 44.4362 39.6568 44.6359C39.6558 44.2393 39.6568 43.8427 39.6558 43.4471C39.1743 43.2907 38.6725 43.2116 38.1707 43.1624C37.4981 43.0987 36.8139 43.0331 36.1462 43.1672C35.5797 43.257 34.9882 43.4413 34.5983 43.8861ZM5.99987 55.2614C6.1726 55.2605 6.34726 55.2595 6.52193 55.2595C6.61553 54.2511 6.64642 53.2388 6.76125 52.2333C7.14049 53.0555 7.45411 53.9056 7.80151 54.7404C7.9588 54.75 8.11706 54.7587 8.27628 54.7674C8.62561 53.8989 8.97686 53.0314 9.33101 52.1648C9.44006 53.1954 9.48155 54.2318 9.552 55.2663C9.72184 55.2586 9.89264 55.2518 10.0644 55.2412C9.993 54.0002 9.90808 52.7583 9.76816 51.5231C9.54331 51.5096 9.31944 51.4999 9.09556 51.4932C8.75202 52.351 8.4355 53.2205 8.04275 54.0581C7.65965 53.235 7.35857 52.3781 7.02179 51.5356C6.78054 51.5221 6.54026 51.5105 6.29998 51.5028C6.20541 52.7563 6.11856 54.0099 5.99987 55.2614ZM11.8342 51.5086C11.426 52.7573 10.9696 53.9896 10.5807 55.245C10.7505 55.2489 10.9213 55.2518 11.0931 55.2537C11.2272 54.8677 11.3478 54.4769 11.4839 54.0919C11.9481 54.0948 12.4113 54.0938 12.8754 54.0938C13.0076 54.4769 13.1408 54.861 13.2605 55.2499C13.4342 55.2518 13.6069 55.2508 13.7825 55.2499C13.4081 53.9925 12.9343 52.7669 12.5377 51.5173C12.3022 51.5115 12.0677 51.5096 11.8342 51.5086ZM14.4175 51.497C14.4184 52.7515 14.4184 54.006 14.4175 55.2605C14.5738 55.2595 14.7301 55.2605 14.8884 55.2605C14.8923 54.2897 14.871 53.3189 14.926 52.3491C15.4799 53.2871 15.9547 54.2694 16.47 55.2296C16.6688 55.2412 16.8676 55.2528 17.0683 55.2672C17.0664 54.0118 17.0693 52.7563 17.0673 51.5009C16.8879 51.4999 16.7103 51.4999 16.5327 51.4999C16.5212 52.4321 16.5646 53.3672 16.4999 54.2984C15.9866 53.3865 15.533 52.4437 15.0602 51.5115C14.845 51.5038 14.6307 51.499 14.4175 51.497ZM18.9539 51.5115C18.5418 52.7573 18.0873 53.9877 17.6984 55.2412C17.8712 55.2499 18.0458 55.2576 18.2205 55.2653C18.3363 54.8832 18.455 54.502 18.5737 54.1218C19.0456 54.1121 19.5165 54.0977 19.9893 54.0842C20.1428 54.4653 20.2016 54.8938 20.4245 55.2421C20.5818 55.2605 20.7411 55.2528 20.9022 55.2537C20.5249 53.9935 20.0559 52.7631 19.6487 51.5125C19.4161 51.5086 19.1845 51.5086 18.9539 51.5115ZM21.4513 52.4755C21.4001 53.0487 21.4059 53.6268 21.4426 54.2009C21.4494 54.6882 21.8469 55.0974 22.2957 55.2335C22.9451 55.3801 23.636 55.2914 24.2401 55.0163C24.2411 54.4827 24.2401 53.9481 24.2411 53.4145C23.8483 53.4135 23.4556 53.4135 23.0628 53.4145C23.0619 53.5573 23.0619 53.7011 23.0638 53.8458C23.3195 53.8448 23.5762 53.8448 23.8339 53.8448C23.8203 54.1257 23.8097 54.4065 23.7991 54.6882C23.3639 54.8262 22.8872 54.9121 22.4423 54.7703C22.1992 54.6931 21.9965 54.4827 21.984 54.2202C21.9299 53.6673 21.9357 53.1066 21.984 52.5537C21.9946 52.2931 22.1615 52.0413 22.424 51.9814C22.9615 51.8483 23.5202 51.9293 24.0664 51.9583C24.0085 51.8184 24.1002 51.5163 23.8753 51.5115C23.4006 51.4256 22.9094 51.4353 22.4327 51.497C21.9425 51.5578 21.4831 51.9679 21.4513 52.4755ZM25.0661 51.4989C25.0642 52.7525 25.0652 54.007 25.0652 55.2605C25.8314 55.2605 26.5966 55.2614 27.3628 55.2605C27.3609 55.1138 27.3609 54.9671 27.3609 54.8214C26.7732 54.8214 26.1865 54.8214 25.5998 54.8214C25.5988 54.4364 25.5988 54.0523 25.5998 53.6683C26.0987 53.6547 26.5976 53.6422 27.0974 53.6316C27.1081 53.4753 27.1196 53.3209 27.1332 53.1665C26.6217 53.1645 26.1103 53.1655 25.5998 53.1665C25.5988 52.7573 25.5998 52.3481 25.5988 51.939C26.1672 51.938 26.7356 51.939 27.3049 51.938C27.304 51.7913 27.304 51.6456 27.3049 51.5009C26.558 51.498 25.8121 51.4999 25.0661 51.4989ZM27.993 55.2614C28.1676 55.2595 28.3442 55.2595 28.5218 55.2595C28.6019 54.2492 28.6443 53.235 28.7543 52.2275C29.1403 53.0584 29.4568 53.9182 29.7975 54.7683C29.9529 54.7587 30.1111 54.749 30.2694 54.7394C30.6245 53.9056 30.9246 53.0468 31.3251 52.2333C31.4457 53.2379 31.4727 54.2511 31.5509 55.2595C31.7275 55.2595 31.905 55.2605 32.0845 55.2614C31.9542 54.0089 31.906 52.7496 31.768 51.4989C31.5432 51.4989 31.3183 51.499 31.0944 51.4999C30.7461 52.3539 30.445 53.2292 30.031 54.0542C29.6402 53.2215 29.3459 52.3491 28.9975 51.4989C28.7669 51.4989 28.5372 51.4999 28.3095 51.4999C28.1676 52.7505 28.1213 54.0099 27.993 55.2614ZM32.8893 51.5009C32.8883 52.7544 32.8903 54.007 32.8884 55.2605C33.6546 55.2605 34.4208 55.2624 35.1879 55.2595C35.185 55.1128 35.1841 54.9662 35.1841 54.8214C34.5973 54.8214 34.0106 54.8214 33.4239 54.8214C33.4239 54.4364 33.423 54.0514 33.4307 53.6673C33.9267 53.6547 34.4236 53.6422 34.9216 53.6306C34.9312 53.4753 34.9428 53.3199 34.9563 53.1665C34.4449 53.1655 33.9354 53.1655 33.4249 53.1655C33.4249 52.7573 33.4249 52.3491 33.423 51.9409C33.9913 51.9371 34.5607 51.9371 35.1291 51.94C35.1281 51.7923 35.1281 51.6456 35.1291 51.4999C34.3822 51.4999 33.6353 51.498 32.8893 51.5009ZM35.9464 51.497C35.9425 52.7515 35.9445 54.006 35.9454 55.2605C36.1037 55.2605 36.2629 55.2605 36.4241 55.2605C36.4279 54.2868 36.4231 53.3131 36.4453 52.3404C37.0243 53.2803 37.4943 54.282 38.0115 55.2576C38.2045 55.2586 38.3984 55.2595 38.5943 55.2614C38.5953 54.007 38.5943 52.7534 38.5953 51.4999C38.437 51.499 38.2807 51.4999 38.1254 51.5009C38.1186 52.4495 38.1466 53.4 38.0829 54.3476C37.5386 53.426 37.0822 52.4553 36.5891 51.5067C36.3739 51.5018 36.1597 51.499 35.9464 51.497ZM39.2428 51.4999C39.2409 51.6427 39.2418 51.7875 39.2438 51.9332C39.6037 51.9448 39.9646 51.9573 40.3255 51.9679C40.3497 53.0651 40.341 54.1623 40.3603 55.2605C40.5156 55.2595 40.6739 55.2595 40.8322 55.2605C40.8312 54.1527 40.8322 53.0458 40.8312 51.939C41.2027 51.938 41.5762 51.938 41.9496 51.938C41.9477 51.7913 41.9477 51.6447 41.9496 51.4989C41.0473 51.4999 40.1451 51.499 39.2428 51.4999ZM12.6506 57.2956C12.6429 57.5707 12.6371 57.8901 12.8378 58.1062C13.2798 58.5607 13.9552 58.6978 14.3798 59.1706C14.5815 59.3935 14.4493 59.7737 14.1618 59.8423C13.6407 59.9957 13.0925 59.8645 12.5695 59.7844C12.5599 59.9281 12.5531 60.0719 12.5473 60.2176C13.0327 60.3605 13.5442 60.3749 14.0469 60.3595C14.3403 60.3585 14.6587 60.2591 14.8266 60.0015C15.0071 59.6917 15.0032 59.2884 14.873 58.9622C14.4802 58.2963 13.5606 58.2249 13.1427 57.5851C13.0684 57.3256 13.2817 57.0351 13.548 57.011C13.9832 56.955 14.4213 57.0235 14.8585 57.0322C14.8237 56.8817 14.8324 56.7167 14.7543 56.5816C14.3258 56.4899 13.88 56.4995 13.4457 56.5275C13.0414 56.5333 12.6477 56.8797 12.6506 57.2956ZM15.285 56.542C15.7135 57.3545 16.1603 58.1583 16.5781 58.9776C16.6891 59.4177 16.6399 59.8837 16.6813 60.3354C16.8386 60.3334 16.9969 60.3334 17.1561 60.3325C17.1947 59.8789 17.1474 59.409 17.269 58.967C17.6782 58.1535 18.1201 57.3555 18.5467 56.5507C18.3488 56.5507 18.151 56.5507 17.9542 56.5507C17.6193 57.2204 17.2951 57.8959 16.938 58.554C16.5559 57.919 16.2529 57.2416 15.9229 56.5796C15.7096 56.5661 15.4963 56.5536 15.285 56.542ZM19.0012 56.9473C18.8564 57.3159 18.8468 57.7897 19.1237 58.1004C19.5445 58.5743 20.2161 58.7094 20.6571 59.1552C20.7237 59.3675 20.7565 59.7014 20.5056 59.8075C19.9642 60.0574 19.3592 59.8558 18.8043 59.7651C18.8458 59.9503 18.7715 60.29 19.0552 60.2968C19.5956 60.3537 20.1514 60.3643 20.6909 60.2919C21.2988 60.1327 21.3876 59.298 21.0817 58.8387C20.6783 58.3417 19.9999 58.2095 19.5406 57.783C19.283 57.5301 19.476 57.037 19.8234 56.9994C20.2634 56.9434 20.7073 57.0061 21.1425 57.0785C21.129 56.9154 21.1155 56.7524 21.101 56.5912C20.6146 56.5024 20.1138 56.4764 19.6236 56.5478C19.3785 56.5912 19.0996 56.6983 19.0012 56.9473ZM21.6858 56.5864C21.6964 56.7012 21.7012 56.818 21.7311 56.9309C22.0621 56.9965 22.4028 56.9897 22.7395 57.0139C22.7598 58.1197 22.7791 59.2266 22.7984 60.3344C22.9557 60.3334 23.1149 60.3325 23.2751 60.3334C23.2809 59.2179 23.3021 58.1033 23.3012 56.9888C23.664 56.9762 24.0288 56.9637 24.3935 56.9531C24.3926 56.8267 24.3935 56.7012 24.3955 56.5767C23.4922 56.5806 22.588 56.5208 21.6858 56.5864ZM24.9986 56.5536C25.0044 57.8254 24.9996 59.0963 25.0015 60.3682C25.759 60.3537 26.5175 60.3566 27.275 60.3305C27.2731 60.1858 27.2711 60.041 27.2711 59.8982C26.6844 59.8799 26.0977 59.8606 25.512 59.8384C25.512 59.4698 25.512 59.1021 25.512 58.7354C26.0234 58.7151 26.5358 58.6939 27.0482 58.6756C27.0473 58.5386 27.0463 58.4015 27.0463 58.2655C26.5435 58.1699 26.0031 58.3234 25.5216 58.1564C25.4299 57.783 25.5042 57.395 25.5322 57.0187C26.1006 56.9811 26.6709 56.9926 27.2403 56.9791C27.2393 56.8363 27.2393 56.6935 27.2412 56.5516C26.4934 56.5516 25.7455 56.5458 24.9986 56.5536ZM28.2448 56.5603C28.0914 57.8187 28.0123 59.0867 27.9505 60.3527C28.0991 60.3566 28.2496 60.3595 28.4012 60.3595C28.5874 59.3405 28.5555 58.2963 28.6877 57.2706C28.9927 57.9634 29.2581 58.6737 29.5447 59.3742C29.617 59.5412 29.6865 59.7158 29.8062 59.8577C29.9731 59.9175 30.1613 59.8577 30.2221 59.6811C30.6177 58.8917 30.8686 58.0377 31.2759 57.2532C31.3511 58.2877 31.3917 59.326 31.5181 60.3566C31.6676 60.3566 31.8182 60.3566 31.9697 60.3537C31.9417 59.3019 31.823 58.2558 31.7593 57.2069C31.741 56.9926 31.7371 56.7746 31.6783 56.568C31.4611 56.542 31.244 56.5487 31.0279 56.5468C30.6747 57.4211 30.3553 58.3099 29.9509 59.1629C29.5871 58.3002 29.261 57.423 28.9232 56.5507C28.6964 56.5497 28.4706 56.5526 28.2448 56.5603ZM32.9704 58.141C33.339 58.5067 33.8408 58.6843 34.2664 58.9718C34.4381 59.0596 34.5549 59.2198 34.5259 59.4234C34.5771 59.7207 34.2741 59.8944 34.0193 59.9117C33.5494 59.9407 33.0804 59.8654 32.6239 59.7641C32.6461 59.9233 32.6606 60.0864 32.704 60.2437C33.1614 60.3798 33.6507 60.3527 34.1235 60.3518C34.4951 60.3518 34.9283 60.1655 35.021 59.7737C35.0586 59.4206 35.0837 58.9931 34.8077 58.7248C34.3957 58.334 33.8186 58.1883 33.3901 57.8216C33.1045 57.5842 33.2454 57.0399 33.6266 57.0013C34.0753 56.9627 34.5259 57.0254 34.9766 57.0312C34.9168 56.8797 35.0075 56.5912 34.7846 56.5671C34.3079 56.5034 33.8167 56.4773 33.3409 56.5536C32.6606 56.7031 32.5053 57.6884 32.9704 58.141Z" fill="#0F4C81"/>
<path d="M18.2373 9.81725C18.218 8.94104 18.881 8.11211 19.736 7.93359C20.1741 7.84674 20.6093 7.99438 21.0117 8.15554C21.6418 8.40257 22.3009 8.57048 22.9706 8.67084C22.9851 9.37625 22.9822 10.0817 23.0054 10.7861C23.0005 11.2869 23.4637 11.615 23.5631 12.0917C22.9735 12.001 22.5383 11.5784 22.0905 11.2252C22.051 11.9875 22.0568 12.7527 22.1041 13.5151C22.5055 13.103 22.9754 12.7315 23.5573 12.6273C23.43 13.1638 23.0594 13.6627 22.5209 13.8335C21.9342 14.0449 21.2356 13.8133 20.8872 13.2989C20.6875 13.049 20.7463 12.7132 20.7521 12.4179C20.8689 12.3783 20.9866 12.3388 21.1053 12.3002C21.195 12.4806 21.2684 12.6669 21.3388 12.856C21.5376 12.6678 21.7374 12.4285 21.6949 12.1332C21.6138 11.8457 21.2964 11.6044 20.9934 11.6971C20.8505 11.7492 20.7289 11.8418 20.6025 11.9219C20.5195 11.4008 20.3931 10.7678 19.8412 10.5487C19.5546 11.0235 19.624 11.6102 19.7919 12.1139C19.5681 12.1207 19.2873 11.9962 19.1145 12.1902C18.8569 12.3851 18.8009 12.7875 19.019 13.0326C19.1396 13.2121 19.3702 13.2237 19.5594 13.2825C19.5256 13.1175 19.3355 12.9149 19.4967 12.7614C19.6047 12.5964 19.8595 12.5926 19.9521 12.7778C20.1799 13.1793 20.0978 13.7042 19.845 14.0757C19.6202 14.4154 19.2371 14.5901 18.8742 14.7416C18.5934 14.0555 18.3319 13.3626 18.0781 12.6669C18.3126 12.4054 18.5568 12.1149 18.5828 11.7472C18.6755 11.0737 18.2065 10.486 18.2373 9.81725Z" fill="#0F4C81"/>
<path d="M26.4559 8.24314C26.8467 8.10997 27.2308 7.92373 27.6486 7.9054C28.1427 7.92373 28.6396 8.12348 28.9677 8.50079C29.4686 9.02092 29.5844 9.81897 29.3788 10.4945C29.2457 10.9306 29.0555 11.3803 29.152 11.8445C29.1993 12.1745 29.43 12.4273 29.6461 12.6628C29.3914 13.3586 29.125 14.0505 28.8413 14.7356C28.0626 14.5436 27.3755 13.6982 27.7017 12.8867C27.7818 12.5702 28.2228 12.5711 28.2961 12.8944C28.2614 12.9919 28.1929 13.1878 28.1591 13.2852C28.355 13.2244 28.6001 13.2032 28.7197 13.0083C28.906 12.7718 28.8587 12.4129 28.6358 12.2179C28.4737 12.0114 28.1919 12.1089 27.9719 12.0944C28.0124 11.581 28.2208 10.9827 27.8484 10.5427C27.3273 10.7984 27.196 11.4054 27.114 11.9265C26.9557 11.8165 26.8013 11.6573 26.5919 11.6785C26.2571 11.6718 25.9821 12.0037 26.0351 12.3308C26.0409 12.5605 26.2436 12.6995 26.3912 12.8471C26.4636 12.6609 26.4713 12.4042 26.6826 12.3125C27.0783 12.3415 27.0339 12.8249 26.9306 13.0951C26.6576 13.7947 25.7524 14.0765 25.0846 13.8082C24.6069 13.595 24.2943 13.1241 24.1602 12.631C24.7488 12.7284 25.2178 13.1096 25.625 13.5197C25.6762 12.7448 25.6646 11.967 25.625 11.1912C25.2043 11.582 24.7527 11.9786 24.1727 12.0992C24.2393 11.7711 24.3985 11.4749 24.6205 11.2269C24.7913 11.0628 24.7623 10.811 24.7797 10.5948C24.7913 9.95503 24.7913 9.31525 24.8057 8.67546C25.3645 8.56738 25.9232 8.44579 26.4559 8.24314Z" fill="#0F4C81"/>
<path d="M22.7697 18.1855C24.7798 17.9896 26.8622 18.3679 28.6359 19.3503C31.7499 21.0294 33.8632 24.347 34.1826 27.8567C34.2637 29.4557 34.2174 31.101 33.6393 32.615C32.6705 35.5679 30.3429 38.0392 27.4422 39.1635C25.435 39.9644 23.1663 40.0561 21.0964 39.4414C18.4437 38.6858 16.1692 36.7905 14.8606 34.3732C14.3222 33.3986 13.9391 32.341 13.7017 31.2554C13.5039 30.3975 13.5164 29.5116 13.5135 28.6373C13.4817 27.1812 13.8764 25.7472 14.4428 24.4165C15.1627 22.7596 16.3371 21.3198 17.7546 20.2091C19.1992 19.0907 20.9632 18.4171 22.7697 18.1855ZM27.805 24.8449C25.2295 26.6292 22.9357 28.8139 21.0009 31.2776C19.6962 30.2518 18.325 29.2916 16.8128 28.5939C16.7327 29.7162 16.8051 30.8423 16.7974 31.9666C17.4034 32.4491 18.0162 32.9248 18.5836 33.4517C19.6682 34.4205 20.5908 35.5486 21.4805 36.694C22.2998 35.1916 23.1837 33.719 24.2191 32.3545C25.9908 29.9912 28.0945 27.8808 30.4472 26.0965C30.4723 25.1373 30.4993 24.1781 30.4858 23.218C29.5526 23.6918 28.6658 24.2524 27.805 24.8449Z" fill="#0F4C81"/>
<path d="M28.4418 44.3088C28.5808 44.47 28.6917 44.6543 28.7622 44.856C29.0295 45.575 29.2997 46.2931 29.5179 47.0294C28.8143 47.0883 28.1059 47.0999 27.4043 47.0304C27.5944 46.3915 27.8502 45.7748 28.0654 45.1446C28.1629 44.8541 28.2796 44.5694 28.4418 44.3088Z" fill="#0F4C81"/>
<path d="M12.1745 52.0413C12.3791 52.545 12.5528 53.0602 12.6994 53.5841C12.3559 53.5976 12.0134 53.5995 11.6699 53.5937C11.8098 53.0679 11.9748 52.5479 12.1745 52.0413Z" fill="#0F4C81"/>
<path d="M19.2944 52.045C19.4951 52.5428 19.6553 53.0561 19.8241 53.5665C19.4739 53.5984 19.1217 53.5964 18.7715 53.5704C18.9316 53.0571 19.0957 52.5448 19.2944 52.045Z" fill="#0F4C81"/>
</g>
<defs>
<clipPath id="clip0_4402_393">
<rect width="48" height="64" fill="white"/>
</clipPath>
</defs>
</svg>
