<svg width="61" height="61" fill="none" xmlns="http://www.w3.org/2000/svg"><path d="M24.318 1.006C5.825 4.626-4.692 24.025 2.161 41.828c3.363 8.75 11.251 15.647 20.519 17.932 3.966.948 11.466.948 15.217-.043 10.604-2.845 18.492-10.734 21.38-21.381.949-3.448 1.035-11.294.216-14.656-.82-3.449-4.009-9.785-6.121-12.285-4.052-4.742-9.872-8.45-15.346-9.872C34.189.532 27.982.316 24.318 1.006Zm14.268 3.88C53.07 9.497 60.7 25.317 55.57 39.973c-2.672 7.63-8.75 13.45-17.027 16.294-2.974 1.035-4.095 1.207-8.406 1.207-4.224 0-5.431-.172-8.233-1.12C9.62 52.087 2.42 41.611 3.11 29.025c.69-12.587 9.957-22.89 22.717-25.347 2.672-.517 9.354.13 12.76 1.207Z" fill="#fff"/><path d="M28.242 9.843c-1.638 1.638-1.638 1.681-.948 3.017.646 1.207.69 3.363.603 18.407-.13 15.518-.215 17.113-.862 17.587-.69.474-.56.69 1.078 2.328l1.81 1.767 1.854-1.724c1.724-1.638 1.81-1.81 1.077-2.328-.733-.517-.776-1.767-.905-17.889-.13-15.518-.043-17.458.604-18.406.69-1.078.646-1.121-.992-2.76l-1.681-1.68-1.638 1.68ZM18.886 19.37c-3.19 3.362-5.777 6.422-5.777 6.81 0 .604.56.776 2.932.862 2.155.086 2.888 0 2.888-.43 0-.346 1.638-2.242 3.664-4.225l3.707-3.664-.13-2.587c-.086-1.983-.301-2.63-.818-2.715-.431-.087-2.889 2.198-6.466 5.948ZM33.888 13.593c-.173.172-.302 1.336-.302 2.543v2.285l3.664 3.578c2.026 1.94 3.664 3.922 3.664 4.354 0 .646.388.775 2.543.775 2.931 0 3.923-.258 3.923-1.12 0-.604-11.811-12.372-12.673-12.587-.302-.043-.647 0-.82.172Z" fill="#fff"/><path d="M48.2 27.689c-.69.905-1.079.948-7.544 1.035l-6.854.129-.13 1.896-.129 1.94 4.009.13c5.388.172 5.474.603.733 5.345-1.983 1.983-3.837 3.62-4.138 3.62-.776 0-.776 5.346 0 5.95.387.301 2.845-1.854 9.44-8.277l8.88-8.664-1.768-2.026-1.81-2.026-.69.948ZM9.275 29.197 7.68 30.878l1.595 1.38c1.12.991 1.767 1.293 2.284 1.034.388-.172 3.837-.388 7.716-.474l6.984-.13v-3.836h-6.337c-4.828 0-6.682-.172-7.63-.646-.646-.345-1.25-.647-1.293-.647-.043 0-.82.733-1.724 1.638ZM12.636 34.93c-.431.733 12.07 13.062 12.932 12.76.905-.345 1.034-5.906.13-5.906-.82 0-6.338-5.733-6.338-6.595 0-.647-.474-.733-3.19-.733-1.896 0-3.362.216-3.534.474Z" fill="#fff"/></svg>