<svg width="49" height="60" fill="none" xmlns="http://www.w3.org/2000/svg"><path d="M36.365 12.904 23.658 30.607l-6.443-8.383v9.04l6.443 6.889 12.707-18.559v-6.69Z" fill="#fff"/><path d="M24.887 17.145c1.808 0 3.979.28 5.687.855l.279-.56.477-.18-.197-.559 1.513-3.583-.099-.28c.197 0 .477-.097.576-.278.098-.279-.099-.559-.28-.657a.597.597 0 0 0-.574 0v-.099s.098-.18.196-.477c.099.099.197.18.28.28.278.098.575 0 .657-.28.098-.18 0-.477-.28-.657-.098 0-.378 0-.575.098v-.477c.197 0 .28.099.477.099.28-.099.477-.28.379-.56 0-.278-.279-.476-.477-.476-.18.098-.379.18-.477.279 0-.099-.098-.28-.197-.379.197 0 .279 0 .379-.098.279-.099.378-.379.279-.56-.099-.278-.379-.378-.658-.278-.098.098-.279.18-.378.379-.099-.099-.18-.28-.28-.379.1 0 .28-.098.38-.18.196-.18.098-.477-.1-.658a.467.467 0 0 0-.657 0c-.098.18-.197.379-.197.56-.098-.1-.278-.181-.476-.28a.712.712 0 0 0 .378-.378c.098-.18 0-.477-.279-.56-.279-.098-.575 0-.657.28-.099.098 0 .378.098.559-.279-.099-.477-.099-.657-.099.098-.098.18-.279.18-.378 0-.28-.279-.477-.477-.477-.278 0-.575.18-.575.477 0 .18.197.378.279.477-.197.098-.477.18-.657.18 0-.098.098-.279 0-.378-.099-.28-.379-.477-.576-.379-.279.098-.477.379-.378.559.098.18.197.379.378.477a.792.792 0 0 0-.477.18c-.098 0-.197 0-.279.099.18-.18.18-.477.099-.658 0-.18-.28-.378-.576-.278-.278.098-.378.278-.278.559 0 .18.196.378.378.476-.477.099-.657 0-.657 0v-.476l-.197-.18c.279-.38.477-.478.477-1.037 0-.477-.197-.937-.477-1.134-.379-.18-.576-.658-.576-.854v-.18c.197 0 .576 0 .756.098V3.699c-.378.279-.575.279-.756.279v-.28c0-.098.197-.378.28-.558h-1.053c.098.18.279.477.279.559v.279c-.197 0-.477 0-.855-.181v.938c.28-.099.576-.099.855-.099v.18c0 .181-.28.658-.576.938-.279.098-.477.559-.477 1.036 0 .559.197.657.477 1.036l-.279.18v.477s-.098.099-.575 0c.197-.098.379-.279.379-.477.098-.18-.099-.477-.28-.559-.278-.098-.575.099-.657.28 0 .18 0 .476.099.657 0-.099-.099-.099-.197-.099-.197-.098-.279-.098-.477-.18.197-.099.279-.28.378-.379 0-.279-.098-.559-.378-.657-.279-.099-.477.098-.575.378-.099.099-.099.28 0 .477-.197-.098-.477-.18-.756-.279a.503.503 0 0 0 .279-.477.458.458 0 0 0-.477-.477c-.28 0-.477.181-.477.477 0 .099.098.28.197.477-.197-.098-.477 0-.658 0 .099-.18.099-.378.099-.559-.099-.279-.477-.378-.658-.279-.279.099-.378.379-.279.658.099.098.197.279.28.279-.1.098-.28.18-.478.279.099-.18 0-.379-.098-.56-.197-.18-.477-.18-.756 0a.44.44 0 0 0 0 .658c.099.099.279.18.379.279-.099.098-.197.18-.379.279 0-.18-.197-.279-.279-.379-.279-.098-.575 0-.657.28-.099.278 0 .558.279.657h.378c-.098.098-.197.279-.197.378a.7.7 0 0 0-.477-.18c-.279-.099-.476.098-.476.378a.411.411 0 0 0 .378.56c.197 0 .279 0 .477-.1v.478a.769.769 0 0 0-.658 0c-.196.098-.278.378-.196.559.098.279.378.378.575.279.197 0 .279-.18.378-.28.099.28.197.478.197.478v.098h-.575c-.197.098-.379.379-.279.658.098.18.379.278.575.278l-.098.28 1.513 3.583-.197.559.477.18.279.56c1.77-.559 3.956-.838 5.846-.838Zm-1.89-2.268c.279-.56.657-1.036 1.331-1.036-.098.657-.378 1.315-1.331 1.315-1.331 0-1.611-1.217-1.611-1.315 0-.18.197-.279.279-.279.197 0 .378.18.279.477.278 0 .657-.18.657-.756 0-.279-.379-.559-.756-.559-.197 0-.477.098-.575.18-.197-.755-.477-1.035-.576-1.216-.378-.279-.378-.279-.477.099-.197.559-.098.755 0 1.314-.197 0-.953.099-.953.756 0 .477.278.658.476.658a.792.792 0 0 0 .477-.18c-.197-.1-.197-.1-.197-.181 0-.099.197-.28.28-.28.278 0 .378.28.378.56 0 .756-.576 1.134-1.134 1.134-.756 0-1.135-.559-1.135-.854.576 0 .855.477.954.657l.197-.098-1.134-2.73-.197.1c.197.278.279.558.279.656 0 .28-.197.658-.379.658-.197-.099-.197-.18-.197-.658 0-.278.099-.755.28-1.134-.28-.378-.576-1.216-.576-1.595 0-.937.756-2.35 2.367-2.35 1.331 0 1.71.755 3.698.937v2.07c-.098.1-.279.181-.378.181v.18c.575.478.954.478 1.036 1.315-.658 0-.954-.18-1.332-1.036h-.23v3.009h.2Zm8.713-1.595c0 .477 0 .559-.197.657-.197 0-.28-.378-.28-.657 0-.098.1-.379.198-.658l-.197-.098-1.135 2.73.197.098c.099-.18.379-.658.954-.658 0 .28-.378.855-1.134.855-.575 0-1.134-.379-1.134-1.135 0-.279.098-.559.378-.559.099 0 .279.18.279.28 0 .098 0 .098-.098.18 0 .098.196.18.378.18s.575-.18.575-.657c0-.658-.854-.756-1.035-.756.098-.56.18-.756 0-1.315-.099-.378-.099-.378-.477-.098-.099.18-.379.477-.576 1.216-.098-.098-.378-.18-.575-.18-.379 0-.756.278-.756.558 0 .56.378.756.657.756-.098-.279.099-.477.28-.477.098 0 .278.099.278.28 0 .098-.279 1.314-1.611 1.314-.954 0-1.233-.657-1.331-1.315.657 0 1.134.477 1.33 1.036h.198v-3.008h-.28c-.378.854-.657 1.036-1.33 1.036.098-.854.477-.854 1.134-1.315v-.18a.791.791 0 0 1-.477-.18V9.04c1.611-.18 2.269-.937 3.6-.937 1.513 0 2.465 1.512 2.465 2.449 0 .378-.278 1.216-.575 1.595.215.378.297.855.297 1.134Z" fill="#fff"/><path d="M24.891 5.737c.098 0 .197 0 .197.28v.278c0 .279 0 .279.378.279.379 0 .576.098.576.18 0 .099-.099.18-.28.18 0 0-.755-.098-.853-.098-.197 0-.954.099-.954.099-.197 0-.197-.099-.197-.18 0-.099.098-.181.477-.181.378 0 .378 0 .378-.279v-.279c0-.279.098-.279.278-.279ZM24.888 8.383c.099 0 .197-.098.197-.278 0-.18-.098-.28-.197-.28-.197 0-.279.1-.279.28 0 .18.099.278.28.278ZM24.888 9.14c.099 0 .197-.181.197-.28 0-.18-.098-.278-.197-.278-.197 0-.279.098-.279.278 0 .082.099.28.28.28ZM24.888 9.796c.099 0 .197-.098.197-.18 0-.18-.098-.28-.197-.28-.197 0-.279.1-.279.28 0 .082.099.18.28.18ZM24.888 10.553c.099 0 .197-.098.197-.279 0-.098-.098-.278-.197-.278-.197 0-.279.18-.279.278 0 .18.099.28.28.28ZM24.888 11.211c.099 0 .197-.098.197-.279 0-.098-.098-.18-.197-.18-.197 0-.279.098-.279.18 0 .18.099.28.28.28ZM22.423 16.29c0 .279-.197.279-.477.378-.197 0-.756.099-.855.099-.197 0-.279-.099-.279-.28 0-.278.477-.476 1.135-.476.295 0 .476.098.476.279ZM18.925 17.227l-.378-.082.197-.378.378.098-.197.362ZM24.806 15.632l.559.56-.56.476-.575-.477.576-.559ZM27.258 16.29c0 .279.197.279.477.378.098 0 .657.099.854.099.099 0 .279-.099.279-.28 0-.278-.477-.476-1.134-.476-.278 0-.476.098-.476.279ZM30.677 17.227l.378-.082-.098-.378-.379.098.099.362ZM19.777 40.322s.099 1.413.099 2.926c0 1.413-.099 3.205-.099 3.205h1.513s-.098-1.972-.098-3.205c0-1.216.098-2.926.098-2.926h-1.513Z" fill="#fff"/><path d="M21.11 43.232s.953-1.036 1.33-1.513c.38-.477 1.135-1.413 1.135-1.413h.954s-1.71 1.972-2.087 2.35l-.954.756-.379-.18Z" fill="#fff"/><path d="m22.145 42.853 2.564 3.584h-1.611l-1.907-2.827-.082-.379 1.036-.378ZM11.063 40.322h1.33v2.449c0 .937-.278 3.304 1.612 3.304 1.513 0 1.71-1.216 1.71-2.449v-3.304h.854v2.926c-.098 1.413 0 3.304-2.844 3.304s-2.646-2.07-2.646-2.547c-.017-.494-.017-3.683-.017-3.683ZM18.742 48.508h.756s-.098.756-.098 1.217c0 .477-.099 1.791.954 1.791.755 0 .953-.657.953-1.314 0-.56-.098-1.694-.098-1.694h.477v1.513c0 .757 0 1.792-1.513 1.792-1.413 0-1.413-1.135-1.413-1.413-.018-.198-.018-1.892-.018-1.892ZM24.33 50.152c-.197-.477-.575-1.578-.575-1.578h-.379s-.756 1.677-.954 2.137a15.65 15.65 0 0 1-.477 1.02h.428v-.017s.197-.345.378-.904h1.102c.197.378.379.937.379.937h.854c0-.017-.379-.839-.756-1.595Zm-1.48.28c.262-.56.526-1.037.526-1.037s.197.658.379 1.036h-.905ZM27.554 46.437s.28-.938.855-2.17c.477-1.315.854-2.17.854-2.17s.657 1.512 1.036 2.448c.279.938.657 1.89.657 1.89h1.513s-.657-1.594-1.331-3.106c-.379-.854-1.135-3.008-1.135-3.008h-.755s-1.414 3.304-1.71 4.24c-.379.855-.854 1.89-.854 1.89l.87-.014Z" fill="#fff"/><path d="M30.677 44.086h-2.646v.559h2.646v-.56ZM12.477 56.234s.197-.559.477-1.216a5.708 5.708 0 0 1 .477-1.135s.279.854.477 1.315c.197.477.378 1.036.378 1.036h.854s-.378-.854-.755-1.693a38.93 38.93 0 0 1-.576-1.595h-.378s-.756 1.791-.954 2.269C12.279 55.69 12 56.25 12 56.25h.477v-.016Z" fill="#fff"/><path d="M14.171 55.018h-1.413v.279h1.413v-.279ZM19.497 56.234s.197-.559.477-1.216c.28-.658.477-1.135.477-1.135s.378.854.575 1.315c.197.477.279 1.036.279 1.036h.854s-.378-.854-.657-1.693l-.657-1.595h-.379s-.756 1.791-.954 2.269c-.197.476-.477 1.035-.477 1.035h.46v-.016h.002Z" fill="#fff"/><path d="M21.19 55.018h-1.413v.279h1.414v-.279ZM38.355 40.602l-.197.937-.197-.098s-.279-.658-1.036-.658c-.755 0-.954.477-.954.855 0 .279.28.756 1.036 1.134.756.279 1.612.756 1.612 1.89 0 1.135-.954 1.89-2.269 1.89-1.233 0-1.513-.378-1.513-.378l.279-1.036h.098s.197.854 1.135.938c.954 0 1.233-.379 1.233-1.036 0-.56-.855-.938-1.513-1.217-.658-.378-1.233-.937-1.233-1.693s.575-1.89 2.087-1.89c.955-.017 1.432.362 1.432.362ZM16.934 51.714c.756-.181 1.233-.855 1.233-1.595 0-1.036-.756-1.694-1.808-1.694s-1.89.756-1.89 1.694c0 1.035.854 1.693 1.808 1.693l1.233.937.657-.279-1.233-.756Zm-1.71-1.594c0-.938.477-1.413 1.135-1.413.575 0 1.036.477 1.036 1.413s-.477 1.413-1.036 1.413c-.658 0-1.134-.379-1.134-1.413ZM25.563 48.508v3.19h1.89v-.28h-1.135s-.098-.937-.098-1.413c0-.378.098-1.512.098-1.512l-.756.015ZM28.031 48.508v3.19h.756v-3.19h-.756ZM29.344 48.508v.379s.279-.099.477-.099h.378s.099.938.099 1.414c0 .378-.099 1.512-.099 1.512h.756v-2.909h.379c.196 0 .477.098.477.098v-.378h-2.467v-.017ZM39.11 52.946v.378h.855v2.91h.756v-2.91h.855v-.378H39.11ZM32.188 48.508v.099l.952 1.693v1.413h.756v-1.511l1.036-1.694h-.46l-.773 1.413-.756-1.413h-.755ZM7.742 56.234s.197-1.315.28-1.693c0-.477.196-1.595.196-1.595h.378s.477.854.658 1.233c.197.477.477 1.035.477 1.035s.477-.755.657-1.134c.197-.378.576-1.134.576-1.134h.378s.098 1.233.197 1.693c.098.56.197 1.595.197 1.595h-.772s-.099-.854-.099-1.134c0-.379-.098-1.135-.098-1.135s-.379.756-.576 1.135c-.197.477-.575 1.134-.575 1.134h-.098s-.477-.854-.658-1.216c-.197-.28-.477-.938-.477-.938s-.098.56-.098 1.036c-.099.477-.197 1.134-.197 1.134l-.346-.016ZM28.488 56.234s.197-1.315.28-1.693c0-.477.196-1.595.196-1.595h.379s.378.854.575 1.233c.279.477.575 1.035.575 1.035s.379-.755.576-1.134c.197-.378.575-1.134.575-1.134h.379s.196 1.233.278 1.693c0 .56.197 1.595.197 1.595h-.755s-.099-.854-.197-1.134v-1.135s-.379.756-.658 1.135c-.197.477-.477 1.134-.477 1.134h-.213s-.378-.854-.575-1.216c-.18-.28-.477-.938-.477-.938s-.099.56-.197 1.036c0 .477-.099 1.134-.099 1.134l-.362-.016ZM15.602 56.234s.098-1.134.098-1.693v-1.595h.477s.954 1.036 1.233 1.315c.197.279.854.937.854.937V52.93h.378V56.218h-.378S17.607 55.56 17.13 55c-.379-.476-1.036-1.035-1.036-1.035s-.099.559-.099.937c0 .379.099 1.315.099 1.315l-.492.016ZM35.606 56.234c-.098 0 0-1.134 0-1.693v-1.595h.477s.954 1.036 1.233 1.315c.197.279.854.937.854.937V52.93h.379V56.218h-.379s-.657-.658-1.036-1.217A22.97 22.97 0 0 0 36 53.967v2.252l-.394.016ZM25.463 53.128l-.197.477s-.279-.477-1.036-.477c-.755.098-1.232.657-1.232 1.413 0 .854.477 1.413 1.134 1.413.657 0 .657-.098.657-.098V54.82h.757s-.098.18-.098.477v.756s-.379.18-1.233.18c-.954 0-1.988-.378-1.988-1.595 0-1.413 1.413-1.791 1.89-1.791.87 0 1.346.28 1.346.28ZM26.223 52.946V56.234h1.89v-.379H26.962v-1.134s.197-.098.477-.098c.197 0 .575.098.575.098v-.378h-1.052v-1.135h.477c.197 0 .575.099.575.099v-.379h-.854c-.181.018-.937.018-.937.018ZM33.043 52.946V56.234h1.89v-.379H33.782v-1.134s.197-.098.477-.098c.197 0 .658.098.658.098v-.378H33.766v-1.135h.477c.279 0 .657.099.657.099v-.379h-.953c-.148.018-.904.018-.904.018Z" fill="#fff"/><path d="M1.4 59.34v.658h47.078V0H.742v59.998H1.4v-.657h.64V1.315h45.14v57.368H1.4v.658h.64-.64Z" fill="#fff"/></svg>