<svg width="144" height="25" fill="none" xmlns="http://www.w3.org/2000/svg"><path d="M30.192 13.291h1.61L25.739 2.895a5.41 5.41 0 0 0-1.216.675l5.67 9.721ZM27.46 2.514l6.285 10.777h1.607L29.158 2.667a5.837 5.837 0 0 0-1.697-.152ZM21.969 7.094l6.641 11.374a2.247 2.247 0 0 1 0 2.314 2.459 2.459 0 0 1-2.114 1.262h-3.125l-1.578 2.257h4.703a4.725 4.725 0 0 0 4.07-2.403 4.519 4.519 0 0 0 0-4.579L23.274 4.85c-.11.155-.213.317-.309.485l-.997 1.76Z" fill="#fff"/><path d="M42.025 16.754 34.662 4.2A7.897 7.897 0 0 0 27.79.244h-.062a7.728 7.728 0 0 0-6.723 3.979l-7.38 13.06v.01a4.617 4.617 0 0 0 .098 4.616 4.79 4.79 0 0 0 4.157 2.39h2.467l1.578-2.257h-4.059a2.556 2.556 0 0 1-2.211-1.28 2.352 2.352 0 0 1-.066-2.375l7.376-13.053a5.498 5.498 0 0 1 4.777-2.83 5.667 5.667 0 0 1 4.973 2.841l7.683 13.104c.008.015.014.023.024.038.076.12 1.684 2.94-.378 6.094 2.413-1.05 4.127-4.26 1.981-7.827ZM16.313.247c-3.003 0-5.563 1.474-7.017 3.955L1.93 16.754c-2.146 3.567-.432 6.779 1.978 7.827-2.057-3.155-.455-5.973-.378-6.094l.023-.039 7.683-13.103c1.058-1.796 2.515-4.56 5.076-5.098Z" fill="#fff"/><path d="m18.402 2.565-6.254 10.726h1.608l5.848-10.03v-.01c.012-.024 1.5-2.51 4.312-2.857.008 0-3.965-.544-5.514 2.171Z" fill="#fff"/><path d="m14.862 2.553-6.26 10.739h1.607L16.07 3.25v-.01c.014-.024 1.41-2.462 4.165-2.857 0 0-3.826-.544-5.372 2.17ZM56.943 21.42c-.485 0-.877-.114-1.177-.343-.3-.229-.45-.59-.45-1.08 0-.453.16-.8.476-1.04.317-.245.773-.368 1.367-.368h1.323v-.218c0-.28-.08-.475-.242-.586-.162-.118-.447-.176-.856-.176-.542 0-1.058.075-1.549.226v-.846c.248-.079.528-.14.84-.185.31-.05.61-.075.9-.075.322 0 .599.028.83.084h1.626l-.061.863h-.528c.139.206.208.477.208.812v2.849h-1.168v-1.919h-1.254c-.265 0-.467.045-.606.134-.132.09-.198.238-.198.444 0 .207.06.35.181.428.127.078.343.117.649.117.265 0 .464-.022.597-.067v.83c-.26.078-.562.117-.908.117ZM56.096 15.422h3.719v.77h-3.78l.06-.77ZM62.461 21.42c-.502 0-.896-.148-1.185-.444-.288-.296-.432-.703-.432-1.223v-2.94h1.167v2.873c0 .302.07.52.208.654.138.134.349.2.631.2.214 0 .424-.044.632-.133.213-.09.383-.201.51-.335v-3.26h1.168v4.525h-1.073l-.052-.444a2.48 2.48 0 0 1-1.574.527ZM66.191 18.53c0-.57.179-1.01.537-1.324.363-.318.92-.477 1.669-.477.75 0 1.303.16 1.66.477.358.313.537.755.537 1.324v2.807h-1.168v-2.89c0-.274-.092-.48-.276-.62-.18-.146-.43-.218-.753-.218-.34 0-.6.072-.779.217-.172.14-.259.347-.259.62v.813c.242-.179.513-.268.813-.268h.563l.034.896h-.623c-.305 0-.568.081-.787.243v1.207h-1.168V18.53ZM68.495 15.447h-.675v-.77h1.462v.745h1.851l-.043.771h-2.595v-.746ZM73.276 18.555c0-.324-.066-.56-.199-.712-.127-.156-.363-.234-.71-.234-.184 0-.383.02-.596.058a3.2 3.2 0 0 0-.58.16v-.83a3.862 3.862 0 0 1 1.401-.268c.652 0 1.122.134 1.41.402.294.268.441.69.441 1.265v2.94h-1.167v-2.78ZM75.477 16.813h1.072l.052.444c.213-.168.455-.296.727-.386.276-.095.573-.142.89-.142.49 0 .874.145 1.15.436.283.29.425.69.425 1.198v2.974h-1.168V18.43c0-.285-.07-.492-.208-.62-.138-.134-.349-.201-.631-.201-.214 0-.427.044-.64.134a1.49 1.49 0 0 0-.502.335v3.259h-1.167v-4.524ZM76.076 15.422h2.768v-.678h.952v1.449h-3.78l.06-.77ZM78.844 13.519h.951v1.173h-.951v-1.173ZM80.82 17.675c0-.262.07-.472.208-.628.138-.156.34-.235.606-.235h1.046l.052.838h-.441c-.242 0-.364.126-.364.377v1.818l.978-1.65h.433l.977 1.65v-3.032h1.098v4.524H84.29l-1.168-2.045-1.176 2.045H80.82v-3.662ZM87.923 21.42c-.484 0-.876-.114-1.176-.343-.3-.229-.45-.59-.45-1.08 0-.453.159-.8.476-1.04.317-.245.772-.368 1.366-.368h1.324v-.218c0-.28-.081-.475-.242-.586-.162-.118-.447-.176-.857-.176-.542 0-1.058.075-1.548.226v-.846c.248-.079.527-.14.839-.185.311-.05.611-.075.9-.075.697 0 1.216.145 1.556.436.346.285.52.726.52 1.323v2.849h-1.168v-1.919h-1.254c-.266 0-.468.045-.606.134-.133.09-.199.238-.199.444 0 .207.06.35.182.428.127.078.343.117.648.117.266 0 .465-.022.597-.067v.83c-.26.078-.562.117-.908.117ZM86.912 15.422h3.72v.77h-3.78l.06-.77ZM93.44 21.42c-.595 0-1.07-.184-1.428-.552-.352-.374-.528-.941-.528-1.701 0-.788.142-1.39.424-1.81a1.372 1.372 0 0 1 1.194-.628c.23 0 .418.036.562.109a.975.975 0 0 1 .364.318c.115-.128.273-.232.475-.31a1.78 1.78 0 0 1 .632-.117c.392 0 .689.117.89.352.202.234.303.553.303.955v3.3h-1.167v-3.124c0-.207-.03-.358-.087-.453-.058-.1-.162-.15-.311-.15a.433.433 0 0 0-.286.1.508.508 0 0 0-.173.285h-.562a.888.888 0 0 0-.19-.293.37.37 0 0 0-.269-.092c-.259 0-.44.134-.544.402-.098.262-.147.648-.147 1.156 0 .491.086.843.26 1.056.178.212.443.318.795.318.265 0 .464-.022.597-.067v.83a2.362 2.362 0 0 1-.805.117ZM98.263 21.337c-.37 0-.632-.073-.787-.218-.156-.15-.234-.39-.234-.72v-1.81c0-.285.055-.522.165-.712.11-.196.262-.4.458-.612.115-.123.196-.218.242-.285a.374.374 0 0 0 .078-.217c0-.14-.04-.238-.121-.294-.08-.061-.21-.092-.39-.092a1.86 1.86 0 0 0-.916.252v-.813c.173-.1.38-.179.623-.235.242-.056.481-.083.718-.083.426 0 .75.08.968.243.225.162.338.402.338.72 0 .201-.04.374-.121.52-.081.145-.202.32-.364.527a3.612 3.612 0 0 0-.38.553c-.087.162-.13.352-.13.57v1.474c0 .235.118.352.355.352h.294v.88h-.796ZM101.571 21.42c-.502 0-.897-.148-1.185-.444-.289-.296-.433-.703-.433-1.223v-2.94h1.168v2.873c0 .302.069.52.208.654.138.134.348.2.631.2.213 0 .424-.044.631-.133.214-.09.384-.201.511-.335v-3.26h1.167v4.525h-1.072l-.052-.444c-.45.351-.975.527-1.574.527ZM107.524 21.42c-.704 0-1.252-.159-1.644-.477-.386-.324-.579-.799-.579-1.424v-2.706h1.168v2.723c0 .34.086.594.259.762.179.162.444.243.796.243.351 0 .614-.081.787-.243.179-.168.268-.422.268-.762v-4.064h1.168v4.047c0 .625-.196 1.1-.588 1.424-.387.318-.932.478-1.635.478ZM112.349 21.42c-.329 0-.643-.022-.943-.066a3.2 3.2 0 0 1-.709-.176v-.913c.207.083.443.15.709.2.265.05.507.076.726.076.393 0 .669-.028.831-.084.161-.061.242-.176.242-.343a.364.364 0 0 0-.095-.26.64.64 0 0 0-.26-.168 5.22 5.22 0 0 0-.527-.192l-.372-.118c-.467-.156-.811-.326-1.03-.51-.213-.19-.319-.453-.319-.788 0-.413.164-.74.492-.98.335-.246.819-.369 1.454-.369.259 0 .524.02.795.059.277.039.505.086.684.142v.905a2.921 2.921 0 0 0-.64-.168 4.258 4.258 0 0 0-.675-.058c-.311 0-.557.033-.735.1-.179.062-.269.176-.269.344 0 .128.061.226.182.293.121.067.346.15.675.251.104.028.236.07.398.126.334.112.597.226.787.344.196.117.337.26.424.427.092.162.138.368.138.62 0 .43-.173.756-.519.98-.34.218-.822.327-1.444.327ZM114.953 17.399h.986v.41h1.203l-.035.83h-2.154v-1.24Zm0 2.245h.986v.41h1.203l-.035.83h-2.154v-1.24ZM118.966 21.337c-.369 0-.631-.073-.787-.218-.156-.151-.234-.391-.234-.72v-3.587h1.168v3.293c0 .235.118.352.355.352h.294v.88h-.796ZM120.582 16.813h1.072l.052.444c.214-.168.456-.296.727-.386a2.73 2.73 0 0 1 .891-.142c.49 0 .874.145 1.15.436.283.29.424.69.424 1.198v2.974h-1.168V18.43c0-.285-.069-.492-.207-.62-.139-.134-.349-.201-.632-.201-.213 0-.426.044-.64.134-.207.09-.375.2-.501.335v3.259h-1.168v-4.524ZM125.93 18.53c0-.57.179-1.01.536-1.324.363-.318.92-.477 1.67-.477.276 0 .55.028.821.084h1.817l-.061.863h-.614a.86.86 0 0 1 .173.377c.04.15.061.31.061.477v2.807h-1.168v-2.89c0-.274-.093-.48-.277-.62-.179-.146-.43-.218-.752-.218-.341 0-.6.072-.779.217-.173.14-.259.347-.259.62v.813c.242-.179.513-.268.812-.268h.563l.035.896h-.623c-.306 0-.568.081-.787.243v1.207h-1.168V18.53ZM132.727 21.337c-.368 0-.631-.073-.787-.218-.155-.15-.233-.391-.233-.72v-2.765c0-.564.19-.975.571-1.232h-1.255v-.88h2.665v.821c-.289.101-.496.26-.623.478-.127.212-.19.5-.19.863v2.421c0 .235.118.352.354.352h.294v.88h-.796ZM134.25 16.813h1.073l.052.444c.213-.168.455-.296.726-.386a2.73 2.73 0 0 1 .891-.142c.49 0 .874.145 1.15.436.283.29.424.69.424 1.198v2.974h-1.167V18.43c0-.285-.07-.492-.208-.62-.138-.134-.349-.201-.631-.201a1.65 1.65 0 0 0-.641.134c-.207.09-.374.2-.501.335v3.259h-1.168v-4.524ZM141.604 21.42c-.681 0-1.226-.114-1.635-.343-.404-.229-.606-.6-.606-1.114a1.082 1.082 0 0 1 .588-.98.917.917 0 0 1-.415-.344 1.04 1.04 0 0 1-.155-.57c0-.43.138-.76.415-.988.283-.235.66-.352 1.133-.352.323 0 .591.04.804.117v.83a2.33 2.33 0 0 0-.597-.067c-.219 0-.383.036-.492.109-.104.072-.156.19-.156.352 0 .178.057.304.173.377.115.072.3.108.553.108h.485l.043.83h-.536c-.49 0-.736.192-.736.578 0 .195.087.34.26.436.179.095.453.142.822.142.732 0 1.098-.293 1.098-.88v-2.848h1.168v2.748c0 .637-.187 1.106-.562 1.407-.375.302-.926.453-1.652.453ZM55.633 3.546h1.505L59.23 7.83l2.092-4.284h1.494v7.128h-1.494V6.037l-1.66 3.409h-.864l-1.671-3.41v4.638h-1.494V3.546Zm10.09 7.239c-.531 0-.977-.14-1.339-.42-.354-.289-.531-.69-.531-1.207 0-.524.184-.937.553-1.24.377-.31.915-.465 1.616-.465h1.55V7.31c0-.22-.041-.394-.122-.52-.074-.125-.21-.217-.41-.276-.192-.06-.468-.089-.83-.089-.597 0-1.173.092-1.726.277V5.649c.258-.103.56-.184.907-.243.354-.06.73-.089 1.13-.089 1.652 0 2.478.675 2.478 2.026v3.331h-1.295l-.077-.476c-.428.391-1.063.587-1.904.587Zm.41-.985c.317 0 .598-.052.841-.155.251-.11.45-.255.598-.432v-.83h-1.517c-.583 0-.874.24-.874.72 0 .464.317.697.952.697Zm6.26.985c-.744 0-1.335-.203-1.77-.609-.428-.413-.642-1.07-.642-1.97 0-.605.111-1.125.332-1.56.23-.436.532-.764.908-.986a2.46 2.46 0 0 1 1.284-.343c.575 0 1.066.133 1.472.399V3.214h1.494v7.46h-1.284l-.088-.487c-.23.2-.48.35-.753.454a2.87 2.87 0 0 1-.952.144Zm.41-1.096c.244 0 .458-.037.642-.11.185-.074.362-.196.532-.366v-2.39a1.59 1.59 0 0 0-1.085-.41c-.457 0-.804.151-1.04.454-.237.302-.354.749-.354 1.339 0 .539.106.922.32 1.151.222.221.55.332.986.332Zm6.662 1.096c-.93 0-1.657-.229-2.18-.687-.517-.464-.775-1.15-.775-2.058 0-.856.224-1.524.675-2.003.457-.48 1.121-.72 1.992-.72.797 0 1.413.21 1.848.631.443.413.664.97.664 1.671v.952h-3.796c.074.406.258.69.553.852.303.163.746.244 1.329.244.28 0 .564-.026.852-.078.295-.051.546-.118.752-.199v1.063c-.487.221-1.125.332-1.914.332Zm.918-3.132v-.288c0-.65-.387-.974-1.162-.974-.487 0-.83.1-1.03.299-.198.192-.298.512-.298.963h2.49Zm6.999-4.361h1.627v1.173h-1.627V3.292Zm.122 3.243h-.786l.133-1.107h2.147v5.246h-1.494v-4.14Zm2.77-1.107h1.383l.056.498c.236-.177.516-.321.84-.432.325-.118.661-.177 1.008-.177.686 0 1.188.163 1.505.487.325.318.487.82.487 1.505v3.365H94.06V7.387c0-.362-.074-.612-.221-.753-.148-.147-.413-.221-.797-.221-.229 0-.457.052-.686.155a1.808 1.808 0 0 0-.587.387v3.72h-1.494V5.427Zm12.233-.73h-2.192V3.545h5.866v1.151h-2.18v5.977h-1.494V4.697Zm4.498-1.484h1.494v2.657a2.7 2.7 0 0 1 .797-.399c.31-.103.642-.155.996-.155.687 0 1.188.163 1.506.487.324.318.487.82.487 1.505v3.365h-1.494V7.387c0-.362-.074-.612-.222-.753-.148-.147-.413-.221-.797-.221-.229 0-.457.052-.686.155a1.813 1.813 0 0 0-.587.387v3.72h-1.494v-7.46Zm8.145 7.57c-.531 0-.977-.14-1.339-.42-.354-.288-.531-.69-.531-1.206 0-.524.184-.937.553-1.24.377-.31.915-.465 1.616-.465h1.55V7.31c0-.22-.041-.394-.122-.52-.074-.125-.21-.217-.41-.276-.192-.06-.468-.089-.83-.089-.597 0-1.173.092-1.726.277V5.649c.258-.103.561-.184.907-.243a6.872 6.872 0 0 1 1.129-.089c1.653 0 2.48.675 2.48 2.026v3.331h-1.296l-.077-.476c-.428.391-1.062.587-1.904.587Zm.41-.984c.317 0 .597-.052.841-.155.251-.11.45-.255.598-.432v-.83h-1.517c-.583 0-.874.24-.874.72 0 .464.317.697.952.697Zm4.734-6.508h1.627v1.173h-1.627V3.292Zm.121 3.243h-.786l.133-1.107h2.148v5.246h-1.495v-4.14Zm4.231 4.25c-.509 0-.881-.118-1.118-.354-.228-.236-.342-.613-.342-1.13V3.215h1.494V9.18c0 .184.033.313.099.387.074.067.185.1.332.1.192 0 .365-.026.521-.078v1.03c-.156.059-.307.1-.454.122a2.76 2.76 0 0 1-.532.044Zm2.988 0c-.531 0-.978-.14-1.339-.42-.354-.289-.532-.69-.532-1.207 0-.524.185-.937.554-1.24.376-.31.915-.465 1.616-.465h1.549V7.31c0-.22-.04-.394-.121-.52-.074-.125-.211-.217-.41-.276-.192-.06-.468-.089-.83-.089-.598 0-1.173.092-1.727.277V5.649c.259-.103.561-.184.908-.243.354-.06.73-.089 1.129-.089 1.653 0 2.479.675 2.479 2.026v3.331h-1.295l-.077-.476c-.428.391-1.063.587-1.904.587Zm.41-.985c.317 0 .597-.052.841-.155.251-.11.45-.255.597-.432v-.83h-1.516c-.583 0-.874.24-.874.72 0 .464.317.697.952.697Zm4.069-4.372h1.384l.055.498c.236-.177.517-.321.841-.432a2.928 2.928 0 0 1 1.007-.177c.687 0 1.188.163 1.506.487.324.318.487.82.487 1.505v3.365h-1.495V7.387c0-.362-.073-.612-.221-.753-.147-.147-.413-.221-.797-.221-.228 0-.457.052-.686.155a1.813 1.813 0 0 0-.587.387v3.72h-1.494V5.427Zm8.688 5.357c-.746 0-1.336-.203-1.771-.609-.428-.413-.642-1.07-.642-1.97 0-.605.11-1.125.332-1.56.229-.436.531-.764.907-.986a2.461 2.461 0 0 1 1.284-.343c.576 0 1.066.133 1.472.399V3.214h1.494v7.46h-1.284l-.088-.487c-.229.2-.48.35-.753.454-.273.096-.59.144-.951.144Zm.409-1.096c.244 0 .458-.037.642-.11.185-.074.362-.196.531-.366v-2.39a1.587 1.587 0 0 0-1.084-.41c-.458 0-.805.151-1.041.454-.236.302-.354.749-.354 1.339 0 .539.107.922.321 1.151.221.221.55.332.985.332Z" fill="#fff"/></svg>