<svg width="117" height="61" fill="none" xmlns="http://www.w3.org/2000/svg"><path d="M110.17.951c-1.955.69-3.022 2.11-3.022 4.066 0 2.332 1.489 3.998 3.932 4.398 2.511.4 5.176-1.844 5.176-4.354 0-1.733-1.555-3.732-3.265-4.198-1.111-.311-1.777-.29-2.821.088Zm3.732 1c3.132 2.155 1.554 6.886-2.289 6.886-1.799 0-3.309-1.132-3.82-2.887-.467-1.578.444-3.488 2.066-4.31 1.044-.533 3.021-.378 4.043.311Z" fill="#fff"/><path d="M109.812 5.06c0 2.022.067 2.444.334 2.444.244 0 .333-.266.333-1.021v-1l1.177.067 1.155.066.111.889c.067.6.223.91.489.955.356.067.378-.044.245-1-.067-.577-.245-1.133-.378-1.244-.178-.11-.178-.2 0-.333.711-.489.422-1.91-.444-2.132-.245-.067-1.044-.134-1.733-.134h-1.289v2.444Zm2.999-.999c0 .644-.044.667-1.155.733l-1.177.067v-1.6l1.177.067c1.111.067 1.155.089 1.155.733ZM18.291 3.55c-2.31.334-6.02 1.667-8.019 2.888a20.209 20.209 0 0 0-7.775 8.708C1.031 18.301.676 19.99.676 23.832c0 3.932.377 5.687 1.955 8.886 4.087 8.33 13.372 12.84 23.591 11.418 9.197-1.267 15.439-8.086 15.994-17.483l.133-2.043H25.4v3.776h12.44v.555c0 .822-.822 3.155-1.622 4.554-1.066 1.91-3.62 4.265-5.775 5.332-2.4 1.177-3.777 1.532-6.598 1.71-8.264.467-15.372-3.976-18.193-11.374-.689-1.799-.778-2.265-.867-4.776-.11-3.154.2-4.842 1.289-7.241 2.888-6.398 9.93-10.508 17.171-10.019 4.354.311 8.442 2.11 12.373 5.51l1.489 1.265 1.422-1.421 1.399-1.422-.866-.889c-1.155-1.2-4.31-3.42-6.11-4.331-4.286-2.155-9.707-3-14.66-2.288ZM65.786 3.506c-7.175 1.133-12.973 5.398-15.86 11.684-1.222 2.6-1.711 5.065-1.711 8.42 0 5.864 1.732 10.462 5.42 14.417 4.22 4.509 10.108 6.664 17.172 6.286 4.198-.244 7.863-1.422 11.107-3.576 1.932-1.289 4.753-4.043 4.442-4.332-.11-.089-.8-.622-1.555-1.2l-1.355-1.021-.866.91c-2.177 2.266-5.376 4.177-8.308 4.976-2 .556-7.242.556-9.441.023-5.665-1.4-10.507-6.11-11.996-11.596-.577-2.088-.688-5.887-.244-8.13 1.022-5.043 4.354-9.264 9.13-11.552 2.377-1.133 3.976-1.533 6.775-1.688 5.354-.267 9.797 1.422 13.44 5.176l1.555 1.6L85 12.724l1.489-1.178-.889-1.11c-2.377-3.021-6.353-5.42-10.73-6.509-2.087-.51-7.063-.733-9.085-.422ZM94.266 23.832v19.66h19.104v-3.777H98.264V4.172h-3.998v19.66ZM76.16 49.911c-3 .778-4.732 3.865-3.888 6.93.289 1.045 1.6 2.556 2.755 3.133.666.356 1.332.489 2.465.489 1.311.022 1.733-.067 2.733-.622 3.576-2 3.665-7.286.155-9.264-1.2-.666-3.065-.977-4.22-.666Zm3.91 1.466c1.266.889 2.065 2.6 1.932 4.11-.289 2.888-2.71 4.665-5.62 4.132-.867-.178-2.4-1.422-2.866-2.333-1.11-2.221-.2-5.02 2.066-6.264 1.222-.667 3.243-.489 4.487.355ZM3.852 55.154v5.22h1.11v-10.44h-1.11v5.22ZM7.406 55.11v5.264H8.517l.044-3.887.067-3.866 3.221 3.666c1.755 2.021 3.332 3.776 3.488 3.91.222.177.289-.8.289-5.021 0-5.065-.023-5.243-.445-5.243s-.444.178-.488 4.043l-.067 4.043-3.088-3.554a327.59 327.59 0 0 0-3.62-4.087l-.512-.556v5.287ZM17.18 50.378c0 .4.155.444 1.221.444h1.222v4.776c0 4.62.022 4.776.444 4.776.423 0 .445-.156.445-4.776v-4.776h1.222c1.066 0 1.221-.044 1.221-.444 0-.422-.155-.445-2.887-.445-2.733 0-2.888.023-2.888.445ZM24.512 55.154v5.22h2.999c2.843 0 2.998-.022 2.998-.444s-.155-.444-2.554-.444H25.4v-4.443h2.555c2.399 0 2.555-.023 2.555-.445s-.156-.444-2.555-.444H25.4v-3.332h2.555c2.399 0 2.555-.022 2.555-.444s-.156-.445-3-.445h-2.998v5.22ZM32.285 55.132v5.242H33.396V57.93c0-1.932.066-2.443.31-2.443.156 0 1.134 1.088 2.156 2.444 1.599 2.088 1.954 2.443 2.488 2.443h.644l-1.178-1.51c-.644-.822-1.51-1.91-1.91-2.4l-.733-.91.889-.156c1.932-.31 2.665-1.088 2.665-2.843-.022-1.844-.977-2.444-4.154-2.577l-2.288-.111v5.265Zm4.998-3.732c.6.644.711 1.399.29 2.154-.445.844-.89 1.022-2.556 1.044h-1.621v-3.776h1.666c1.533 0 1.733.044 2.221.578ZM41.172 55.11v5.264H42.283l.044-3.887.067-3.866 3.22 3.666c1.756 2.021 3.333 3.776 3.488 3.91.222.177.29-.8.29-5.021 0-5.065-.023-5.243-.445-5.243s-.445.178-.489 4.043l-.067 4.043-3.087-3.554a327.604 327.604 0 0 0-3.621-4.087l-.511-.556v5.287ZM55.522 51.066c-.289.667-1.4 2.977-2.444 5.176-1.044 2.177-1.91 3.999-1.91 4.043 0 .045.222.089.51.089.423 0 .667-.311 1.378-1.777l.867-1.777H58.453l.844 1.777c.689 1.488.911 1.777 1.355 1.777.49 0 .511-.022.223-.622-.178-.333-1.244-2.599-2.377-5.043-1.133-2.443-2.155-4.531-2.244-4.642-.111-.134-.422.31-.733 1Zm1.71 3.133.8 1.732h-3.754l.933-1.888c.51-1.044 1-1.8 1.088-1.71.09.088.511.933.933 1.866ZM61.832 50.378c0 .4.155.444 1.222.444h1.222v4.776c0 4.62.022 4.776.444 4.776s.444-.156.444-4.776v-4.776h1.222c1.066 0 1.222-.044 1.222-.444 0-.422-.156-.445-2.888-.445-2.733 0-2.888.023-2.888.445ZM68.938 55.154v5.22h1.11v-10.44h-1.11v5.22ZM85.156 55.11v5.264H86.267l.044-3.887.067-3.866 3.221 3.666c1.755 2.021 3.332 3.776 3.488 3.91.222.177.288-.8.288-5.021 0-5.065-.022-5.243-.444-5.243s-.444.178-.489 4.043l-.066 4.043-3.088-3.554a327.604 327.604 0 0 0-3.62-4.087l-.512-.556v5.287ZM99.506 51.066c-.288.667-1.4 2.977-2.443 5.176-1.044 2.177-1.91 3.999-1.91 4.043 0 .045.221.089.51.089.422 0 .667-.311 1.377-1.777l.867-1.777h4.532l.844 1.777c.688 1.488.91 1.777 1.355 1.777.488 0 .511-.022.222-.622-.178-.333-1.244-2.599-2.377-5.043-1.133-2.443-2.155-4.531-2.244-4.642-.111-.134-.422.31-.733 1Zm1.711 3.133.799 1.732h-3.754l.933-1.888c.511-1.044 1-1.8 1.089-1.71.089.088.511.933.933 1.866ZM106.926 55.154v5.22h2.554c2.4 0 2.555-.022 2.555-.444s-.155-.444-2.11-.444h-2.111v-4.777c0-4.62-.022-4.776-.444-4.776s-.444.156-.444 5.22Z" fill="#fff"/></svg>