<svg width="92" height="257" fill="none" xmlns="http://www.w3.org/2000/svg"><g clip-path="url(#a)"><path d="m14.08 219.513 63.7.055c7.784.007 14.099-6.277 14.105-14.037l.112-127.357c.007-7.76-6.297-14.055-14.08-14.062l-63.701-.055C6.433 64.05.118 70.335.11 78.094L0 205.45c-.007 7.76 6.297 14.055 14.08 14.062Z" fill="#E0E0E0"/><path d="m33.054 148.986 25.87.022.074-84.935-25.87-.023-.074 84.936Z" fill="#CFDBE6"/><path d="m32.99 219.53 25.87.022.061-70.521-25.87-.022-.062 70.521Z" fill="#5782A7"/><path d="m37.764 33.033-.092 108.877h16.681l.115-108.854" fill="#fff"/><path d="M54.353 142.778H37.672a.91.91 0 0 1-.62-.274.87.87 0 0 1-.251-.594l.114-108.877c0-.48.39-.868.871-.868s.87.388.87.868l-.114 108.009h14.963l.115-107.986c0-.48.39-.868.87-.868a.87.87 0 0 1 .871.868l-.114 108.877a.87.87 0 0 1-.871.868l-.023-.023Z" fill="#3D3D3D"/><path d="m56.242 149.12-20.508-.017.004-4.843a2.33 2.33 0 0 1 2.34-2.329l15.81.014a2.329 2.329 0 0 1 2.336 2.332l-.005 4.843h.023Z" fill="#fff"/><path d="M56.256 149.974H35.748a.909.909 0 0 1-.619-.274.87.87 0 0 1-.252-.594v-4.843a3.213 3.213 0 0 1 3.208-3.199h15.81a3.218 3.218 0 0 1 3.209 3.222v4.843a.87.87 0 0 1-.871.868l.023-.023Zm-19.638-1.736h18.79v-3.975c0-.823-.665-1.485-1.49-1.485h-15.81c-.825 0-1.49.662-1.49 1.462v3.998Z" fill="#3D3D3D"/><path d="m33.661 219.537 10.974.01.005-6.729-10.973-.01-.006 6.729ZM47.212 219.524l10.995.01.006-6.728-10.996-.01-.005 6.728Z" fill="#fff" stroke="#3D3D3D" stroke-width=".585"/><path d="M45.944 233.219a1.133 1.133 0 0 1-1.145-1.142v-12.565c0-.639.504-1.142 1.145-1.142.642 0 1.146.503 1.146 1.142v12.565c0 .639-.504 1.142-1.146 1.142ZM45.968 257a1.133 1.133 0 0 1-1.146-1.142v-12.565c0-.639.504-1.142 1.146-1.142.642 0 1.146.503 1.146 1.142v12.565c0 .639-.504 1.142-1.146 1.142Z" fill="#5782A7"/><path d="m74.22 33.924-56.231-.046a5.546 5.546 0 0 1-5.546-5.55v-22.8c0-1.485.596-2.878 1.65-3.906A5.523 5.523 0 0 1 18.012 0l56.23.046c1.49 0 2.888.57 3.919 1.622a5.489 5.489 0 0 1 1.627 3.906v22.799c-.023 1.485-.596 2.878-1.65 3.906-1.054 1.028-2.452 1.622-3.918 1.622v.023ZM18.034 1.714c-1.03 0-1.993.388-2.703 1.119a3.78 3.78 0 0 0-1.123 2.695v22.8c0 2.1 1.695 3.837 3.804 3.837l56.23.046a3.828 3.828 0 0 0 3.827-3.815v-22.8c0-1.027-.366-1.987-1.1-2.695a3.803 3.803 0 0 0-2.703-1.12l-56.232-.045v-.023Z" fill="#3D3D3D"/></g><defs><clipPath id="a"><path fill="#fff" d="M0 0h92v257H0z"/></clipPath></defs></svg>