<svg width="258" height="230" viewBox="0 0 258 230" fill="none" xmlns="http://www.w3.org/2000/svg">
<path d="M200.162 93.0974H158.277V217.338H200.162V93.0974Z" fill="#5782A7"/>
<path d="M254.546 218.288H12.2487C11.7097 218.288 11.2734 217.852 11.2734 217.313V3.58017C11.2734 3.04122 11.7097 2.60493 12.2487 2.60493C12.7876 2.60493 13.2239 3.04122 13.2239 3.58017V216.338H254.571C255.11 216.338 255.547 216.774 255.547 217.313C255.547 217.852 255.11 218.288 254.571 218.288H254.546Z" fill="#3D3D3D"/>
<path d="M23.5149 13.1786C23.2583 13.1786 23.0273 13.076 22.822 12.8963L12.2483 2.29696L1.64893 12.8963C1.26397 13.2813 0.673689 13.2813 0.288724 12.8963C-0.0962413 12.5114 -0.0962413 11.9211 0.288724 11.5361L11.5554 0.269476C11.9147 -0.0898252 12.5563 -0.0898252 12.9156 0.269476L24.1822 11.5361C24.5672 11.9211 24.5672 12.5114 24.1822 12.8963C24.0026 13.076 23.7459 13.1786 23.5149 13.1786Z" fill="#3D3D3D"/>
<path d="M245.566 229.349C245.309 229.349 245.078 229.247 244.873 229.067C244.488 228.682 244.488 228.092 244.873 227.707L255.472 217.133L244.873 206.534C244.488 206.149 244.488 205.558 244.873 205.174C245.258 204.789 245.848 204.789 246.233 205.174L257.5 216.44C257.679 216.62 257.782 216.876 257.782 217.133C257.782 217.39 257.679 217.646 257.5 217.826L246.233 229.093C246.053 229.272 245.797 229.375 245.566 229.375V229.349Z" fill="#3D3D3D"/>
<path d="M234.117 42.9493C236.938 42.9493 239.224 40.6627 239.224 37.8421C239.224 35.0215 236.938 32.7349 234.117 32.7349C231.296 32.7349 229.01 35.0215 229.01 37.8421C229.01 40.6627 231.296 42.9493 234.117 42.9493Z" fill="#3D3D3D"/>
<path d="M193.823 127.282H164.155C163.616 127.282 163.18 126.846 163.18 126.307C163.18 125.768 163.616 125.332 164.155 125.332H193.823C194.362 125.332 194.798 125.768 194.798 126.307C194.798 126.846 194.362 127.282 193.823 127.282Z" fill="white"/>
<path d="M191.286 131.594C191.08 131.594 190.849 131.517 190.67 131.389C190.259 131.055 190.208 130.439 190.541 130.028L193.518 126.41L190.593 123.433C190.233 123.048 190.233 122.457 190.593 122.072C190.978 121.713 191.568 121.713 191.953 122.072L195.469 125.665C195.802 126.025 195.828 126.564 195.52 126.949L192.004 131.235C191.824 131.466 191.542 131.594 191.26 131.594H191.286Z" fill="white"/>
<path d="M167.494 131.414C167.237 131.414 166.98 131.312 166.801 131.132L162.925 127.154C162.592 126.795 162.566 126.256 162.874 125.871L166.082 121.995C166.416 121.585 167.032 121.533 167.442 121.867C167.853 122.201 167.904 122.817 167.571 123.227L164.901 126.435L168.161 129.797C168.52 130.182 168.52 130.798 168.161 131.158C167.981 131.337 167.725 131.44 167.494 131.44V131.414Z" fill="white"/>
<path d="M104.461 178.714C99.6107 178.714 95.4787 168.782 89.8069 155.025C82.5182 137.394 73.4331 115.451 60.7805 112.756C38.7349 108.085 12.5829 109.266 12.3263 109.266C11.7873 109.292 11.351 108.881 11.3254 108.342C11.2997 107.803 11.7103 107.367 12.2493 107.341C12.5059 107.341 38.9145 106.135 61.2168 110.857C74.8703 113.757 84.1608 136.213 91.6291 154.256C96.4283 165.83 100.945 176.763 104.513 176.763C108.08 176.763 110.672 162.853 113.007 150.586C116.985 129.797 121.502 106.238 133.462 106.238H143.856C146.32 106.238 148.347 104.21 148.347 101.746C148.347 96.2285 152.839 91.7629 158.331 91.7629H196.083C206.246 91.7629 215.075 84.8848 217.564 75.004L225.571 43.1546C225.931 41.7174 226.469 40.4855 227.214 39.4333C227.907 38.4324 228.779 37.6111 229.832 36.9695C230.268 36.6872 230.884 36.8412 231.166 37.2775C231.448 37.7394 231.294 38.3297 230.858 38.612C230.062 39.0996 229.37 39.7669 228.831 40.5368C228.24 41.3838 227.778 42.4103 227.47 43.6166L219.463 75.466C216.768 86.1937 207.17 93.662 196.109 93.662H158.356C153.916 93.662 150.298 97.2807 150.298 101.721C150.298 105.262 147.423 108.137 143.882 108.137H133.488C123.094 108.137 118.577 131.851 114.907 150.919C111.519 168.628 109.363 178.662 104.513 178.662L104.461 178.714Z" fill="#3D3D3D"/>
</svg>
