<svg width="239" height="253" fill="none" xmlns="http://www.w3.org/2000/svg"><path d="M9.871 174.911 159.785 36.624c10.388-10.687 27.107-12.43 42.77-5.985 8.646 4.38 16.42 10.25 23.369 17.543 5.045 6.192 8.577 13.026 10.503 19.906 1.101 3.968 1.697 7.935 1.72 11.81.115 9.128-2.844 17.682-9.036 24.035L99.241 223.758l-10.755 9.93-11.352 10.48" fill="#fff"/><path d="M77.111 245.017a.907.907 0 0 1-.642-.275.866.866 0 0 1 .046-1.216l151.977-140.212c5.825-6.009 8.875-14.104 8.738-23.392 0-3.715-.574-7.591-1.674-11.604-1.927-6.88-5.504-13.668-10.343-19.585-6.857-7.201-14.609-13.026-23.071-17.315-15.824-6.49-31.808-4.311-41.692 5.734-.023.045-.069.091-.115.137L10.445 175.553a.866.866 0 0 1-1.216-.046.867.867 0 0 1 .046-1.216L159.097 36.074l.069-.07c10.365-10.64 27.106-13.002 43.733-6.168 8.714 4.426 16.649 10.389 23.667 17.75.046.046.069.092.092.115 4.953 6.1 8.622 13.072 10.595 20.135 1.146 4.15 1.743 8.187 1.743 12.04.114 9.609-3.165 18.37-9.265 24.63L77.707 244.765a.798.798 0 0 1-.573.229l-.023.023Z" fill="#3D3D3D"/><path d="M149.924 62.951c1.904 1.101 2.316 3.027.94 4.312l-63.501 59.19c-1.376 1.284-4.037 1.445-5.94.344-1.904-1.101-4.564-.94-5.94.344l-21.626 20.158c8.463.78 18.186 3.647 25.984 11.26l19.172-17.865c1.376-1.284.963-3.233-.94-4.311-1.904-1.101-2.317-3.027-.94-4.311l63.501-59.19c1.376-1.285 4.036-1.445 5.94-.345 1.903 1.101 4.563.94 5.939-.344l22.062-20.043c.458-.436.527-1.17.092-1.651-5.825-6.422-17.43-10.297-25.663-9.816-.55.023-1.054.276-1.444.642l-18.553 17.292c-1.376 1.284-.963 3.234.94 4.311l-.023.023Z" fill="#939393"/><path d="M236.888 74.716c.344 1.216.367 3.28.574 4.495.114 9.127-3.257 18.278-9.449 24.63L98.143 223.666l-15.686 14.471c2.89-5.504 6.009-15.411 5.137-20.731l149.294-142.69Z" fill="#E0E0E0"/><path d="M50.763 168.466a.297.297 0 0 1-.275-.183c-.046-.138 0-.321.16-.367.138-.069.321 0 .39.161a.288.288 0 0 1-.16.367s-.07.022-.092.022h-.023Z" fill="#282828" opacity=".49"/><path d="M85.665 203.715a52.266 52.266 0 0 0-1.903-4.816 68.103 68.103 0 0 0-2.27-4.472 56.938 56.938 0 0 0-2.615-4.151 46.185 46.185 0 0 0-2.912-3.876c-.23-.298-.482-.55-.712-.848-.802-.941-1.605-1.858-2.5-2.752-.527-.574-1.054-1.101-1.605-1.652a65.539 65.539 0 0 0-1.834-1.697 48.477 48.477 0 0 0-3.761-3.096 43.821 43.821 0 0 0-4.036-2.82 48.283 48.283 0 0 0-4.335-2.523 43.774 43.774 0 0 0-4.724-2.179 26.436 26.436 0 0 0-1.697-.665 67.608 67.608 0 0 0-3.623-1.192 46.976 46.976 0 0 0-5.688-1.262 41.637 41.637 0 0 0-6.444-.573 40.856 40.856 0 0 0-7.706.642c-5.595 1.055-10.778 3.348-15.09 6.972l-.091.069c-.78.642-1.537 1.33-2.248 2.087-4.036 4.15-6.673 9.196-8.003 14.723a36.003 36.003 0 0 0-1.01 7.568c-.091 2.086 0 4.196.276 6.352.206 1.858.55 3.761 1.032 5.619.413 1.788.963 3.554 1.605 5.343a46.934 46.934 0 0 0 1.995 4.724 50.873 50.873 0 0 0 2.362 4.403 49.97 49.97 0 0 0 2.66 4.105c.94 1.308 1.904 2.569 2.982 3.807a47.294 47.294 0 0 0 3.256 3.578l.872.871c.871.849 1.766 1.652 2.637 2.454a91.355 91.355 0 0 0 3.807 3.027 63.908 63.908 0 0 0 4.105 2.752c1.445.895 2.936 1.697 4.426 2.454a51.495 51.495 0 0 0 4.793 2.11 66.204 66.204 0 0 0 5.229 1.697c1.95.505 3.899.894 5.825 1.124 2.224.298 4.426.435 6.605.413a39.275 39.275 0 0 0 8.118-.987c5.986-1.398 11.398-4.311 15.71-8.737 3.623-3.738 6.145-8.21 7.567-13.095.78-2.545 1.239-5.206 1.422-7.935a38.48 38.48 0 0 0-.115-6.49c-.137-1.903-.481-3.853-.894-5.779a47.634 47.634 0 0 0-1.468-5.206v-.091Z" fill="#fff"/><path d="M54.661 252.837c-2.018 0-4.06-.137-6.054-.413a44.745 44.745 0 0 1-5.917-1.146 55.408 55.408 0 0 1-5.32-1.72c-1.766-.688-3.372-1.376-4.862-2.133a56.86 56.86 0 0 1-4.495-2.477 59.459 59.459 0 0 1-4.174-2.775c-1.193-.871-2.454-1.88-3.853-3.05a67.77 67.77 0 0 1-2.683-2.477l-.871-.871a50.514 50.514 0 0 1-3.303-3.623 64.014 64.014 0 0 1-3.004-3.83c-1.032-1.445-1.926-2.798-2.706-4.174a50.003 50.003 0 0 1-2.385-4.472 50.74 50.74 0 0 1-2.041-4.816c-.665-1.835-1.239-3.646-1.628-5.435a42.578 42.578 0 0 1-1.055-5.733 38.643 38.643 0 0 1-.276-6.49 36.051 36.051 0 0 1 1.032-7.729c1.422-5.871 4.174-10.962 8.21-15.136a32.298 32.298 0 0 1 2.317-2.155c4.426-3.693 9.632-6.101 15.594-7.224 2.5-.459 5.183-.688 7.866-.665 2.248.045 4.472.229 6.582.596 1.926.298 3.876.734 5.802 1.284 1.193.344 2.408.734 3.578 1.17.045 0 .068 0 .114.023.574.206 1.147.435 1.743.688 1.537.596 3.142 1.353 4.77 2.201 1.537.803 3.027 1.651 4.403 2.569a47.195 47.195 0 0 1 4.105 2.866 59.046 59.046 0 0 1 3.807 3.142c.62.551 1.262 1.124 1.858 1.72.596.596 1.147 1.124 1.651 1.697.872.895 1.72 1.812 2.523 2.775l.734.872a52.813 52.813 0 0 1 2.935 3.921c.894 1.284 1.766 2.706 2.637 4.197a60.224 60.224 0 0 1 2.317 4.541c.71 1.536 1.33 3.119 1.949 4.884a51.58 51.58 0 0 1 1.49 5.298c.482 2.133.78 4.059.918 5.894.23 2.201.275 4.426.115 6.627-.184 2.867-.666 5.596-1.445 8.119-1.49 5.137-4.105 9.677-7.775 13.461-4.288 4.426-9.884 7.522-16.144 8.99-2.706.642-5.504.963-8.302 1.009h-.757Zm-20.112-86.824c-2.454 0-4.84.206-7.087.619-5.664 1.055-10.595 3.348-14.7 6.788-.986.803-1.674 1.445-2.27 2.087-3.83 3.944-6.444 8.783-7.797 14.333a34.296 34.296 0 0 0-.986 7.384c-.092 2.042 0 4.128.275 6.215.206 1.812.55 3.67 1.009 5.527.39 1.72.94 3.486 1.582 5.252a49.906 49.906 0 0 0 1.972 4.655 47.05 47.05 0 0 0 2.317 4.335c.756 1.33 1.628 2.637 2.614 4.036a53.222 53.222 0 0 0 2.935 3.738c.94 1.147 1.996 2.293 3.211 3.532l.872.871a85.226 85.226 0 0 0 2.614 2.408 70.959 70.959 0 0 0 3.738 2.958 56.14 56.14 0 0 0 4.036 2.707c1.537.94 2.959 1.72 4.358 2.408a48.28 48.28 0 0 0 4.724 2.064 67.922 67.922 0 0 0 5.16 1.674c1.949.504 3.875.871 5.71 1.1 2.133.299 4.334.459 6.467.39a38.336 38.336 0 0 0 7.935-.963c6.031-1.399 11.168-4.265 15.296-8.508 3.463-3.578 5.94-7.866 7.362-12.751.734-2.408 1.192-5.022 1.376-7.751.137-2.087.114-4.22-.115-6.353-.137-1.788-.436-3.623-.894-5.664a53.95 53.95 0 0 0-1.422-5.114 43.06 43.06 0 0 0-1.88-4.724 61.09 61.09 0 0 0-2.248-4.404c-.849-1.444-1.697-2.82-2.569-4.082-.894-1.284-1.834-2.568-2.866-3.807l-.711-.848a44.222 44.222 0 0 0-2.431-2.683c-.504-.551-1.032-1.078-1.536-1.583a62.202 62.202 0 0 0-1.858-1.72c-1.147-1.055-2.362-2.041-3.692-3.05a41.302 41.302 0 0 0-3.968-2.775 48.738 48.738 0 0 0-4.288-2.499c-1.56-.826-3.12-1.56-4.633-2.133a36.269 36.269 0 0 0-1.56-.619c-.045 0-.09 0-.137-.046a49.942 49.942 0 0 0-3.577-1.17 46.934 46.934 0 0 0-5.596-1.238 43.456 43.456 0 0 0-6.33-.573h-.435l.023-.023Z" fill="#3D3D3D"/><path d="M1.87 189.932s-.16-.023-.206-.092c-.115-.115-.092-.298 0-.413l25.432-23.85s.299-.092.413 0c.115.115.092.298 0 .413L2.076 189.863s-.137.069-.206.069ZM29.434 170.691s-.16-.023-.206-.092c-.115-.114-.092-.298 0-.413l5.55-5.251a.29.29 0 0 1 .413 0c.114.114.091.298 0 .413l-5.55 5.251s-.115.069-.207.069v.023ZM.862 197.5s-.16-.023-.206-.092c-.115-.115-.092-.298 0-.413l5.206-4.908s.068-.045.114-.068a.3.3 0 0 1 .367.183c.046.138 0 .252-.114.321l-5.16 4.862s-.138.069-.207.069v.046ZM36.798 170.393s-.16-.023-.207-.092c-.114-.115-.091-.298 0-.413l4.656-4.357c.114-.115.298-.092.413 0 .114.115.091.298 0 .413l-4.656 4.357s-.137.069-.206.069v.023ZM1.134 203.852s-.16-.023-.207-.092c-.114-.114-.091-.298 0-.412l4.266-4.014s.092-.068.137-.068a.294.294 0 0 1 .367.206c.023.138 0 .252-.137.321l-4.243 3.967s-.137.069-.206.069l.023.023ZM42.944 171.218s-.16-.022-.206-.091c-.115-.115-.092-.298 0-.413l4.197-3.922c.114-.114.298-.091.412 0 .115.115.092.298 0 .413l-4.196 3.922s-.138.069-.207.069v.022ZM2.165 209.471s-.16-.023-.207-.092c-.114-.115-.091-.298 0-.413l3.784-3.531s.07-.092.138-.115c.138-.046.298 0 .367.16a.317.317 0 0 1-.069.321l-3.807 3.578s-.137.069-.206.069v.023ZM48.561 172.801s-.16-.023-.206-.092c-.115-.115-.092-.298 0-.413l3.899-3.669c.114-.115.298-.092.412 0 .115.115.092.298 0 .413l-3.898 3.669s-.138.069-.207.069v.023ZM3.774 214.814s-.16-.023-.206-.092c-.115-.114-.092-.298 0-.412l3.577-3.349s.299-.091.413 0c.115.115.092.299 0 .413l-3.577 3.348s-.115.069-.184.069l-.023.023ZM5.766 219.538s-.16-.023-.206-.091c-.115-.115-.092-.298 0-.413l3.394-3.211a.292.292 0 0 1 .413 0c.115.115.092.298 0 .413l-3.394 3.211s-.115.068-.207.068v.023ZM53.468 174.819s-.16-.023-.207-.092c-.114-.115-.092-.298 0-.413l3.715-3.486s.046-.045.092-.045c.138-.069.321 0 .39.137.046.138 0 .275-.115.344l-3.669 3.463s-.138.069-.206.069v.023ZM8.132 223.942s-.16-.023-.207-.092c-.114-.115-.091-.298 0-.413l3.303-3.096c.114-.115.298-.092.412 0 .115.115.092.298 0 .413l-3.302 3.096s-.138.069-.206.069v.023ZM57.94 177.227s-.16-.023-.206-.092c-.115-.115-.092-.298 0-.413l3.6-3.394c.115-.114.298-.092.413 0 .115.115.092.298 0 .413l-3.6 3.394s-.138.069-.207.069v.023ZM10.792 228.047s-.16-.023-.207-.092c-.114-.115-.091-.298 0-.413l3.257-3.05c.115-.115.298-.092.413 0 .114.115.091.298 0 .413l-3.257 3.05s-.137.069-.206.069v.023ZM62.048 179.979s-.16-.023-.207-.092c-.114-.115-.091-.298 0-.413l3.532-3.325c.115-.115.298-.092.413 0 .114.115.091.298 0 .413l-3.532 3.325s-.137.069-.206.069v.023ZM13.77 231.853s-.16-.022-.206-.091c-.115-.115-.092-.298 0-.413l3.188-2.981s.298-.092.413 0c.114.114.091.298 0 .412l-3.188 2.982s-.138.069-.207.069v.022ZM65.833 183.052s-.16-.023-.207-.092c-.114-.115-.091-.298 0-.413l3.51-3.279s.297-.092.412 0c.115.115.092.298 0 .413l-3.509 3.279s-.137.069-.206.069v.023ZM17.028 235.408s-.16-.023-.206-.092c-.115-.114-.092-.298 0-.412l3.188-3.005a.292.292 0 0 1 .412 0c.115.115.092.299 0 .413l-3.187 3.004s-.115.069-.207.069v.023ZM69.294 186.354s-.16-.023-.207-.091c-.114-.115-.091-.299 0-.413l3.463-3.257s.298-.092.413 0c.115.115.092.298 0 .413l-3.463 3.257s-.137.068-.206.068v.023ZM20.54 238.733s-.16-.023-.206-.091c-.115-.115-.092-.299 0-.413l3.21-3.027a.29.29 0 0 1 .413 0c.115.114.092.298 0 .412l-3.21 3.028s-.115.068-.207.068v.023ZM72.477 190.001s-.16-.023-.206-.092c-.115-.115-.092-.298 0-.413l3.509-3.279s.298-.092.413 0c.114.114.091.298 0 .412l-3.51 3.28s-.137.069-.206.069v.023ZM24.343 241.738s-.16-.023-.207-.092c-.114-.115-.091-.298 0-.413l3.257-3.073a.29.29 0 0 1 .412 0c.115.115.092.298 0 .413l-3.256 3.073s-.115.069-.206.069v.023ZM75.347 193.899s-.161-.023-.207-.092c-.115-.114-.092-.298 0-.412l3.532-3.326s.298-.091.413 0c.114.115.091.298 0 .413l-3.532 3.325s-.138.069-.206.069v.023ZM28.45 244.49s-.16-.023-.206-.092c-.115-.115-.092-.298 0-.413l3.325-3.119c.115-.114.298-.092.413 0 .114.115.092.298 0 .413l-3.326 3.119s-.137.069-.206.069v.023ZM77.893 198.096s-.16-.023-.206-.092c-.115-.114-.092-.298 0-.413l3.6-3.371c.115-.114.299-.091.413 0 .115.115.092.298 0 .413l-3.6 3.371s-.138.069-.207.069v.023ZM32.874 246.943s-.16-.023-.207-.091c-.114-.115-.091-.298 0-.413l3.44-3.234s.299-.091.413 0c.115.115.092.298 0 .413l-3.44 3.234s-.137.068-.206.068v.023ZM80.048 202.683s-.16-.023-.207-.092c-.114-.115-.091-.298 0-.413l3.716-3.486a.292.292 0 0 1 .412 0c.115.115.092.298 0 .413l-3.715 3.486s-.115.069-.206.069v.023ZM37.667 249.03s-.16-.023-.207-.091c-.114-.115-.091-.299 0-.413l3.624-3.394c.114-.115.298-.092.413 0 .114.114.091.298 0 .412l-3.624 3.395s-.137.068-.206.068v.023ZM81.813 207.636s-.16-.023-.206-.092c-.115-.114-.092-.298 0-.412l3.876-3.647s.298-.092.412 0c.115.115.092.298 0 .413l-3.875 3.646s-.138.069-.207.069v.023ZM42.92 250.727s-.16-.023-.206-.091c-.114-.115-.091-.299 0-.413l3.922-3.669s.298-.092.413 0c.114.114.091.298 0 .412l-3.922 3.67s-.114.068-.183.068l-.023.023ZM82.983 213.117s-.16-.023-.206-.092c-.115-.114-.092-.298 0-.412l4.15-3.899s.299-.092.413 0c.115.115.092.298 0 .413l-4.15 3.898s-.138.069-.207.069v.023ZM48.745 251.851s-.16-.023-.206-.092c-.115-.114-.092-.298 0-.412l4.403-4.105s.298-.092.413 0c.114.114.091.298 0 .412l-4.404 4.105s-.114.069-.183.069l-.023.023ZM83.395 219.332s-.16-.023-.206-.092c-.115-.114-.092-.298 0-.413l4.632-4.334s.299-.092.413 0c.115.115.092.298 0 .413l-4.632 4.334s-.115.069-.184.069l-.023.023ZM55.329 252.264s-.16-.023-.206-.092c-.115-.115-.092-.298 0-.413l5.48-5.114s.299-.091.413 0c.115.115.092.298 0 .413l-5.48 5.114s-.115.069-.184.069l-.023.023ZM82.458 226.854s-.16-.023-.207-.092c-.114-.114-.091-.298 0-.412l5.688-5.367s.298-.092.413 0c.114.115.091.298 0 .413l-5.688 5.366s-.137.069-.206.069v.023ZM63.467 251.278c-.115 0-.253-.092-.276-.207-.046-.137 0-.252.115-.321l23.231-21.809c.115-.115.298-.092.413 0 .115.115.092.298 0 .413l-23.277 21.855s-.069.046-.115.069h-.091Z" fill="#282828" opacity=".49"/><path d="M82.98 212.842c.322 2.087.46 4.174.437 6.215 0 2.591-.344 5.091-.964 7.499-1.17 4.701-3.44 8.99-6.857 12.498-4.013 4.128-9.127 6.72-14.791 7.821a33.916 33.916 0 0 1-7.66.596c-2.087-.046-4.174-.298-6.307-.688a44.525 44.525 0 0 1-5.526-1.422 55.643 55.643 0 0 1-4.977-1.926 50.365 50.365 0 0 1-4.564-2.34 53.545 53.545 0 0 1-4.174-2.683 51.947 51.947 0 0 1-3.83-2.981c-.94-.803-1.88-1.628-2.774-2.523-.252-.252-.505-.481-.757-.756a52.2 52.2 0 0 1-3.234-3.555 42.407 42.407 0 0 1-2.912-3.853 41.806 41.806 0 0 1-2.614-4.151c-.826-1.49-1.606-2.981-2.248-4.518a44.924 44.924 0 0 1-1.812-4.884 40.331 40.331 0 0 1-1.376-5.573c-.344-2.064-.55-4.082-.573-6.054-.069-2.477.16-4.908.642-7.224.803-4.105 2.454-7.935 4.93-11.237a23.707 23.707 0 0 1 2.202-2.615 25.938 25.938 0 0 1 4.541-3.715h.023c3.463-2.293 7.407-3.715 11.627-4.334a32.636 32.636 0 0 1 7.362-.298c2.018.114 4.082.389 6.146.825 1.88.39 3.738.917 5.618 1.582a49.936 49.936 0 0 1 4.885 2.019 56.369 56.369 0 0 1 4.472 2.408c1.376.848 2.775 1.742 4.105 2.752a51.485 51.485 0 0 1 3.784 3.073c.688.596 1.353 1.238 2.041 1.857.505.482.963.963 1.445 1.445a52.02 52.02 0 0 1 3.165 3.623 46.04 46.04 0 0 1 2.866 3.899 62.003 62.003 0 0 1 2.546 4.197 55.519 55.519 0 0 1 2.178 4.586c.688 1.652 1.285 3.303 1.743 4.954a38.949 38.949 0 0 1 1.17 5.481h.023Z" fill="#F7F7F7"/><path d="M54.293 248.342H53.1c-2.018-.046-4.128-.275-6.444-.711-1.88-.344-3.784-.848-5.642-1.444a45.739 45.739 0 0 1-5.068-1.973 54.774 54.774 0 0 1-4.632-2.362 53.454 53.454 0 0 1-4.243-2.729 45.569 45.569 0 0 1-3.899-3.05 48.988 48.988 0 0 1-2.82-2.545 13.507 13.507 0 0 1-.803-.803c-1.009-1.009-2.087-2.202-3.256-3.578a47.262 47.262 0 0 1-2.959-3.921c-.917-1.262-1.789-2.66-2.66-4.197a53.275 53.275 0 0 1-2.293-4.587c-.711-1.582-1.308-3.21-1.858-4.976a40.057 40.057 0 0 1-1.399-5.665c-.367-2.132-.573-4.219-.573-6.191v-.666c0-2.293.206-4.563.665-6.742l.115-.504c.894-4.128 2.568-7.843 4.976-11.077a27.777 27.777 0 0 1 2.27-2.706 26.317 26.317 0 0 1 4.702-3.853c3.508-2.293 7.545-3.807 11.994-4.472 2.522-.367 5.045-.481 7.545-.298 2.064.115 4.173.39 6.283.849 1.904.389 3.784.917 5.734 1.605 1.513.527 3.141 1.192 4.976 2.041a52.823 52.823 0 0 1 4.54 2.454c1.629 1.009 2.96 1.88 4.175 2.798a49.22 49.22 0 0 1 3.83 3.118c.665.574 1.33 1.193 1.995 1.835.481.482.894.872 1.284 1.284l.23.23a55.464 55.464 0 0 1 3.233 3.692 50.622 50.622 0 0 1 2.912 3.967 62.108 62.108 0 0 1 2.592 4.266 51.78 51.78 0 0 1 2.201 4.678 39.989 39.989 0 0 1 1.766 5.046c.55 1.972.963 3.806 1.193 5.595.32 2.11.481 4.266.435 6.353a30.72 30.72 0 0 1-.986 7.705c-1.238 5.023-3.623 9.357-7.063 12.889-4.013 4.128-9.288 6.902-15.25 8.072a35.935 35.935 0 0 1-6.674.619l.069-.046ZM6.27 200.229c.046 1.697.23 3.44.55 5.228.321 1.858.78 3.693 1.353 5.481.528 1.72 1.101 3.28 1.789 4.793.596 1.399 1.33 2.844 2.225 4.45.848 1.49 1.674 2.82 2.568 4.059a51.625 51.625 0 0 0 2.867 3.807c1.146 1.353 2.178 2.499 3.187 3.508.253.276.505.528.757.757a46.135 46.135 0 0 0 2.752 2.477 51.983 51.983 0 0 0 3.784 2.935 48.32 48.32 0 0 0 4.128 2.638 48.348 48.348 0 0 0 4.472 2.293c1.536.711 3.165 1.33 4.885 1.903A42.568 42.568 0 0 0 47 245.957c2.202.413 4.22.642 6.169.688a33.573 33.573 0 0 0 7.476-.573c5.619-1.101 10.572-3.715 14.333-7.568 3.234-3.302 5.458-7.384 6.628-12.109.596-2.339.917-4.816.917-7.315a34.006 34.006 0 0 0-.412-6.078c-.23-1.72-.62-3.462-1.147-5.366a42.62 42.62 0 0 0-1.72-4.862 45.826 45.826 0 0 0-2.133-4.518 55.059 55.059 0 0 0-2.5-4.127c-.917-1.354-1.857-2.661-2.82-3.83a59.997 59.997 0 0 0-3.12-3.578l-.229-.229c-.39-.39-.78-.803-1.192-1.193a46.855 46.855 0 0 0-1.995-1.834 58.178 58.178 0 0 0-3.738-3.028 51.39 51.39 0 0 0-4.037-2.706 53.274 53.274 0 0 0-4.38-2.385 51.364 51.364 0 0 0-4.793-1.972 43.143 43.143 0 0 0-5.504-1.559 36.578 36.578 0 0 0-6.031-.803 32.711 32.711 0 0 0-7.178.298c-4.22.642-8.004 2.041-11.283 4.174a25.212 25.212 0 0 0-4.427 3.623c-.825.872-1.536 1.697-2.132 2.523-2.385 3.165-3.99 6.811-4.793 10.893l-.115.528a32.392 32.392 0 0 0-.527 6.536v.688l-.046-.046Z" fill="#3D3D3D"/><path d="M151.785 62.905c1.72.895 2.155 3.12.779 4.38l-64.35 60.406c-1.376 1.262-5.251 2.11-6.971 1.216-1.72-.895-4.22-.596-5.596.665l-19.608 18.002c7.04.276 16.26 5.619 22.864 11.834l19.31-17.819c1.376-1.262 2.546-3.027.321-4.862-1.238-.642-2.912-3.096-1.651-4.495l63.502-59.42c1.376-1.26 4.403-1.192 6.123-.298 1.72.895 4.724 1.422 7.361-1.65l19.86-18.003a.751.751 0 0 0 .069-1.032c-5.068-5.734-17.062-9.586-24.928-8.623-.459.046-.872.275-1.216.573L151.12 58.961c-1.376 1.261-1.078 3.027.642 3.922l.023.022Z" fill="#F7F7F7"/><path d="M139.95 39.72c1.72.895 2.155 3.12.779 4.38l-64.35 60.406c-1.376 1.261-4.907 2.248-6.605 1.284-1.697-.94-4.22-.711-5.618.528l-22.039 19.287c7.04.435 18.14 4.242 24.584 10.64l19.723-17.337c1.399-1.238 2.614-2.958.436-4.839-1.216-.688-3.073-3.6-1.812-4.999l63.731-60.337c1.376-1.261 3.853-.872 5.573.023l.114.046c1.72.894 4.495 1.123 7.362-1.651l20.066-17.453c.298-.275.344-.756.069-1.032-7.453-7.315-13.141-9.563-24.928-8.622-.459.046-.872.275-1.216.573l-16.534 15.182c-1.376 1.26-1.078 3.027.642 3.921h.023Z" fill="#6898BC"/><path d="m198.843 0-17.36 5.275.596.39 2.523 1.674-7.797 6.237c2.087.367 3.463 1.262 4.151 2.706l7.797-6.214 3.119 2.064L198.82 0h.023ZM30.122 146.221l16.719-7.086-.62-.367-2.637-1.491 7.362-6.742c-.688-1.743-2.156-2.5-4.312-2.431l-7.384 6.72-3.257-1.858-5.893 13.255h.022Z" fill="#FF4343"/><path d="M42.117 121.041v4.541s16.168 1.765 24.218 10.641l.367-4.541c-6.238-6.926-14.517-10.366-24.585-10.641Z" fill="#74A5C4"/><path d="m87.962 110.927.114 5.183-4.311 3.142-.206-5.114 4.403-3.211ZM138.436 33.092v4.45l5.939.917-1.674-6.1-4.265.733ZM182.149 24.447v4.816l-2.707 2.66-3.417-5.045 6.124-2.431Z" fill="#6898BC"/><path d="M139.95 35.18c1.72.894 2.155 3.118.779 4.38l-64.35 60.405c-1.376 1.262-4.907 2.248-6.605 1.285-1.697-.941-4.22-.711-5.618.527l-22.039 19.287c7.04.435 18.14 4.242 24.584 10.641l19.723-17.338c1.399-1.238 2.614-2.958.436-4.839-1.216-.688-3.073-3.6-1.812-4.999l63.502-59.42c1.376-1.261 4.403-1.192 6.123-.298 1.72.895 4.724 1.422 7.361-1.651l19.86-18.002c.298-.276.344-.757.069-1.032-7.453-7.316-13.141-9.564-24.928-8.623-.459.046-.872.275-1.216.573l-16.534 15.182c-1.376 1.261-1.078 3.027.642 3.921h.023Z" fill="#5782A7"/></svg>