<svg width="263" height="249" fill="none" xmlns="http://www.w3.org/2000/svg"><path d="m231.995 25.657 23.979-9.137-.878-.542-3.639-2.246 10.763-9.137c-.877-2.478-2.916-3.666-5.962-3.666l-10.79 9.112-4.491-2.788-9.008 18.404h.026Z" fill="#FF4343"/><path d="M209.925 7.098a.913.913 0 0 1-.439-.103 60.288 60.288 0 0 0-3.51-1.626 49.036 49.036 0 0 0-4.388-1.626c-.491-.18-.955-.31-1.394-.44-.052 0-.103 0-.155-.025-1.058-.31-2.116-.542-3.123-.748-1.575-.31-3.123-.517-4.595-.568a20.404 20.404 0 0 0-2.168-.026h-.026a.989.989 0 0 1-.981-.93c0-.541.413-.98.93-1.006.748 0 1.548 0 2.349.052 1.548.077 3.2.284 4.878.62a50.21 50.21 0 0 1 3.149.748h.103c.517.129 1.059.31 1.627.49a47.566 47.566 0 0 1 4.542 1.678 55.86 55.86 0 0 1 3.64 1.678c.465.232.671.826.439 1.29-.181.336-.517.542-.852.542h-.026ZM239.895 88.741h-.697c-1.523 0-3.175-.18-4.905-.464a49.654 49.654 0 0 1-4.723-1.11 56.393 56.393 0 0 1-4.595-1.6 56.147 56.147 0 0 1-4.465-1.988l-.749-.387c-.464-.232-.671-.826-.439-1.29.233-.465.826-.672 1.291-.44l.749.362a63.87 63.87 0 0 0 4.336 1.936 52.083 52.083 0 0 0 4.414 1.548c1.549.44 3.02.8 4.517 1.059 1.626.284 3.175.413 4.594.438H241.108c.568-.077.981.388 1.006.904a.955.955 0 0 1-.903 1.007c-.439 0-.878.025-1.342.025h.026Zm16.803-12.88h-.181a.968.968 0 0 1-.748-1.136l.077-.335c.284-1.471.439-3.046.439-4.672 0-2.865-.439-5.963-1.265-9.19-.516-2.116-1.239-4.335-2.168-6.658-.206-.491.052-1.059.542-1.265a1.003 1.003 0 0 1 1.265.542 52.032 52.032 0 0 1 2.246 6.892c.877 3.38 1.342 6.633 1.342 9.679 0 1.755-.155 3.459-.465 5.06l-.077.335a.968.968 0 0 1-.955.774l-.052-.026Zm-54.463-5.007a.99.99 0 0 1-.645-.233c-.697-.62-1.368-1.239-2.065-1.858a81.286 81.286 0 0 1-3.95-3.898c-1.368-1.42-2.684-2.839-3.871-4.259a98.845 98.845 0 0 1-3.769-4.62 65.829 65.829 0 0 1-1.213-1.626c-.31-.439-.232-1.033.206-1.342.439-.31 1.033-.233 1.343.206.387.542.8 1.059 1.213 1.6a96.244 96.244 0 0 0 3.691 4.543 110.18 110.18 0 0 0 3.82 4.182 109.067 109.067 0 0 0 3.872 3.82c.671.62 1.342 1.24 2.013 1.833.413.361.439.955.078 1.368a1.005 1.005 0 0 1-.723.335v-.051Zm-25.451-35.182a.971.971 0 0 1-.903-.62 53.377 53.377 0 0 1-1.549-4.594c-1.187-4.078-1.807-7.924-1.807-11.435 0-1.755.155-3.433.465-5.033.052-.31.129-.645.207-.955.129-.516.645-.852 1.161-.723.516.13.852.646.723 1.162-.078.284-.129.568-.181.852-.284 1.47-.413 3.02-.413 4.672 0 3.33.594 6.995 1.729 10.892.413 1.471.93 2.969 1.498 4.44.206.49-.052 1.058-.542 1.265a.83.83 0 0 1-.362.077h-.026Zm66.027-.206a.94.94 0 0 1-.722-.362l-.078-.103a81.242 81.242 0 0 0-3.691-4.646 115.293 115.293 0 0 0-3.794-4.26c-1.265-1.316-2.556-2.632-3.872-3.871a92.095 92.095 0 0 0-3.33-3.02c-.413-.361-.439-.955-.103-1.368.361-.413.955-.439 1.368-.103a96.585 96.585 0 0 1 3.381 3.097 113.559 113.559 0 0 1 3.924 3.95 100.699 100.699 0 0 1 3.846 4.336c1.264 1.497 2.478 3.046 3.768 4.723.31.44.258 1.084-.155 1.394a1.11 1.11 0 0 1-.619.207l.077.026Z" fill="#3D3D3D"/><path d="M17.166 156.885 174.128 13.629a12.979 12.979 0 0 1 4.13-3.227c1.471-.748 3.098-1.265 4.879-1.548a22.393 22.393 0 0 1 4.62-.259 30.71 30.71 0 0 1 4.44.49c.981.181 1.987.388 2.994.672.464.103.955.258 1.445.413 1.368.387 2.762.903 4.208 1.471a51.869 51.869 0 0 1 4.104 1.859 51.125 51.125 0 0 1 4.026 2.168 75.157 75.157 0 0 1 3.975 2.452c.672.439 1.368.903 2.04 1.368.619.439 1.239.878 1.858 1.368a81.797 81.797 0 0 1 2.968 2.297c.284.258.594.465.878.723a76.818 76.818 0 0 1 3.769 3.304 98.178 98.178 0 0 1 3.691 3.588 103.322 103.322 0 0 1 3.613 3.95 89.287 89.287 0 0 1 3.537 4.31 81.298 81.298 0 0 1 3.407 4.749c1.187 1.755 2.323 3.562 3.304 5.343a59.395 59.395 0 0 1 3.097 6.117c1.162 2.607 2.091 5.163 2.762 7.692 1.342 4.802 1.729 9.344 1.032 13.32-.413 2.348-1.187 4.388-2.297 6.091l-.103.155-135.771 123.949-11.331 10.325-14.79 14.041" fill="#5782A7"/><path d="M84.664 231.765a.923.923 0 0 1-.697-.309c-.361-.388-.361-1.007.026-1.368l14.79-14.042 147.128-134.3c.981-1.6 1.704-3.51 2.091-5.704.671-3.769.31-8.13-1.007-12.906-.645-2.375-1.548-4.904-2.71-7.537a69.807 69.807 0 0 0-3.072-6.04 64.797 64.797 0 0 0-3.278-5.291 77.576 77.576 0 0 0-3.381-4.698c-1.213-1.575-2.349-2.969-3.511-4.26a101.306 101.306 0 0 0-3.587-3.897 96.073 96.073 0 0 0-3.666-3.562 75.628 75.628 0 0 0-3.742-3.278l-.878-.723a125.413 125.413 0 0 0-2.917-2.271 252.27 252.27 0 0 0-1.729-1.265 82.003 82.003 0 0 0-2.117-1.445 76.132 76.132 0 0 0-3.923-2.427 60.073 60.073 0 0 0-3.975-2.142 51.408 51.408 0 0 0-4.053-1.833c-1.445-.594-2.813-1.084-4.104-1.445-.49-.155-.903-.284-1.316-.388h-.129a31.275 31.275 0 0 0-2.917-.645 25.255 25.255 0 0 0-4.285-.464c-1.497-.078-2.994 0-4.439.232-1.704.284-3.253.774-4.595 1.471a12.153 12.153 0 0 0-3.82 2.994L17.811 157.608a.975.975 0 0 1-1.368-.052.975.975 0 0 1 .052-1.368L173.483 12.906c1.136-1.342 2.607-2.504 4.336-3.381 1.523-.775 3.278-1.343 5.163-1.652 1.6-.233 3.226-.336 4.826-.258a32.41 32.41 0 0 1 4.569.49c.981.18 1.962.387 2.969.671h.103c.49.13.981.258 1.523.439 1.316.387 2.762.877 4.259 1.497a46.176 46.176 0 0 1 4.181 1.884c1.368.646 2.736 1.394 4.104 2.194a69.8 69.8 0 0 1 4.027 2.478c.697.439 1.368.904 2.039 1.394.723.516 1.317.93 1.884 1.394 1.007.748 1.988 1.497 2.995 2.297l.903.723a116.235 116.235 0 0 1 3.794 3.33c1.265 1.161 2.504 2.4 3.717 3.64a131.556 131.556 0 0 1 3.666 3.974 102.45 102.45 0 0 1 3.587 4.362 81.14 81.14 0 0 1 3.459 4.801 72.919 72.919 0 0 1 3.356 5.42 66.593 66.593 0 0 1 3.149 6.196 55.62 55.62 0 0 1 2.813 7.82c1.394 5.06 1.756 9.68 1.033 13.733-.439 2.426-1.239 4.594-2.427 6.427-.051.077-.206.31-.258.361L100.151 217.414l-14.764 14.042a.959.959 0 0 1-.671.258l-.052.051Z" fill="#3A3F42"/><path d="M75.989 186.001a87.551 87.551 0 0 0-3.356-4.466 125.551 125.551 0 0 0-3.459-4.078c-1.161-1.265-2.323-2.53-3.536-3.743-1.187-1.187-2.375-2.349-3.64-3.459-.283-.258-.567-.49-.851-.748a88.34 88.34 0 0 0-2.865-2.426c-.594-.491-1.188-.955-1.807-1.446-.645-.516-1.316-.981-1.962-1.471-1.29-.955-2.58-1.807-3.871-2.633a63.466 63.466 0 0 0-3.95-2.349 53.159 53.159 0 0 0-4.026-2.013 38.139 38.139 0 0 0-4.13-1.652 31.6 31.6 0 0 0-1.446-.491 47.263 47.263 0 0 0-2.968-.8 27.764 27.764 0 0 0-4.414-.671 22.848 22.848 0 0 0-4.62.052c-1.781.232-3.46.671-4.956 1.342-3.356 1.549-5.885 4.259-7.28 8.157v.077a12.302 12.302 0 0 0-.67 2.22c-.955 4.388-.594 9.524.851 14.971a55.593 55.593 0 0 0 2.53 7.382c.826 2.013 1.807 4.052 2.891 6.092.93 1.781 1.988 3.562 3.097 5.317a67.633 67.633 0 0 0 3.382 4.981 75.877 75.877 0 0 0 3.381 4.363 84.294 84.294 0 0 0 3.485 4.026 79.431 79.431 0 0 0 3.562 3.691 89.196 89.196 0 0 0 3.64 3.382 72.835 72.835 0 0 0 3.742 3.123c.31.258.645.49.955.749.955.722 1.91 1.419 2.84 2.116a124.69 124.69 0 0 0 3.871 2.556 62.96 62.96 0 0 0 3.95 2.245 52.222 52.222 0 0 0 4.052 1.936c1.42.62 2.788 1.136 4.156 1.575 1.47.464 2.89.826 4.284 1.135 1.523.31 3.02.491 4.44.542 1.652.078 3.2 0 4.646-.232 1.884-.31 3.588-.903 5.085-1.729 3.459-1.91 5.911-5.24 6.944-9.938.851-3.949.67-8.492-.465-13.345-.568-2.529-1.394-5.136-2.426-7.795a63.277 63.277 0 0 0-2.84-6.246 76.883 76.883 0 0 0-3.071-5.472c-1.007-1.627-2.065-3.279-3.227-4.879l.052.052Z" fill="#fff"/><path d="M72.53 236.669c-.412 0-.825 0-1.238-.025a30.954 30.954 0 0 1-4.569-.542 50.285 50.285 0 0 1-4.388-1.162 45.19 45.19 0 0 1-4.233-1.6 48.355 48.355 0 0 1-4.104-1.962 65.673 65.673 0 0 1-4.027-2.297c-1.29-.8-2.607-1.678-3.923-2.581-.955-.697-1.91-1.394-2.891-2.143l-.98-.774a63.885 63.885 0 0 1-3.77-3.175c-1.264-1.084-2.477-2.246-3.665-3.407-1.239-1.213-2.452-2.452-3.588-3.743a103.538 103.538 0 0 1-3.51-4.052 89.132 89.132 0 0 1-3.407-4.414 87.183 87.183 0 0 1-3.407-5.059 83.416 83.416 0 0 1-3.15-5.395 70.244 70.244 0 0 1-2.942-6.169c-1.058-2.53-1.936-5.059-2.581-7.511-1.549-5.808-1.833-10.996-.878-15.436.18-.826.413-1.6.671-2.349 1.472-4.156 4.079-7.072 7.821-8.802 1.549-.722 3.33-1.187 5.24-1.419 1.6-.181 3.227-.207 4.827-.052 1.445.103 2.968.336 4.543.697.955.232 1.936.465 2.942.774h.104c.49.155.98.336 1.497.517a42.941 42.941 0 0 1 4.207 1.677 51.183 51.183 0 0 1 4.104 2.065 54.154 54.154 0 0 1 4.001 2.375 81.165 81.165 0 0 1 3.924 2.659c.67.49 1.316.955 1.987 1.471.62.49 1.239.955 1.833 1.471.98.775 1.936 1.601 2.89 2.427l.852.774a117.453 117.453 0 0 1 3.666 3.484c1.213 1.214 2.4 2.504 3.562 3.795a101.78 101.78 0 0 1 3.484 4.13 85.586 85.586 0 0 1 3.382 4.517 89.88 89.88 0 0 1 3.252 4.93 76.826 76.826 0 0 1 3.123 5.549 68.815 68.815 0 0 1 2.891 6.324c1.084 2.762 1.91 5.421 2.478 7.925 1.187 5.11 1.342 9.731.465 13.783-1.059 4.827-3.64 8.492-7.408 10.583-1.627.904-3.46 1.523-5.395 1.833a23.64 23.64 0 0 1-3.614.284l-.077.025Zm-44.86-82.185c-.826 0-1.652.052-2.478.129a16.392 16.392 0 0 0-4.672 1.265c-3.227 1.471-5.498 4.027-6.763 7.589-.258.723-.49 1.42-.645 2.168-.904 4.13-.62 9.034.852 14.532.62 2.375 1.47 4.801 2.503 7.253a66.726 66.726 0 0 0 2.866 6.015 86.631 86.631 0 0 0 3.071 5.265 75.356 75.356 0 0 0 3.33 4.93 124.634 124.634 0 0 0 3.33 4.337 84.917 84.917 0 0 0 3.458 3.975c1.136 1.239 2.298 2.478 3.537 3.665a63.175 63.175 0 0 0 3.613 3.33c1.136 1.006 2.323 2.039 3.691 3.097l.955.749c.93.697 1.885 1.394 2.814 2.065a80.713 80.713 0 0 0 3.82 2.503 66.942 66.942 0 0 0 3.898 2.22c1.42.749 2.71 1.368 3.975 1.91a44.675 44.675 0 0 0 4.078 1.549c1.446.439 2.813.826 4.182 1.11 1.523.284 2.968.465 4.284.516 1.55.078 3.046 0 4.466-.232 1.73-.284 3.355-.826 4.775-1.626 3.33-1.833 5.498-4.956 6.453-9.293.826-3.742.671-8.105-.465-12.931-.542-2.427-1.342-4.982-2.4-7.641a61.943 61.943 0 0 0-2.814-6.169 68.199 68.199 0 0 0-3.045-5.42 77.04 77.04 0 0 0-3.175-4.827c-1.11-1.6-2.22-3.02-3.33-4.414-1.084-1.368-2.246-2.71-3.433-4.052a94.751 94.751 0 0 0-3.51-3.717 74.785 74.785 0 0 0-3.588-3.433l-.852-.749c-.904-.8-1.859-1.6-2.814-2.375a28.736 28.736 0 0 0-1.78-1.419 93.432 93.432 0 0 0-1.937-1.446 76.64 76.64 0 0 0-3.82-2.581 51.108 51.108 0 0 0-3.897-2.297 47.58 47.58 0 0 0-3.975-1.988 44.386 44.386 0 0 0-4.053-1.626c-.464-.18-.877-.31-1.29-.439-.052 0-.104 0-.13-.025-.98-.31-1.935-.568-2.89-.775a28.935 28.935 0 0 0-4.26-.645 24.735 24.735 0 0 0-1.961-.077l.026.025Z" fill="#3D3D3D"/><path d="M13.421 181.355h-.103c-.18-.052-.258-.233-.207-.413l7.305-25.219c.052-.18.232-.258.387-.232.181.052.284.232.233.387l-7.305 25.244c-.052.129-.18.233-.31.233ZM11.304 174.798h-.103c-.181-.051-.258-.232-.207-.413l4.982-17.242c.051-.181.232-.258.413-.207.18.052.258.233.206.413l-4.981 17.243c-.052.129-.181.232-.31.232v-.026ZM24.084 160.344h-.077c-.181-.052-.258-.233-.233-.388l1.575-5.549c.052-.181.232-.258.387-.232.18.051.258.232.232.387l-1.574 5.549c-.052.129-.18.233-.31.233ZM15.874 188.711h-.078c-.18-.052-.284-.232-.232-.387l1.936-6.789c.052-.18.232-.258.387-.232.18.052.284.232.232.387l-1.935 6.789c-.052.129-.181.232-.31.232ZM28.932 159.363h-.077c-.18-.052-.284-.233-.232-.387l1.316-4.621c.052-.18.258-.258.387-.232.18.052.284.232.233.387l-1.317 4.62a.325.325 0 0 1-.31.233ZM18.714 194.777h-.078c-.18-.052-.284-.232-.232-.387l1.807-6.273c.051-.18.232-.258.387-.232.18.052.284.232.232.387l-1.807 6.273a.325.325 0 0 1-.31.232ZM33.448 159.595h-.077c-.181-.052-.284-.232-.233-.387l1.188-4.156c.051-.18.232-.258.387-.232.18.052.284.232.232.387l-1.187 4.156a.324.324 0 0 1-.31.232ZM21.759 200.068h-.078c-.18-.051-.284-.232-.232-.387l1.703-5.885c.052-.181.233-.258.388-.232.18.051.284.232.232.387l-1.704 5.885a.324.324 0 0 1-.31.232ZM37.917 160.602h-.103c-.18-.052-.258-.232-.206-.413l1.11-3.872c.051-.181.232-.258.412-.206.181.051.258.232.207.413l-1.11 3.871c-.052.129-.18.233-.31.233v-.026ZM25.062 205.05h-.104c-.18-.052-.258-.232-.206-.413l1.6-5.446c.052-.181.233-.259.413-.207.181.052.258.232.207.413l-1.6 5.446c-.052.129-.181.233-.31.233v-.026ZM28.391 209.412h-.077c-.18-.051-.284-.232-.232-.387l1.626-5.704c.051-.181.232-.259.387-.233.18.052.284.233.232.387l-1.626 5.705c-.052.129-.18.232-.31.232ZM42.045 162.099h-.077c-.181-.052-.259-.232-.233-.387l1.059-3.691s.077-.155.155-.207c.154-.077.36 0 .438.129.052.103.052.207 0 .284l-1.032 3.64c-.052.129-.18.232-.31.232ZM31.825 213.413h-.078c-.18-.052-.283-.232-.232-.387l1.497-5.163c.052-.18.258-.258.388-.232.18.052.283.232.232.387l-1.497 5.163a.325.325 0 0 1-.31.232ZM46.098 164.009h-.077c-.18-.052-.284-.232-.232-.387l1.032-3.588c.052-.181.233-.258.387-.232.181.051.284.232.233.387l-1.033 3.588c-.052.129-.18.232-.31.232ZM35.312 217.104h-.103c-.181-.051-.259-.232-.207-.413l1.497-5.188c.052-.181.232-.258.413-.207.18.052.258.233.207.413l-1.498 5.189c-.051.129-.18.232-.31.232v-.026ZM50.023 166.255h-.104c-.18-.052-.258-.233-.206-.413l1.007-3.511c.051-.18.232-.258.413-.206.18.051.258.232.206.413l-1.006 3.51c-.052.129-.181.232-.31.232v-.025ZM38.921 220.46h-.103c-.18-.052-.258-.233-.207-.413l1.446-5.008c.051-.18.232-.258.413-.206.18.051.258.232.206.413l-1.445 5.007c-.052.129-.18.233-.31.233v-.026ZM53.843 168.836h-.103c-.18-.052-.258-.232-.207-.413l1.007-3.485c.052-.18.232-.258.413-.206.18.051.258.232.206.413l-1.006 3.484c-.052.129-.18.233-.31.233v-.026ZM42.615 223.609h-.077c-.18-.052-.258-.233-.232-.388l1.394-4.904c.051-.18.232-.258.387-.232.18.052.258.232.232.387l-1.394 4.904c-.051.129-.18.233-.31.233ZM57.585 171.701h-.103c-.18-.052-.258-.232-.206-.413l1.006-3.433c.052-.181.232-.258.413-.207.18.052.258.233.207.413l-1.007 3.433c-.052.129-.18.233-.31.233v-.026ZM46.358 226.448h-.078c-.18-.052-.258-.232-.232-.387l1.368-4.801c.052-.181.232-.258.387-.233.18.052.258.233.232.388l-1.368 4.801c-.051.129-.18.232-.31.232ZM49.84 228.849h-.078c-.18-.052-.258-.233-.232-.388l1.368-4.801c.052-.18.233-.258.387-.232.181.052.259.232.233.387l-1.368 4.801c-.052.129-.181.233-.31.233ZM53.531 230.759h-.077c-.18-.052-.258-.233-.232-.388l1.368-4.801c.051-.18.232-.258.387-.232.18.052.258.232.232.387l-1.368 4.801c-.052.129-.18.233-.31.233ZM57.17 232.591h-.077c-.181-.051-.259-.232-.233-.387l1.368-4.801c.052-.181.233-.258.387-.232.181.051.259.232.233.387l-1.368 4.801c-.052.129-.18.232-.31.232ZM60.785 234.166h-.077c-.18-.052-.258-.233-.233-.387l1.369-4.801c.051-.181.232-.259.387-.233.18.052.258.233.232.387l-1.368 4.801c-.052.13-.18.233-.31.233ZM64.531 235.301h-.077c-.18-.051-.258-.232-.232-.387l1.368-4.801c.051-.18.232-.258.387-.232.18.052.258.232.232.387l-1.368 4.801c-.051.129-.18.232-.31.232ZM68.17 236.05h-.077c-.181-.052-.258-.232-.233-.387l1.368-4.801c.052-.181.233-.258.388-.232.18.051.258.232.232.387l-1.368 4.801c-.052.129-.18.232-.31.232ZM71.836 236.411h-.077c-.181-.051-.258-.232-.233-.387l1.368-4.801c.052-.18.233-.258.387-.232.181.052.259.232.233.387l-1.368 4.801c-.052.129-.18.232-.31.232ZM76.245 235.689h-.078c-.18-.052-.284-.207-.232-.388l1.213-4.852c.052-.181.207-.284.388-.232.18.051.283.206.232.387l-1.213 4.852c-.026.155-.155.233-.31.233ZM61.25 174.902h-.104c-.18-.052-.258-.233-.206-.413l1.006-3.485c.052-.181.233-.258.413-.206.18.051.258.232.207.413l-1.007 3.484c-.052.129-.18.232-.31.232v-.025ZM64.527 179.315h-.104c-.18-.051-.258-.232-.206-.413l1.29-4.439c.052-.181.233-.258.413-.207.181.052.259.233.207.413l-1.29 4.44c-.052.129-.181.232-.31.232v-.026ZM68.066 182.981h-.104c-.18-.052-.258-.233-.206-.413l1.265-4.362c.051-.181.232-.259.413-.207.18.052.258.232.206.413l-1.265 4.362c-.051.129-.18.233-.31.233v-.026ZM71.446 187.549h-.077c-.181-.051-.284-.232-.233-.387l1.265-4.852c.052-.181.232-.284.387-.233.181.052.284.233.233.387l-1.265 4.853c-.026.155-.18.232-.31.232ZM74.542 192.247h-.078c-.18-.051-.284-.232-.232-.387l1.471-5.111c.052-.18.233-.258.388-.232.18.052.283.232.232.387l-1.471 5.111a.324.324 0 0 1-.31.232ZM77.667 197.177h-.078c-.18-.051-.284-.232-.232-.387l1.497-5.188c.052-.181.232-.258.387-.232.181.051.284.232.233.387l-1.498 5.188a.324.324 0 0 1-.31.232ZM80.558 203.037h-.103c-.181-.052-.258-.233-.207-.413l1.626-5.576c.052-.18.233-.258.413-.206.18.051.258.232.207.413l-1.626 5.575c-.052.129-.181.232-.31.232v-.025ZM83.01 210.445h-.077c-.18-.052-.284-.233-.232-.388l1.936-6.762c.051-.181.258-.258.387-.233.18.052.284.233.232.388l-1.936 6.762c-.051.129-.18.233-.31.233ZM80.274 234.166h-.077c-.18-.052-.284-.233-.233-.387l7.047-24.393c.052-.18.232-.258.387-.232.181.052.284.232.233.387l-7.047 24.392a.325.325 0 0 1-.31.233ZM37.582 156.265s-.207-.051-.258-.129c-.104-.155-.078-.335.051-.438.155-.104.361-.078.465.051a.322.322 0 0 1-.052.439s-.129.077-.206.077Z" fill="#282828" opacity=".49"/><path d="M71.034 232.075a22.32 22.32 0 0 1-3.33-.258 31.724 31.724 0 0 1-4.284-.981 43.215 43.215 0 0 1-4.104-1.523 47.038 47.038 0 0 1-3.976-1.936 69.595 69.595 0 0 1-3.897-2.297 58.407 58.407 0 0 1-3.794-2.607 97.63 97.63 0 0 1-2.891-2.22c-.284-.232-.568-.439-.852-.697a81.068 81.068 0 0 1-3.614-3.175c-1.213-1.11-2.4-2.297-3.562-3.484a76.179 76.179 0 0 1-3.484-3.795 85.945 85.945 0 0 1-3.408-4.181 83.724 83.724 0 0 1-3.278-4.569 66.272 66.272 0 0 1-3.304-5.265c-1.135-1.988-2.142-3.924-2.994-5.808a.192.192 0 0 0-.052-.103 56.73 56.73 0 0 1-2.684-6.918c0-.052 0-.077-.026-.129-1.29-4.13-1.832-7.899-1.652-11.228 0-.904.13-1.807.31-2.762a14.439 14.439 0 0 1 1.42-4.13c1.342-2.581 3.407-4.388 6.117-5.395 1.523-.568 3.175-.852 4.904-.877a23.16 23.16 0 0 1 4.492.361c1.42.232 2.865.62 4.413 1.136 1.214.413 2.556.929 4.079 1.6a58.12 58.12 0 0 1 3.975 2.013 70.111 70.111 0 0 1 3.872 2.349 74.448 74.448 0 0 1 3.794 2.685c.697.516 1.42 1.084 2.117 1.652.464.361.903.748 1.342 1.11l.206.18a87.828 87.828 0 0 1 3.64 3.278 91.61 91.61 0 0 1 3.562 3.537 118.088 118.088 0 0 1 3.459 3.846 101.764 101.764 0 0 1 3.407 4.259 84.721 84.721 0 0 1 3.278 4.646c1.187 1.807 2.22 3.484 3.123 5.188a61.089 61.089 0 0 1 2.968 5.962 53.752 53.752 0 0 1 2.66 7.331c1.341 4.853 1.677 9.163.98 12.803-.826 4.388-3.15 7.563-6.66 9.163-1.497.671-3.174 1.084-5.007 1.187-.387.026-.8.052-1.213.052h-.052Zm-48.99-43.467a66.444 66.444 0 0 0 2.864 5.498 89.841 89.841 0 0 0 3.227 5.136c1.084 1.601 2.116 3.072 3.226 4.466 1.058 1.394 2.194 2.736 3.356 4.078a115.716 115.716 0 0 0 3.407 3.717 87.534 87.534 0 0 0 3.485 3.433 81.4 81.4 0 0 0 3.562 3.123c.284.258.542.465.8.671a51.47 51.47 0 0 0 2.84 2.168 54.815 54.815 0 0 0 3.69 2.53 65.07 65.07 0 0 0 3.769 2.22c1.264.671 2.555 1.316 3.846 1.858a39.456 39.456 0 0 0 3.923 1.446 25.33 25.33 0 0 0 4.001.929c1.549.232 2.917.284 4.13.206 1.6-.103 3.046-.438 4.336-1.032 2.969-1.368 4.853-3.975 5.576-7.769.645-3.33.31-7.331-.955-11.925a53.391 53.391 0 0 0-2.556-7.073 63.525 63.525 0 0 0-2.89-5.782 75.937 75.937 0 0 0-3.072-5.059 92.267 92.267 0 0 0-3.201-4.543 97.634 97.634 0 0 0-3.33-4.181 92.499 92.499 0 0 0-3.381-3.769 73.029 73.029 0 0 0-3.459-3.459 82.633 82.633 0 0 0-3.562-3.2l-.206-.181-1.317-1.084c-.697-.542-1.394-1.11-2.065-1.601a70.875 70.875 0 0 0-3.69-2.607 60.435 60.435 0 0 0-3.744-2.271 53.706 53.706 0 0 0-3.82-1.936c-1.445-.645-2.736-1.161-3.897-1.523-1.472-.49-2.814-.852-4.156-1.084-1.446-.258-2.814-.387-4.104-.335-1.549 0-2.969.258-4.285.748-2.271.826-3.975 2.349-5.085 4.466-.568 1.084-.98 2.271-1.239 3.613a16.909 16.909 0 0 0-.284 2.504c-.18 3.149.361 6.763 1.6 10.712 0 .052 0 .103.026.129a51.306 51.306 0 0 0 2.607 6.659c0 .052.026.078.052.13l-.026-.026Z" fill="#3D3D3D"/><path d="M37.739 164.732c-.155 0-.31-.026-.465-.104a61.13 61.13 0 0 0-3.459-1.703 43.305 43.305 0 0 0-4.336-1.73c-.49-.18-.955-.335-1.394-.464-.051 0-.103 0-.155-.026a39.29 39.29 0 0 0-3.097-.826 29.289 29.289 0 0 0-4.569-.697c-.748-.077-1.394-.129-2.168-.103-.542 0-.955-.439-.98-.955 0-.568.464-.955 1.058-.981.722 0 1.47.026 2.245.103 1.549.103 3.2.362 4.853.749 1.032.232 2.065.516 3.123.826h.103c.517.155 1.059.335 1.6.542 1.42.464 2.943 1.084 4.492 1.807a50.874 50.874 0 0 1 3.588 1.755.975.975 0 0 1 .387 1.316.968.968 0 0 1-.852.517l.026-.026ZM66.208 247.149c-.44 0-.878 0-1.343-.026-1.497-.051-3.149-.258-4.904-.593a55.313 55.313 0 0 1-4.698-1.239 42.637 42.637 0 0 1-4.543-1.73 60.434 60.434 0 0 1-4.413-2.116l-.749-.387a.977.977 0 0 1-.387-1.317.977.977 0 0 1 1.316-.387l.723.387c1.523.8 2.917 1.471 4.285 2.039 1.394.62 2.813 1.136 4.362 1.652 1.523.491 2.994.878 4.491 1.188 1.626.309 3.201.516 4.595.542.439 0 .852.025 1.265.025h.62c.515 0 .954.413.98.956 0 .542-.413.98-.955.98h-.671l.026.026ZM82.7 233.727l-.903-.413a26.3 26.3 0 0 0 .594-5.55c0-2.632-.362-5.498-1.033-8.466-.464-2.142-1.135-4.388-1.987-6.711a.977.977 0 0 1 .567-1.239.976.976 0 0 1 1.24.568c.877 2.4 1.574 4.723 2.064 6.943.723 3.124 1.085 6.118 1.085 8.905 0 2.065-.207 4.027-.594 5.834l-1.033.129Zm-54.308-5.446a.899.899 0 0 1-.645-.258c-.671-.62-1.342-1.265-2.014-1.911a90.948 90.948 0 0 1-3.846-4 90.096 90.096 0 0 1-3.768-4.363 101.334 101.334 0 0 1-3.665-4.723c-.387-.542-.8-1.11-1.188-1.652a.956.956 0 0 1 .233-1.342.956.956 0 0 1 1.342.232l1.161 1.626a97.783 97.783 0 0 0 3.588 4.646 86.541 86.541 0 0 0 3.691 4.285c1.162 1.291 2.4 2.555 3.769 3.923.645.646 1.316 1.265 1.962 1.885a.974.974 0 0 1 .051 1.368.938.938 0 0 1-.723.309l.052-.025Zm41.557-35.285-.852.464a89.79 89.79 0 0 0-3.561-4.723 116.798 116.798 0 0 0-3.666-4.337 109.607 109.607 0 0 0-3.768-3.975 93.454 93.454 0 0 0-3.253-3.123.975.975 0 0 1-.051-1.368.975.975 0 0 1 1.368-.052 96.425 96.425 0 0 1 3.304 3.175 113.173 113.173 0 0 1 3.82 4.053 116.095 116.095 0 0 1 3.743 4.414 97.435 97.435 0 0 1 3.639 4.826l-.723.646Zm-66.078-.542a.97.97 0 0 1-.904-.646 62.586 62.586 0 0 1-1.445-4.62C.516 183.42 0 179.806 0 176.502c0-2.065.206-4.027.594-5.808.077-.309.129-.619.232-.929a.946.946 0 0 1 1.187-.671.945.945 0 0 1 .671 1.187c-.077.284-.129.542-.206.826-.361 1.678-.542 3.485-.542 5.421 0 3.123.49 6.556 1.471 10.17a52.08 52.08 0 0 0 1.394 4.465.959.959 0 0 1-.594 1.239 1.299 1.299 0 0 1-.335.052Z" fill="#3D3D3D"/><path d="M31.67 218.524 5.573 230.707l1.032.49 4.337 2.04L.102 244.8c3.355.104 5.73 1.188 7.124 3.33l10.892-11.538 5.37 2.53 8.181-20.598Z" fill="#FF4343"/></svg>