<?xml version="1.0" encoding="UTF-8" standalone="no"?>
<svg
   id="Layer_2"
   data-name="Layer 2"
   viewBox="0 0 40.15 112.5"
   version="1.1"
   sodipodi:docname="Asset 120.svg"
   inkscape:version="1.3.1 (91b66b0783, 2023-11-16)"
   xmlns:inkscape="http://www.inkscape.org/namespaces/inkscape"
   xmlns:sodipodi="http://sodipodi.sourceforge.net/DTD/sodipodi-0.dtd"
   xmlns="http://www.w3.org/2000/svg"
   xmlns:svg="http://www.w3.org/2000/svg">
  <sodipodi:namedview
     id="namedview8"
     pagecolor="#ffffff"
     bordercolor="#000000"
     borderopacity="0.25"
     inkscape:showpageshadow="2"
     inkscape:pageopacity="0.0"
     inkscape:pagecheckerboard="0"
     inkscape:deskcolor="#d1d1d1"
     inkscape:zoom="64"
     inkscape:cx="19.890625"
     inkscape:cy="92.023437"
     inkscape:window-width="2240"
     inkscape:window-height="1294"
     inkscape:window-x="-11"
     inkscape:window-y="-11"
     inkscape:window-maximized="1"
     inkscape:current-layer="g8" />
  <defs
     id="defs1">
    <style
       id="style1">
      .cls-1 {
        fill: #e0e0e0;
      }

      .cls-1, .cls-2, .cls-3, .cls-4, .cls-5 {
        stroke-width: 0px;
      }

      .cls-2 {
        fill: #5782a7;
      }

      .cls-3 {
        fill: #fff;
      }

      .cls-4 {
        fill: #cfdbe6;
      }

      .cls-5 {
        fill: #3d3d3d;
      }
    </style>
  </defs>
  <g
     id="Layer_1-2"
     data-name="Layer 1">
    <g
       id="g8">
      <rect
         class="cls-1"
         x=".03"
         y="28.04"
         width="40.1"
         height="68.05"
         rx="6.15"
         ry="6.15"
         transform="translate(40.1 124.16) rotate(-179.95)"
         id="rect1" />
      <rect
         class="cls-4"
         x="14.45"
         y="28.04"
         width="11.29"
         height="37.18"
         transform="translate(40.14 93.28) rotate(-179.95)"
         id="rect2" />
      <rect
         class="cls-2"
         x="14.42"
         y="65.22"
         width="11.29"
         height="30.87"
         transform="translate(40.05 161.34) rotate(-179.95)"
         id="rect3" />
      <g
         id="g3">
        <polyline
           class="cls-3"
           points="16.48 14.46 16.44 62.12 23.72 62.12 23.77 14.47"
           id="polyline3" />
        <path
           class="cls-5"
           d="m23.72,62.5h-7.28c-.1,0-.2-.05-.27-.12s-.11-.17-.11-.26l.05-47.66c0-.21.17-.38.38-.38h0c.21,0,.38.17.38.38l-.05,47.28h6.53s.05-47.27.05-47.27c0-.21.17-.38.38-.38h0c.21,0,.38.17.38.38l-.05,47.66c0,.21-.17.38-.38.38Z"
           id="path3" />
      </g>
      <g
         id="g5">
        <path
           class="cls-3"
           d="m15.6,62.12h8.95v2.12c0,.57-.46,1.02-1.02,1.02h-6.9c-.57,0-1.02-.46-1.02-1.02v-2.12h0Z"
           transform="translate(40.09 127.41) rotate(-179.95)"
           id="path4" />
        <path
           class="cls-5"
           d="m24.55,65.65h-8.95c-.1,0-.2-.05-.27-.12s-.11-.17-.11-.26v-2.12c0-.77.63-1.4,1.4-1.4h6.9c.77,0,1.4.63,1.4,1.41v2.12c0,.21-.17.38-.38.38Zm-8.57-.76h8.2s0-1.74,0-1.74c0-.36-.29-.65-.65-.65h-6.9c-.36,0-.65.29-.65.64v1.75Z"
           id="path5" />
      </g>
      <rect
         class="cls-3"
         x="-19.55792"
         y="-96.087013"
         width="4.7890763"
         height="2.9453266"
         transform="matrix(-0.99999957,-9.2868698e-4,8.2002157e-4,-0.99999966,0,0)"
         id="rect5"
         style="stroke:#3d3d3d;stroke-width:0.584664;stroke-dasharray:none;stroke-opacity:1" />
      <rect
         class="cls-3"
         x="-25.481041"
         y="-96.076088"
         width="4.7986116"
         height="2.9453216"
         transform="matrix(-0.99999957,-9.2866813e-4,8.2003821e-4,-0.99999966,0,0)"
         id="rect6"
         style="stroke:#3d3d3d;stroke-width:0.584669;stroke-dasharray:none;stroke-opacity:1" />
      <g
         id="g7">
        <path
           class="cls-2"
           d="m20.05,102.09c-.28,0-.5-.22-.5-.5v-5.5c0-.28.22-.5.5-.5h0c.28,0,.5.22.5.5v5.5c0,.28-.22.5-.5.5h0Z"
           id="path6" />
        <path
           class="cls-2"
           d="m20.06,112.5c-.28,0-.5-.22-.5-.5v-5.5c0-.28.22-.5.5-.5h0c.28,0,.5.22.5.5v5.5c0,.28-.22.5-.5.5h0Z"
           id="path7" />
      </g>
      <path
         class="cls-5"
         d="m32.39,14.85h0l-24.54-.02c-1.34,0-2.42-1.09-2.42-2.43V2.42c0-.65.26-1.26.72-1.71.46-.46,1.07-.71,1.71-.71h0l24.54.02c.65,0,1.26.25,1.71.71.46.46.71,1.07.71,1.71v9.98c-.01.65-.26,1.26-.72,1.71s-1.07.71-1.71.71ZM7.87.75c-.45,0-.87.17-1.18.49-.32.32-.49.74-.49,1.18v9.98c0,.92.74,1.68,1.66,1.68h0l24.54.02h0c.92,0,1.67-.75,1.67-1.67V2.45c0-.45-.16-.87-.48-1.18-.32-.32-.74-.49-1.18-.49l-24.54-.02h0Z"
         id="path8" />
    </g>
  </g>
</svg>
