<svg width="263" height="256" fill="none" xmlns="http://www.w3.org/2000/svg"><path d="M256.107 58.686c-11.163 11.044-31.874 8.17-46.244-6.365-13.799-13.966-16.839-33.584-7.244-44.819-.451.475.404-.594 0 0 11.116-11.044 33.157-9.69 47.574 4.87 14.417 14.535 17.053 35.293 5.914 46.314Z" fill="#D3D3D3"/><path d="M251.926 64.006c-11.353 11.234-32.42 8.313-47.051-6.484-14.036-14.227-17.124-34.178-7.362-45.578.403-.618.878-1.045 1.33-1.544 11.305-11.234 32.396-8.313 47.051 6.484 14.654 14.797 17.338 35.888 6.032 47.122Z" fill="#3D3D3D"/><path d="M252.97 46.24c.76 4.917-.831 9.904-4.37 13.443L69.493 232.117c-5.534-27.267-22.017-41.114-49.45-41.517L203.307 13.606c3.443-3.42 8.384-4.987 13.205-4.275 21.186 3.159 33.157 15.652 36.458 36.91Z" fill="#5782A7"/><path d="M69.493 233.138s-.214 0-.31-.048a1.013 1.013 0 0 1-.688-.76c-5.391-26.625-21.708-40.305-48.476-40.709-.404 0-.784-.261-.926-.641a1.034 1.034 0 0 1 .237-1.093L202.594 12.87c3.61-3.61 8.883-5.32 14.061-4.56 21.352 3.182 33.916 15.89 37.313 37.764.807 5.249-.927 10.593-4.656 14.298L70.205 232.853c-.19.19-.451.285-.712.285Zm-47.004-43.465c25.818 1.164 41.826 14.75 47.621 40.472L247.911 58.947c3.254-3.254 4.774-7.933 4.061-12.54-3.301-21.186-14.939-32.99-35.602-36.078-4.561-.665-9.168.83-12.327 3.99L22.489 189.65v.023Z" fill="#3A3F42"/><path d="M11.92 191.692c-1.212 1.069-2.09 1.948-3.278 3.278a44.562 44.562 0 0 0-2.375 2.897c-8.575 12.327-2.684 31.043 12.706 43.774 16.032 13.253 29.974 21.019 47.669 2.209 2.874-2.613 5.534-5.914 8.384-8.978 9.382-9.382 3.919-32.848-12.16-46.101-16.08-13.253-37.883-11.591-46.03-1.9l-4.917 4.821Z" fill="#D3D3D3"/><path d="M63.509 246.747c-10.166 12.303-31.423 11.519-47.455-1.734C.664 232.283-4.42 212.736 4.13 200.409c.356-.642.76-1.14 1.187-1.663 10.118-12.303 31.376-11.519 47.455 1.734 16.08 13.253 20.854 33.964 10.736 46.291v-.024Z" fill="#444"/><path d="M41.256 251.402c-7.505 0-15.77-2.945-22.825-8.764-12.873-10.64-17.385-27.836-10.07-38.358.237-.427.522-.807.807-1.164l.19-.237c8.337-10.118 26.293-9.121 40.045 2.232 13.467 11.092 17.504 28.573 8.978 38.929-4.085 4.94-10.285 7.386-17.125 7.386v-.024Zm-15.533-54.841c-6.39 0-12.113 2.209-15.842 6.722l-.19.237c-.285.356-.546.689-.76 1.093-7.15 10.284-2.684 27.076 9.928 37.503 13.182 10.878 30.663 11.543 39 1.472 8.288-10.07 4.322-27.124-8.884-37.978-7.291-5.985-15.747-9.049-23.276-9.049h.024Z" fill="#5B5B5B"/><mask id="a" style="mask-type:luminance" maskUnits="userSpaceOnUse" x="8" y="200" width="51" height="50"><path d="M53.295 244.562c-8.265 8.479-23.917 6.627-34.985-4.133-10.617-10.331-13.206-25.081-6.128-33.702.309-.452.641-.784.974-1.164 8.218-8.479 23.893-6.627 34.985 4.132 11.092 10.76 13.372 26.364 5.154 34.867Z" fill="#fff"/></mask><g mask="url(#a)"><path d="m61.51 245.916-8.219 7.125h-.095l-44.89-51.777 4.822-4.18H61.51v48.832Z" fill="#CCC"/><path d="m52.7 253.041-44.677-51.54.285-.237 44.89 51.777H52.7ZM52.222 253.041 7.76 201.739l.261-.238 44.676 51.54h-.475Z" fill="#CCC"/><path d="M51.749 253.041 7.477 201.976l.285-.237 44.462 51.302h-.475Z" fill="#CCC"/><path d="M51.275 253.041 7.217 202.214l.261-.238 44.272 51.065h-.475ZM50.798 253.041 6.93 202.451l.285-.237 44.058 50.827h-.475Z" fill="#CCC"/><path d="M50.325 253.041 6.67 202.689l.261-.238 43.869 50.59h-.475ZM49.847 253.041 6.383 202.926l.285-.237 43.654 50.352h-.475Z" fill="#CCC"/><path d="M49.35 253.041 6.123 203.164l.261-.238 43.465 50.115h-.499Z" fill="#CCC"/><path d="M48.877 253.041 5.84 203.378l.285-.214 43.227 49.877h-.475Z" fill="#CCC"/><path d="M48.398 253.041 5.574 203.615l.261-.237 43.038 49.663h-.475Z" fill="#CBCBCB"/><path d="M47.924 253.041 5.291 203.853l.285-.238 42.823 49.426h-.475Z" fill="#CBCBCB"/><path d="M47.45 253.041 5.102 204.185v-.166l.19-.166 42.633 49.188h-.475Z" fill="#CBCBCB"/><path d="M46.975 253.041 5.102 204.755v-.57l42.348 48.856h-.475ZM46.476 253.041l-41.374-47.74v-.546l41.873 48.286h-.499ZM46.001 253.041l-40.9-47.193v-.547l41.375 47.74h-.475Z" fill="#CBCBCB"/><path d="M45.526 253.041 5.102 206.394v-.546L46 253.041h-.475Z" fill="#CBCBCB"/><path d="M45.05 253.041 5.103 206.964v-.57l40.424 46.647h-.475Z" fill="#CACACA"/><path d="M44.576 253.041 5.102 207.51v-.546l39.949 46.077h-.475Z" fill="#CACACA"/><path d="M44.1 253.041 5.103 208.057v-.547l39.474 45.531H44.1ZM43.626 253.041 5.102 208.627v-.57L44.1 253.041h-.475Z" fill="#CACACA"/><path d="M43.127 253.041 5.102 209.173v-.546l38.524 44.414h-.499Z" fill="#C9C9C9"/><path d="m42.652 253.041-37.55-43.322v-.546l38.025 43.868h-.475Z" fill="#C9C9C9"/><path d="M42.177 253.041 5.102 210.265v-.546l37.55 43.322h-.475Z" fill="#C9C9C9"/><path d="m41.702 253.041-36.6-42.206v-.57l37.075 42.776h-.475ZM41.227 253.041 5.102 211.382v-.546l36.6 42.205h-.475Z" fill="#C8C8C8"/><path d="m40.752 253.041-35.65-41.113v-.546l36.125 41.659h-.475Z" fill="#C8C8C8"/><path d="M40.253 253.041 5.102 212.474v-.546l35.65 41.113h-.499ZM39.778 253.041 5.102 213.044v-.57l35.151 40.567h-.475Z" fill="#C7C7C7"/><path d="m39.303 253.041-34.201-39.45v-.547l34.676 39.997h-.475Z" fill="#C7C7C7"/><path d="M38.828 253.041 5.102 214.137v-.546l34.201 39.45h-.475Z" fill="#C6C6C6"/><path d="M38.353 253.041 5.102 214.683v-.546l33.726 38.904h-.475Z" fill="#C6C6C6"/><path d="M37.878 253.041 5.102 215.253v-.57l33.251 38.358h-.475ZM37.38 253.041 5.101 215.799v-.546l32.776 37.788h-.499Z" fill="#C5C5C5"/><path d="M36.904 253.041 5.102 216.346v-.547l32.277 37.242h-.475ZM36.43 253.041 5.101 216.892v-.546l31.802 36.695h-.475Z" fill="#C4C4C4"/><path d="M35.954 253.041 5.102 217.462v-.57l31.327 36.149h-.475ZM35.48 253.041 5.101 218.008v-.546l30.852 35.579h-.475Z" fill="#C3C3C3"/><path d="M35.004 253.041 5.102 218.555v-.547l30.377 35.033h-.475Z" fill="#C2C2C2"/><path d="m34.53 253.041-29.428-33.94v-.546l29.902 34.486h-.475Z" fill="#C2C2C2"/><path d="m34.03 253.041-28.928-33.37v-.57l29.427 33.94h-.499ZM33.555 253.041 5.102 220.217v-.546l28.928 33.37h-.475Z" fill="#C1C1C1"/><path d="M33.08 253.041 5.102 220.763v-.546l28.453 32.824h-.475Z" fill="silver"/><path d="M32.605 253.041 5.102 221.31v-.547l27.978 32.278h-.475Z" fill="silver"/><path d="M32.13 253.041 5.102 221.88v-.57l27.503 31.731h-.475Z" fill="#BFBFBF"/><path d="M31.655 253.041 5.102 222.426v-.546l27.028 31.161h-.475ZM31.157 253.041 5.102 222.972v-.546l26.553 30.615h-.498Z" fill="#BEBEBE"/><path d="m30.681 253.041-25.58-29.522v-.547l26.056 30.069h-.476Z" fill="#BDBDBD"/><path d="M30.206 253.041 5.102 224.089v-.57l25.58 29.522h-.476Z" fill="#BCBCBC"/><path d="m29.732 253.041-24.63-28.406v-.546l25.104 28.952h-.474Z" fill="#BCBCBC"/><path d="m29.256 253.041-24.154-27.86v-.546l24.63 28.406h-.476Z" fill="#BBB"/><path d="m28.781 253.041-23.68-27.29v-.57l24.155 27.86h-.475Z" fill="#BABABA"/><path d="M28.306 253.041 5.102 226.297v-.546l23.68 27.29h-.476Z" fill="#BABABA"/><path d="M27.808 253.041 5.102 226.844v-.547l23.204 26.744h-.498Z" fill="#B9B9B9"/><path d="M27.333 253.041 5.102 227.39v-.546l22.706 26.197h-.475Z" fill="#B8B8B8"/><path d="M26.858 253.041 5.102 227.96v-.57l22.23 25.651h-.474Z" fill="#B7B7B7"/><path d="M26.383 253.041 5.102 228.506v-.546l21.756 25.081h-.475ZM25.907 253.041 5.102 229.053v-.547l21.28 24.535h-.475Z" fill="#B6B6B6"/><path d="M25.433 253.041 5.102 229.599v-.546l20.805 23.988h-.474Z" fill="#B5B5B5"/><path d="M24.934 253.041 5.102 230.169v-.57l20.33 23.442h-.498Z" fill="#B4B4B4"/><path d="M24.459 253.041 5.102 230.715v-.546l19.832 22.872h-.475Z" fill="#B3B3B3"/><path d="m23.984 253.041-18.882-21.78v-.546l19.357 22.326h-.475Z" fill="#B2B2B2"/><path d="M23.509 253.041 5.102 231.808v-.547l18.882 21.78h-.475Z" fill="#B1B1B1"/><path d="M23.034 253.041 5.102 232.378v-.57l18.407 21.233h-.475ZM22.559 253.041 5.102 232.924v-.546l17.932 20.663h-.475Z" fill="#B0B0B0"/><path d="M22.084 253.041 5.102 233.47v-.546l17.457 20.117h-.475Z" fill="#AFAFAF"/><path d="M21.585 253.041 5.102 234.017v-.547l16.982 19.571h-.5Z" fill="#AEAEAE"/><path d="M21.11 253.041 5.102 234.587v-.57l16.483 19.024h-.475Z" fill="#ADADAD"/><path d="M20.635 253.041 5.102 235.133v-.546l16.008 18.454h-.475Z" fill="#ACACAC"/><path d="M20.16 253.041 5.102 235.679v-.546l15.533 17.908h-.475Z" fill="#ABABAB"/><path d="M19.685 253.041 5.102 236.225v-.546l15.058 17.362h-.475Z" fill="#AAA"/><path d="M19.21 253.041 5.102 236.795v-.57l14.583 16.816h-.475Z" fill="#A9A9A9"/><path d="M18.71 253.041 5.103 237.342v-.547l14.108 16.246h-.5Z" fill="#A8A8A8"/><path d="M18.236 253.041 5.102 237.888v-.546l13.609 15.699h-.475Z" fill="#A7A7A7"/><path d="M17.76 253.041 5.103 238.434v-.546l13.134 15.153h-.475Z" fill="#A6A6A6"/><path d="M17.286 253.041 5.102 239.004v-.57l12.659 14.607h-.475Z" fill="#A4A4A4"/><path d="m16.81 253.041-11.708-13.49v-.547l12.184 14.037h-.475Z" fill="#A3A3A3"/><path d="M16.336 253.041 5.102 240.097v-.546l11.709 13.49h-.475Z" fill="#A2A2A2"/><path d="M15.837 253.041 5.102 240.643v-.546l11.234 12.944h-.499Z" fill="#A1A1A1"/><path d="m15.362 253.041-10.26-11.828v-.57l10.735 12.398h-.475Z" fill="#A0A0A0"/><path d="m14.887 253.041-9.785-11.282v-.546l10.26 11.828h-.475Z" fill="#9F9F9F"/><path d="m14.412 253.041-9.31-10.735v-.547l9.785 11.282h-.475Z" fill="#9E9E9E"/><path d="m13.937 253.041-8.835-10.165v-.57l9.31 10.735h-.475Z" fill="#9C9C9C"/><path d="m13.462 253.041-8.36-9.619v-.546l8.835 10.165h-.475Z" fill="#9B9B9B"/><path d="m12.987 253.041-7.885-9.073v-.546l8.36 9.619h-.475Z" fill="#9A9A9A"/><path d="m12.488 253.041-7.386-8.526v-.547l7.885 9.073h-.499Z" fill="#999"/><path d="m12.013 253.041-6.911-7.956v-.57l7.386 8.526h-.475Z" fill="#979797"/><path d="m11.538 253.041-6.436-7.41v-.546l6.911 7.956h-.475Z" fill="#969696"/><path d="m11.063 253.041-5.961-6.864v-.546l6.436 7.41h-.475Z" fill="#959595"/><path d="m10.588 253.041-5.486-6.318v-.546l5.961 6.864h-.475Z" fill="#949494"/><path d="m10.113 253.041-5.011-5.748v-.57l5.486 6.318h-.475Z" fill="#929292"/><path d="m9.614 253.041-4.512-5.201v-.547l5.011 5.748h-.499Z" fill="#919191"/><path d="m9.14 253.041-4.038-4.655v-.546l4.512 5.201H9.14Z" fill="#8F8F8F"/><path d="m8.664 253.041-3.562-4.109v-.546l4.037 4.655h-.475Z" fill="#8E8E8E"/><path d="m8.19 253.041-3.088-3.539v-.57l3.562 4.109H8.19Z" fill="#8D8D8D"/></g><mask id="b" style="mask-type:luminance" maskUnits="userSpaceOnUse" x="5" y="202" width="51" height="51"><path d="M50.897 247.032c-8.266 8.479-23.918 6.627-34.986-4.133-10.616-10.331-13.205-25.081-6.127-33.702.308-.452.64-.784.973-1.164 8.218-8.479 23.894-6.627 34.986 4.133 11.092 10.759 13.372 26.363 5.154 34.866Z" fill="#fff"/></mask><g mask="url(#b)"><path d="m59.113 252.21-5.7 3.325h-8.978l-32.492-55.981h47.17v52.656ZM44.003 255.535l-32.491-55.981h.427l32.492 55.981h-.428Z" fill="#CCC"/><path d="m43.6 255.535-32.49-55.981h.403l32.492 55.981H43.6Z" fill="#CCC"/><path d="m43.173 255.535-32.491-55.981h.427l32.492 55.981h-.428Z" fill="#CCC"/><path d="m42.771 255.535-32.515-55.981h.427l32.492 55.981h-.404Z" fill="#CCC"/><path d="M42.343 255.535 9.852 199.554h.403l32.516 55.981h-.428Z" fill="#CCC"/><path d="M41.917 255.535 9.426 199.554h.427l32.492 55.981h-.428Z" fill="#CCC"/><path d="M41.513 255.535 8.998 199.554h.428l32.491 55.981h-.404Z" fill="#CCC"/><path d="M41.087 255.535 8.596 199.554h.403l32.516 55.981h-.428ZM40.66 255.535 8.19 199.577l.048-.023h.356l32.492 55.981h-.428Z" fill="#CCC"/><path d="M40.254 255.535 7.88 199.767l.309-.19 32.467 55.958h-.403ZM39.824 255.535 7.57 199.957l.31-.19 32.372 55.768h-.428Z" fill="#CBCBCB"/><path d="M39.423 255.535 7.24 200.124l.333-.167 32.254 55.578h-.404ZM38.994 255.535 6.93 200.314l.308-.19 32.183 55.411h-.427Z" fill="#CBCBCB"/><path d="M38.568 255.535 6.623 200.504l.309-.19 32.064 55.221h-.428ZM38.163 255.535 6.313 200.67l.308-.166 31.945 55.031h-.403Z" fill="#CBCBCB"/><path d="M37.737 255.535 6.006 200.86l.309-.19 31.85 54.865h-.428Z" fill="#CBCBCB"/><path d="M37.332 255.535 5.695 201.026l.31-.166 31.73 54.675h-.403ZM36.903 255.535 5.36 201.216l.333-.19 31.636 54.509h-.427Z" fill="#CACACA"/><path d="M36.477 255.535 5.055 201.406l.308-.19 31.542 54.319h-.428ZM36.072 255.535 4.744 201.572l.309-.166 31.423 54.129h-.404Z" fill="#CACACA"/><path d="m35.647 255.535-31.21-53.772.31-.19 31.327 53.962h-.427Z" fill="#C9C9C9"/><path d="M35.24 255.535 4.128 201.952l.309-.19 31.209 53.773h-.404ZM34.812 255.535 3.793 202.119l.332-.166 31.114 53.582h-.427Z" fill="#C9C9C9"/><path d="m34.389 255.535-30.9-53.226.308-.19 31.019 53.416h-.428ZM33.981 255.535 3.176 202.499l.309-.19 30.9 53.226h-.404Z" fill="#C8C8C8"/><path d="m33.557 255.535-30.686-52.87.309-.166 30.805 53.036h-.428Z" fill="#C8C8C8"/><path d="M33.128 255.535 2.727 203.14v-.38l.142-.095 30.687 52.87h-.428ZM32.724 255.535 2.727 203.876v-.736l30.401 52.395h-.404Z" fill="#C7C7C7"/><path d="m32.297 255.535-29.57-50.946v-.713l29.997 51.659h-.427Z" fill="#C7C7C7"/><path d="M31.893 255.535 2.727 205.301v-.712l29.57 50.946h-.404ZM31.465 255.535 2.727 206.038v-.737l29.166 50.234h-.428Z" fill="#C6C6C6"/><path d="M31.038 255.535 2.727 206.75v-.712l28.738 49.497h-.427ZM30.634 255.535 2.727 207.463v-.713l28.31 48.785h-.403Z" fill="#C5C5C5"/><path d="m30.207 255.535-27.48-47.336v-.736l27.907 48.072h-.427Z" fill="#C4C4C4"/><path d="M29.803 255.535 2.727 208.912v-.713l27.48 47.336h-.404Z" fill="#C4C4C4"/><path d="M29.375 255.535 2.727 209.624v-.712l27.076 46.623h-.428ZM28.948 255.535 2.727 210.36v-.736l26.648 45.911h-.427Z" fill="#C3C3C3"/><path d="M28.544 255.535 2.727 211.073v-.713l26.22 45.175h-.403ZM28.116 255.535l-25.39-43.75v-.712l25.818 44.462h-.428Z" fill="#C2C2C2"/><path d="M27.689 255.535 2.727 212.522v-.737l25.39 43.75h-.428ZM27.285 255.535 2.727 213.234v-.712l24.962 43.013h-.404Z" fill="#C1C1C1"/><path d="M26.858 255.535 2.727 213.947v-.713l24.558 42.301h-.427ZM26.454 255.535 2.727 214.683v-.736l24.13 41.588h-.403Z" fill="silver"/><path d="m26.026 255.535-23.3-40.139v-.713l23.728 40.852h-.428Z" fill="#BFBFBF"/><path d="M25.599 255.535 2.727 216.108v-.712l23.3 40.139h-.428Z" fill="#BEBEBE"/><path d="M25.195 255.535 2.727 216.844v-.736l22.872 39.427h-.404Z" fill="#BEBEBE"/><path d="M24.768 255.535 2.727 217.557v-.713l22.468 38.691h-.427Z" fill="#BDBDBD"/><path d="M24.364 255.535 2.727 218.269v-.712l22.04 37.978h-.403ZM23.936 255.535l-21.21-36.529v-.736l21.638 37.265h-.428Z" fill="#BCBCBC"/><path d="M23.509 255.535 2.727 219.718v-.712l21.21 36.529h-.428Z" fill="#BBB"/><path d="M23.105 255.535 2.727 220.431v-.713l20.782 35.817h-.404Z" fill="#BABABA"/><path d="m22.677 255.535-19.95-34.368v-.736l20.378 35.104h-.428Z" fill="#BABABA"/><path d="M22.25 255.535 2.727 221.88v-.713l19.95 34.368h-.427Z" fill="#B9B9B9"/><path d="m21.846 255.535-19.12-32.943v-.712l19.524 33.655h-.404Z" fill="#B8B8B8"/><path d="M21.419 255.535 2.727 223.329v-.737l19.12 32.943h-.428Z" fill="#B7B7B7"/><path d="M21.015 255.535 2.727 224.041v-.712l18.692 32.206h-.404Z" fill="#B6B6B6"/><path d="m20.587 255.535-17.86-30.781v-.713l18.288 31.494h-.428Z" fill="#B6B6B6"/><path d="M20.16 255.535 2.727 225.49v-.736l17.86 30.781h-.427Z" fill="#B5B5B5"/><path d="m19.756 255.535-17.03-29.333v-.712l17.434 30.045h-.404Z" fill="#B4B4B4"/><path d="m19.329 255.535-16.602-28.62v-.713l17.03 29.333h-.428Z" fill="#B3B3B3"/><path d="M18.925 255.535 2.727 227.651v-.736l16.602 28.62h-.404Z" fill="#B2B2B2"/><path d="m18.497 255.535-15.77-27.171v-.713l16.198 27.884h-.428Z" fill="#B1B1B1"/><path d="M18.07 255.535 2.727 229.076v-.712l15.77 27.171h-.427ZM17.666 255.535l-14.94-25.722v-.737l15.344 26.459h-.404Z" fill="#B0B0B0"/><path d="m17.238 255.535-14.511-25.01v-.712l14.939 25.722h-.428Z" fill="#AFAFAF"/><path d="M16.835 255.535 2.727 231.238v-.713l14.511 25.01h-.403Z" fill="#AEAEAE"/><path d="m16.407 255.535-13.68-23.561v-.736l14.108 24.297h-.428Z" fill="#ADADAD"/><path d="M15.98 255.535 2.727 232.686v-.712l13.68 23.561h-.427Z" fill="#ACACAC"/><path d="m15.576 255.535-12.85-22.136v-.713l13.254 22.849h-.404Z" fill="#ABABAB"/><path d="m15.148 255.535-12.421-21.4v-.736l12.849 22.136h-.428Z" fill="#AAA"/><path d="M14.72 255.535 2.728 234.848v-.713l12.421 21.4h-.427Z" fill="#A9A9A9"/><path d="M14.317 255.535 2.727 235.56v-.712l11.994 20.687h-.404Z" fill="#A8A8A8"/><path d="M13.89 255.535 2.727 236.297v-.737l11.59 19.975h-.427Z" fill="#A7A7A7"/><path d="m13.486 255.535-10.76-18.526v-.712l11.164 19.238h-.404Z" fill="#A6A6A6"/><path d="M13.058 255.535 2.727 237.722v-.713l10.759 18.526h-.428Z" fill="#A4A4A4"/><path d="m12.63 255.535-9.903-17.077v-.736l10.331 17.813h-.427Z" fill="#A3A3A3"/><path d="m12.227 255.535-9.5-16.364v-.713l9.904 17.077h-.404Z" fill="#A2A2A2"/><path d="m11.8 255.535-9.073-15.652v-.713l9.5 16.365h-.428Z" fill="#A1A1A1"/><path d="m11.396 255.535-8.67-14.916v-.736l9.073 15.652h-.403Z" fill="#A0A0A0"/><path d="m10.968 255.535-8.241-14.203v-.713l8.669 14.916h-.428Z" fill="#9F9F9F"/><path d="m10.54 255.535-7.813-13.491v-.712l8.241 14.203h-.427Z" fill="#9E9E9E"/><path d="m10.137 255.535-7.41-12.754v-.737l7.814 13.491h-.404Z" fill="#9C9C9C"/><path d="m9.71 255.535-6.983-12.042v-.712l7.41 12.754h-.428Z" fill="#9B9B9B"/><path d="m9.282 255.535-6.555-11.329v-.713l6.982 12.042h-.427Z" fill="#9A9A9A"/><path d="m8.878 255.535-6.151-10.593v-.736l6.555 11.329h-.404Z" fill="#999"/><path d="m8.45 255.535-5.723-9.88v-.713l6.151 10.593h-.427Z" fill="#979797"/><path d="m8.047 255.535-5.32-9.168v-.712l5.724 9.88h-.404Z" fill="#969696"/><path d="m7.62 255.535-4.893-8.432v-.736l5.32 9.168h-.428Z" fill="#959595"/><path d="m7.192 255.535-4.465-7.719v-.713l4.892 8.432h-.427Z" fill="#949494"/><path d="m6.788 255.535-4.061-7.007v-.712l4.465 7.719h-.404Z" fill="#929292"/><path d="m6.36 255.535-3.633-6.27v-.737l4.061 7.007H6.36Z" fill="#919191"/><path d="m5.957 255.535-3.23-5.558v-.712l3.633 6.27h-.403Z" fill="#8F8F8F"/><path d="m5.53 255.535-2.803-4.845v-.713l3.23 5.558h-.428Z" fill="#8E8E8E"/></g><mask id="c" style="mask-type:luminance" maskUnits="userSpaceOnUse" x="3" y="205" width="51" height="50"><path d="M48.522 249.526c-8.266 8.479-23.918 6.627-34.986-4.133C2.92 235.062.331 220.312 7.41 211.691c.308-.452.64-.784.973-1.164 8.218-8.479 23.894-6.627 34.986 4.132 11.092 10.76 13.372 26.364 5.154 34.867Z" fill="#fff"/></mask><g mask="url(#c)" fill="#CCC"><path d="M56.739 247.578 7.598 203.283l1.116-1.235h48.025v45.53ZM56.737 249.099l-8.028 8.906H.33v-46.671l7.267-8.051 49.141 44.295v1.521Z"/></g><path d="M64.484 179.967c7.95-5.242 9.145-17.455 2.668-27.278-6.477-9.823-18.173-13.536-26.124-8.294-7.95 5.242-9.144 17.455-2.667 27.278s18.173 13.537 26.123 8.294Z" fill="#E8E8E8"/><path d="M61.672 180.995c7.49-4.939 8.482-16.649 2.214-26.154-6.267-9.506-17.42-13.208-24.911-8.269-7.49 4.94-8.482 16.649-2.214 26.155 6.267 9.505 17.42 13.207 24.911 8.268Z" fill="#fff"/><path d="M54.13 184.21c-2.494 0-5.107-.57-7.696-1.733-9.975-4.489-16.46-16.436-14.464-26.673.95-4.893 3.681-8.717 7.672-10.783 4.275-2.209 9.429-2.185 14.535.119 9.976 4.489 16.46 16.436 14.465 26.672-.95 4.893-3.682 8.717-7.696 10.783-2.113 1.093-4.417 1.639-6.84 1.639l.024-.024Zm-7.624-38.809c-2.09 0-4.11.475-5.914 1.401-3.444 1.782-5.796 5.107-6.627 9.382-1.829 9.358 4.157 20.307 13.3 24.44 4.514 2.019 9.05 2.09 12.755.166 3.444-1.781 5.795-5.106 6.627-9.381 1.828-9.358-4.157-20.331-13.301-24.44-2.304-1.045-4.631-1.568-6.864-1.568h.024Z" fill="#3D3D3D"/><path d="M60.138 178.843c-.309 0-.641-.143-.831-.428l-1.473-2.09a1.02 1.02 0 0 1 .238-1.401c1.828-1.307 3.04-3.325 3.515-5.796 1.259-6.484-2.874-14.084-9.24-16.958-3.087-1.401-6.222-1.425-8.764-.119-2.35 1.212-3.966 3.492-4.536 6.413-.475 2.47-.19 5.178.831 7.838.095.285.095.594-.047.855-.143.261-.38.451-.665.523l-2.423.546a1.01 1.01 0 0 1-1.211-.76 1.01 1.01 0 0 1 .76-1.211l1.306-.285c-.855-2.661-1.045-5.344-.546-7.838.689-3.539 2.684-6.318 5.581-7.838 3.112-1.615 6.84-1.591 10.522.071 7.173 3.23 11.828 11.828 10.403 19.191-.522 2.636-1.734 4.845-3.539 6.437l.927 1.306a.994.994 0 0 1-.238 1.401c-.166.119-.38.19-.57.19v-.047Z" fill="#5782A7"/><path d="M52.775 152.241h-.19a1.036 1.036 0 0 1-.808-1.187l.428-2.185c.118-.546.64-.926 1.187-.808.546.119.903.642.808 1.188l-.428 2.185a1.038 1.038 0 0 1-.997.831v-.024ZM61.018 160.103a1.014 1.014 0 0 1-.38-1.948l1.853-.783a1.02 1.02 0 0 1 1.33.546 1.013 1.013 0 0 1-.546 1.33l-1.853.784a1.12 1.12 0 0 1-.404.071ZM64.94 170.15c-.119 0-.261-.024-.38-.071l-2.138-.855c-.522-.214-.76-.808-.57-1.331.214-.522.808-.76 1.33-.57l2.138.855c.522.214.76.808.57 1.331a1.025 1.025 0 0 1-.95.641ZM38.217 158.583a.935.935 0 0 1-.428-.095l-2.113-.998a1.016 1.016 0 0 1-.476-1.353 1.024 1.024 0 0 1 1.354-.475l2.114.997c.499.238.713.831.475 1.354-.166.356-.546.57-.926.57ZM43.205 152.099c-.356 0-.689-.19-.879-.523l-1.235-2.208a1.005 1.005 0 0 1 .38-1.378 1.038 1.038 0 0 1 1.378.38l1.235 2.209a1.004 1.004 0 0 1-.38 1.377.965.965 0 0 1-.5.119v.024Z" fill="#5782A7"/><path d="M51.787 166.004c.964-.635 1.09-2.144.28-3.371-.808-1.226-2.245-1.706-3.209-1.07-.963.635-1.09 2.145-.28 3.371.808 1.227 2.245 1.706 3.209 1.07Z" fill="#3D3D3D"/><path d="M48.64 166.991c-.213 0-.403-.071-.593-.19a1.023 1.023 0 0 1-.238-1.425l9.335-13.087a1.023 1.023 0 0 1 1.662 1.188l-9.334 13.086a.974.974 0 0 1-.831.428Z" fill="#FF7373"/><path d="m49.114 186.989-6.08-2.731c-.19-.095-.31-.309-.262-.499l.736-3.824 6.746 3.04-.736 3.824c-.048.19-.214.285-.404.19Z" fill="#3D3D3D"/><path d="M47.239 189.317a8.377 8.377 0 0 0-3.444-1.544l.665-3.372 3.444 1.543-.665 3.373Z" fill="#3D3D3D"/></svg>